G04*
G04 #@! TF.GenerationSoftware,Altium Limited,Altium Designer,23.2.1 (34)*
G04*
G04 Layer_Physical_Order=2*
G04 Layer_Color=36540*
%FSLAX44Y44*%
%MOMM*%
G71*
G04*
G04 #@! TF.SameCoordinates,6C2AB55D-B72B-4B93-AE35-0C838568E6CE*
G04*
G04*
G04 #@! TF.FilePolarity,Positive*
G04*
G01*
G75*
%ADD126C,3.6000*%
%ADD127C,1.3980*%
%ADD128R,1.3980X1.3980*%
%ADD129C,1.0058*%
%ADD130O,1.0000X1.4600*%
%ADD131O,1.0000X1.8000*%
%ADD132R,1.3980X1.3980*%
%ADD133R,1.2000X1.2000*%
%ADD134C,1.2000*%
%ADD135C,0.5080*%
%ADD136C,0.5000*%
G36*
X666919Y693551D02*
X664070Y691647D01*
X661353Y688931D01*
X659219Y685737D01*
X657749Y682188D01*
X657000Y678421D01*
Y674579D01*
X657749Y670812D01*
X659219Y667263D01*
X661353Y664070D01*
X664070Y661353D01*
X667263Y659219D01*
X670812Y657749D01*
X674579Y657000D01*
X678421D01*
X682188Y657749D01*
X685737Y659219D01*
X688931Y661353D01*
X691647Y664070D01*
X693551Y666919D01*
X694821Y666534D01*
X694821Y33466D01*
X693551Y33081D01*
X691647Y35931D01*
X688931Y38647D01*
X685737Y40781D01*
X682188Y42251D01*
X678421Y43000D01*
X674579D01*
X670812Y42251D01*
X667263Y40781D01*
X664070Y38647D01*
X661353Y35931D01*
X659219Y32737D01*
X657749Y29188D01*
X657000Y25421D01*
Y21579D01*
X657749Y17812D01*
X659219Y14263D01*
X661353Y11070D01*
X664070Y8353D01*
X666919Y6449D01*
X666534Y5179D01*
X33466Y5179D01*
X33081Y6449D01*
X35931Y8353D01*
X38647Y11070D01*
X40781Y14263D01*
X42251Y17812D01*
X43000Y21579D01*
Y25421D01*
X42251Y29188D01*
X40781Y32737D01*
X38647Y35931D01*
X35931Y38647D01*
X32737Y40781D01*
X29188Y42251D01*
X25421Y43000D01*
X21579D01*
X17812Y42251D01*
X14263Y40781D01*
X11070Y38647D01*
X8353Y35931D01*
X6449Y33081D01*
X5179Y33466D01*
X5179Y234820D01*
X61000D01*
X61285Y234877D01*
X61574Y234852D01*
X62464Y234952D01*
X63020Y235128D01*
X63598Y235209D01*
X64444Y235504D01*
X64946Y235800D01*
X65490Y236008D01*
X66249Y236484D01*
X66673Y236884D01*
X67158Y237208D01*
X67791Y237842D01*
X68115Y238327D01*
X68516Y238751D01*
X68992Y239510D01*
X69200Y240054D01*
X69496Y240556D01*
X69791Y241402D01*
X69872Y241980D01*
X70048Y242535D01*
X70148Y243426D01*
X70123Y243715D01*
X70180Y244000D01*
X70179Y456000D01*
X70123Y456285D01*
X70148Y456574D01*
X70048Y457464D01*
X69872Y458020D01*
X69791Y458597D01*
X69496Y459443D01*
X69200Y459946D01*
X68992Y460490D01*
X68516Y461249D01*
X68115Y461673D01*
X67791Y462158D01*
X67158Y462791D01*
X66673Y463115D01*
X66249Y463515D01*
X65491Y463992D01*
X64946Y464199D01*
X64443Y464495D01*
X63597Y464791D01*
X63020Y464872D01*
X62464Y465048D01*
X61574Y465147D01*
X61285Y465123D01*
X61000Y465179D01*
X5179D01*
X5179Y666534D01*
X6449Y666919D01*
X8353Y664070D01*
X11070Y661354D01*
X14263Y659220D01*
X17812Y657750D01*
X21579Y657000D01*
X25421D01*
X29188Y657750D01*
X32737Y659220D01*
X35931Y661354D01*
X38647Y664070D01*
X40781Y667263D01*
X42251Y670812D01*
X43000Y674580D01*
Y678421D01*
X42251Y682188D01*
X40781Y685737D01*
X38647Y688931D01*
X35931Y691647D01*
X33090Y693545D01*
X33476Y694815D01*
X55897Y694811D01*
X56025Y694694D01*
X56496Y694408D01*
X56907Y694043D01*
X58794Y692939D01*
X59315Y692759D01*
X59794Y692489D01*
X61871Y691807D01*
X62418Y691741D01*
X62944Y691578D01*
X65118Y691349D01*
X65391Y691374D01*
X65660Y691320D01*
X165660D01*
X165928Y691374D01*
X166201Y691349D01*
X168376Y691577D01*
X168904Y691741D01*
X169453Y691808D01*
X171531Y692491D01*
X172013Y692763D01*
X172535Y692945D01*
X174422Y694052D01*
X174835Y694419D01*
X175307Y694707D01*
X175430Y694820D01*
X341801Y694813D01*
X342327Y693542D01*
X342325Y693540D01*
X341710Y692056D01*
Y690448D01*
X342325Y688963D01*
X343461Y687827D01*
X344946Y687212D01*
X346553D01*
X348038Y687827D01*
X349175Y688963D01*
X349790Y690448D01*
Y692056D01*
X349175Y693540D01*
X349173Y693542D01*
X349699Y694812D01*
X384237Y694811D01*
X384365Y694694D01*
X384836Y694408D01*
X385247Y694043D01*
X387134Y692939D01*
X387655Y692759D01*
X388134Y692489D01*
X390211Y691807D01*
X390758Y691741D01*
X391284Y691578D01*
X393458Y691349D01*
X393731Y691374D01*
X394000Y691320D01*
X494000D01*
X494268Y691374D01*
X494541Y691349D01*
X496716Y691577D01*
X497244Y691741D01*
X497793Y691808D01*
X499871Y692491D01*
X500353Y692763D01*
X500875Y692944D01*
X502762Y694052D01*
X503175Y694419D01*
X503647Y694707D01*
X503770Y694820D01*
X666534Y694821D01*
X666919Y693551D01*
D02*
G37*
%LPC*%
G36*
X157252Y687426D02*
Y677770D01*
X163075D01*
Y680500D01*
X162833Y682336D01*
X162125Y684047D01*
X160998Y685516D01*
X159529Y686643D01*
X157818Y687351D01*
X157252Y687426D01*
D02*
G37*
G36*
X75252D02*
Y677770D01*
X81075D01*
Y680500D01*
X80833Y682336D01*
X80125Y684047D01*
X78998Y685516D01*
X77529Y686643D01*
X75818Y687351D01*
X75252Y687426D01*
D02*
G37*
G36*
X154712Y687426D02*
X154146Y687351D01*
X152436Y686643D01*
X150967Y685516D01*
X149840Y684047D01*
X149131Y682336D01*
X148890Y680500D01*
Y677770D01*
X154712D01*
Y687426D01*
D02*
G37*
G36*
X72712D02*
X72147Y687351D01*
X70436Y686643D01*
X68967Y685516D01*
X67840Y684047D01*
X67131Y682336D01*
X66890Y680500D01*
Y677770D01*
X72712D01*
Y687426D01*
D02*
G37*
G36*
X366370Y684848D02*
X364763D01*
X363278Y684233D01*
X362142Y683097D01*
X361527Y681612D01*
Y680005D01*
X362142Y678520D01*
X363278Y677383D01*
X364763Y676768D01*
X366370D01*
X367855Y677383D01*
X368992Y678520D01*
X369607Y680005D01*
Y681612D01*
X368992Y683097D01*
X367855Y684233D01*
X366370Y684848D01*
D02*
G37*
G36*
X154712Y675230D02*
X148890D01*
Y672500D01*
X149131Y670665D01*
X149840Y668954D01*
X150967Y667485D01*
X152436Y666358D01*
X154146Y665649D01*
X154712Y665575D01*
Y675230D01*
D02*
G37*
G36*
X72712D02*
X66890D01*
Y672500D01*
X67131Y670665D01*
X67840Y668954D01*
X68967Y667485D01*
X70436Y666358D01*
X72147Y665649D01*
X72712Y665575D01*
Y675230D01*
D02*
G37*
G36*
X163075D02*
X157252D01*
Y665575D01*
X157818Y665649D01*
X159529Y666358D01*
X160998Y667485D01*
X162125Y668954D01*
X162833Y670665D01*
X163075Y672500D01*
Y675230D01*
D02*
G37*
G36*
X81075D02*
X75252D01*
Y665575D01*
X75818Y665649D01*
X77529Y666358D01*
X78998Y667485D01*
X80125Y668954D01*
X80833Y670665D01*
X81075Y672500D01*
Y675230D01*
D02*
G37*
G36*
X366110Y671527D02*
X364502D01*
X363017Y670912D01*
X361881Y669775D01*
X361266Y668291D01*
Y666683D01*
X361881Y665199D01*
X363017Y664062D01*
X364502Y663447D01*
X366110D01*
X367594Y664062D01*
X368731Y665199D01*
X369346Y666683D01*
Y668291D01*
X368731Y669775D01*
X367594Y670912D01*
X366110Y671527D01*
D02*
G37*
G36*
X415559Y670527D02*
X413951D01*
X412467Y669912D01*
X411330Y668775D01*
X410715Y667290D01*
Y665683D01*
X411330Y664198D01*
X412467Y663062D01*
X413951Y662447D01*
X415559D01*
X417043Y663062D01*
X418180Y664198D01*
X418795Y665683D01*
Y667290D01*
X418180Y668775D01*
X417043Y669912D01*
X415559Y670527D01*
D02*
G37*
G36*
X504967Y669190D02*
X503360D01*
X501875Y668575D01*
X500738Y667438D01*
X500123Y665953D01*
Y664346D01*
X500738Y662861D01*
X501875Y661725D01*
X503360Y661110D01*
X504967D01*
X506452Y661725D01*
X507588Y662861D01*
X508203Y664346D01*
Y665953D01*
X507588Y667438D01*
X506452Y668575D01*
X504967Y669190D01*
D02*
G37*
G36*
X481909D02*
X480301D01*
X478816Y668575D01*
X477680Y667438D01*
X477065Y665953D01*
Y664346D01*
X477680Y662861D01*
X478816Y661725D01*
X480301Y661110D01*
X481909D01*
X483394Y661725D01*
X484530Y662861D01*
X485145Y664346D01*
Y665953D01*
X484530Y667438D01*
X483394Y668575D01*
X481909Y669190D01*
D02*
G37*
G36*
X296852Y661962D02*
X295245D01*
X293760Y661347D01*
X292623Y660210D01*
X292008Y658726D01*
Y657118D01*
X292623Y655633D01*
X293760Y654497D01*
X295245Y653882D01*
X296852D01*
X298337Y654497D01*
X299473Y655633D01*
X300088Y657118D01*
Y658726D01*
X299473Y660210D01*
X298337Y661347D01*
X296852Y661962D01*
D02*
G37*
G36*
X140502Y654926D02*
Y646970D01*
X146325D01*
Y648000D01*
X146083Y649836D01*
X145375Y651547D01*
X144248Y653016D01*
X142779Y654143D01*
X141068Y654851D01*
X140502Y654926D01*
D02*
G37*
G36*
X92002D02*
Y646970D01*
X97825D01*
Y648000D01*
X97583Y649836D01*
X96875Y651547D01*
X95747Y653016D01*
X94279Y654143D01*
X92568Y654851D01*
X92002Y654926D01*
D02*
G37*
G36*
X137962D02*
X137396Y654851D01*
X135686Y654143D01*
X134217Y653016D01*
X133090Y651547D01*
X132381Y649836D01*
X132140Y648000D01*
Y646970D01*
X137962D01*
Y654926D01*
D02*
G37*
G36*
X89462D02*
X88897Y654851D01*
X87186Y654143D01*
X85717Y653016D01*
X84590Y651547D01*
X83881Y649836D01*
X83640Y648000D01*
Y646970D01*
X89462D01*
Y654926D01*
D02*
G37*
G36*
X504967Y653557D02*
X503360D01*
X501875Y652942D01*
X500738Y651806D01*
X500123Y650321D01*
Y648714D01*
X500738Y647229D01*
X501875Y646092D01*
X503360Y645477D01*
X504967D01*
X506452Y646092D01*
X507588Y647229D01*
X508203Y648714D01*
Y650321D01*
X507588Y651806D01*
X506452Y652942D01*
X504967Y653557D01*
D02*
G37*
G36*
X453529D02*
X451921D01*
X450437Y652942D01*
X449300Y651806D01*
X448685Y650321D01*
Y648714D01*
X449300Y647229D01*
X450437Y646092D01*
X451921Y645477D01*
X453529D01*
X455013Y646092D01*
X456150Y647229D01*
X456765Y648714D01*
Y650321D01*
X456150Y651806D01*
X455013Y652942D01*
X453529Y653557D01*
D02*
G37*
G36*
X137962Y644430D02*
X132140D01*
Y643400D01*
X132381Y641565D01*
X133090Y639854D01*
X134217Y638385D01*
X135686Y637258D01*
X137396Y636549D01*
X137962Y636475D01*
Y644430D01*
D02*
G37*
G36*
X89462D02*
X83640D01*
Y643400D01*
X83881Y641565D01*
X84590Y639854D01*
X85717Y638385D01*
X87186Y637258D01*
X88897Y636549D01*
X89462Y636475D01*
Y644430D01*
D02*
G37*
G36*
X146325D02*
X140502D01*
Y636475D01*
X141068Y636549D01*
X142779Y637258D01*
X144248Y638385D01*
X145375Y639854D01*
X146083Y641565D01*
X146325Y643400D01*
Y644430D01*
D02*
G37*
G36*
X97825D02*
X92002D01*
Y636475D01*
X92568Y636549D01*
X94279Y637258D01*
X95747Y638385D01*
X96875Y639854D01*
X97583Y641565D01*
X97825Y643400D01*
Y644430D01*
D02*
G37*
G36*
X439559Y641712D02*
X437951D01*
X436467Y641097D01*
X435330Y639961D01*
X434715Y638476D01*
Y636869D01*
X435330Y635384D01*
X436467Y634248D01*
X437951Y633632D01*
X439559D01*
X441044Y634248D01*
X442180Y635384D01*
X442795Y636869D01*
Y638476D01*
X442180Y639961D01*
X441044Y641097D01*
X439559Y641712D01*
D02*
G37*
G36*
X504804Y637360D02*
X503196D01*
X501712Y636745D01*
X500575Y635609D01*
X499960Y634124D01*
Y632517D01*
X500575Y631032D01*
X501712Y629895D01*
X503196Y629280D01*
X504804D01*
X506288Y629895D01*
X507425Y631032D01*
X508040Y632517D01*
Y634124D01*
X507425Y635609D01*
X506288Y636745D01*
X504804Y637360D01*
D02*
G37*
G36*
X257414Y635918D02*
X250652D01*
Y629156D01*
X257414D01*
Y635918D01*
D02*
G37*
G36*
X248112D02*
X241350D01*
Y629156D01*
X248112D01*
Y635918D01*
D02*
G37*
G36*
X230369Y635386D02*
X228395D01*
X226487Y634875D01*
X224777Y633888D01*
X223381Y632491D01*
X222393Y630781D01*
X221882Y628874D01*
Y626899D01*
X222393Y624991D01*
X223381Y623281D01*
X224777Y621885D01*
X226487Y620897D01*
X228395Y620386D01*
X230369D01*
X232277Y620897D01*
X233987Y621885D01*
X235384Y623281D01*
X236371Y624991D01*
X236882Y626899D01*
Y628874D01*
X236371Y630781D01*
X235384Y632491D01*
X233987Y633888D01*
X232277Y634875D01*
X230369Y635386D01*
D02*
G37*
G36*
X257414Y626616D02*
X250652D01*
Y619854D01*
X257414D01*
Y626616D01*
D02*
G37*
G36*
X248112D02*
X241350D01*
Y619854D01*
X248112D01*
Y626616D01*
D02*
G37*
G36*
X513054Y627599D02*
X511447D01*
X509962Y626983D01*
X508825Y625847D01*
X508210Y624362D01*
Y622755D01*
X508825Y621270D01*
X509962Y620134D01*
X511447Y619519D01*
X513054D01*
X514539Y620134D01*
X515675Y621270D01*
X516290Y622755D01*
Y624362D01*
X515675Y625847D01*
X514539Y626983D01*
X513054Y627599D01*
D02*
G37*
G36*
X561022Y625613D02*
X559415D01*
X557930Y624998D01*
X556793Y623862D01*
X556178Y622377D01*
Y620770D01*
X556793Y619285D01*
X557930Y618148D01*
X559415Y617533D01*
X561022D01*
X562507Y618148D01*
X563643Y619285D01*
X564258Y620770D01*
Y622377D01*
X563643Y623862D01*
X562507Y624998D01*
X561022Y625613D01*
D02*
G37*
G36*
X453529Y622797D02*
X451921D01*
X450437Y622182D01*
X449300Y621045D01*
X448685Y619560D01*
Y617953D01*
X449300Y616468D01*
X450437Y615332D01*
X451921Y614717D01*
X453529D01*
X455013Y615332D01*
X456150Y616468D01*
X456765Y617953D01*
Y619560D01*
X456150Y621045D01*
X455013Y622182D01*
X453529Y622797D01*
D02*
G37*
G36*
X502009Y615145D02*
X500401D01*
X498917Y614530D01*
X497780Y613393D01*
X497165Y611908D01*
Y610301D01*
X497780Y608816D01*
X498917Y607680D01*
X500401Y607065D01*
X502009D01*
X503493Y607680D01*
X504630Y608816D01*
X505245Y610301D01*
Y611908D01*
X504630Y613393D01*
X503493Y614530D01*
X502009Y615145D01*
D02*
G37*
G36*
X431538Y614929D02*
X429930D01*
X428445Y614314D01*
X427309Y613177D01*
X426694Y611693D01*
Y610085D01*
X427309Y608601D01*
X428445Y607464D01*
X429930Y606849D01*
X431538D01*
X433022Y607464D01*
X434159Y608601D01*
X434774Y610085D01*
Y611693D01*
X434159Y613177D01*
X433022Y614314D01*
X431538Y614929D01*
D02*
G37*
G36*
X357049Y589156D02*
X355442D01*
X353957Y588541D01*
X352820Y587405D01*
X352205Y585920D01*
Y584313D01*
X352820Y582828D01*
X353957Y581691D01*
X355442Y581076D01*
X357049D01*
X358534Y581691D01*
X359670Y582828D01*
X360285Y584313D01*
Y585920D01*
X359670Y587405D01*
X358534Y588541D01*
X357049Y589156D01*
D02*
G37*
G36*
X48029Y588780D02*
X46422D01*
X44937Y588165D01*
X43801Y587028D01*
X43186Y585544D01*
Y583936D01*
X43801Y582451D01*
X44937Y581315D01*
X46422Y580700D01*
X48029D01*
X49514Y581315D01*
X50651Y582451D01*
X51266Y583936D01*
Y585544D01*
X50651Y587028D01*
X49514Y588165D01*
X48029Y588780D01*
D02*
G37*
G36*
X456064Y579126D02*
X454456D01*
X452971Y578511D01*
X451835Y577374D01*
X451220Y575890D01*
Y574282D01*
X451835Y572797D01*
X452971Y571661D01*
X454456Y571046D01*
X456064D01*
X457548Y571661D01*
X458685Y572797D01*
X459300Y574282D01*
Y575890D01*
X458685Y577374D01*
X457548Y578511D01*
X456064Y579126D01*
D02*
G37*
G36*
X186804Y576244D02*
X185196D01*
X183711Y575629D01*
X182575Y574492D01*
X181960Y573007D01*
Y571400D01*
X182575Y569915D01*
X183443Y569048D01*
X182575Y568180D01*
X181960Y566695D01*
Y565088D01*
X182575Y563603D01*
X183288Y562890D01*
X183575Y562079D01*
X183288Y561267D01*
X182575Y560554D01*
X181960Y559069D01*
Y557462D01*
X182575Y555977D01*
X182946Y555606D01*
X183657Y554777D01*
X182946Y553947D01*
X182575Y553576D01*
X181960Y552091D01*
Y550484D01*
X182575Y548999D01*
X183711Y547863D01*
X185196Y547248D01*
X186804D01*
X188288Y547863D01*
X189425Y548999D01*
X190040Y550484D01*
Y552091D01*
X189425Y553576D01*
X189054Y553947D01*
X188343Y554777D01*
X189054Y555606D01*
X189425Y555977D01*
X190040Y557462D01*
Y559069D01*
X189425Y560554D01*
X188712Y561267D01*
X188426Y562079D01*
X188712Y562890D01*
X189425Y563603D01*
X190009Y565014D01*
X190222Y565129D01*
X191310Y565372D01*
X192223Y564459D01*
X193708Y563844D01*
X195315D01*
X196800Y564459D01*
X197936Y565596D01*
X198551Y567081D01*
Y568688D01*
X197936Y570173D01*
X196800Y571309D01*
X195315Y571924D01*
X193708D01*
X192223Y571309D01*
X191086Y570173D01*
X190797Y569474D01*
X189390Y569397D01*
X189219Y569709D01*
X189425Y569915D01*
X190040Y571400D01*
Y573007D01*
X189425Y574492D01*
X188288Y575629D01*
X186804Y576244D01*
D02*
G37*
G36*
X93569Y568176D02*
X91961D01*
X90477Y567561D01*
X89340Y566425D01*
X88725Y564940D01*
Y563333D01*
X89340Y561848D01*
X90477Y560712D01*
X91961Y560096D01*
X93569D01*
X95054Y560712D01*
X96190Y561848D01*
X96805Y563333D01*
Y564940D01*
X96190Y566425D01*
X95054Y567561D01*
X93569Y568176D01*
D02*
G37*
G36*
X298591Y564608D02*
X296983D01*
X295498Y563993D01*
X294362Y562856D01*
X293747Y561371D01*
Y559764D01*
X294362Y558279D01*
X295498Y557143D01*
X296983Y556528D01*
X298591D01*
X300075Y557143D01*
X301212Y558279D01*
X301827Y559764D01*
Y561371D01*
X301212Y562856D01*
X300075Y563993D01*
X298591Y564608D01*
D02*
G37*
G36*
X333959Y559437D02*
X332351D01*
X330866Y558822D01*
X329730Y557685D01*
X329115Y556200D01*
Y554593D01*
X329730Y553108D01*
X330866Y551972D01*
X332351Y551357D01*
X333959D01*
X335443Y551972D01*
X336580Y553108D01*
X337195Y554593D01*
Y556200D01*
X336580Y557685D01*
X335443Y558822D01*
X333959Y559437D01*
D02*
G37*
G36*
X62213Y553575D02*
X60606D01*
X59121Y552960D01*
X57984Y551824D01*
X57369Y550339D01*
Y548731D01*
X57984Y547247D01*
X59121Y546110D01*
X60606Y545495D01*
X62213D01*
X63698Y546110D01*
X64834Y547247D01*
X65449Y548731D01*
Y550339D01*
X64834Y551824D01*
X63698Y552960D01*
X62213Y553575D01*
D02*
G37*
G36*
X332238Y550124D02*
X330631D01*
X329146Y549509D01*
X328009Y548372D01*
X327394Y546887D01*
Y545280D01*
X328009Y543795D01*
X329146Y542659D01*
X330631Y542044D01*
X332238D01*
X333723Y542659D01*
X334859Y543795D01*
X335474Y545280D01*
Y546887D01*
X334859Y548372D01*
X333723Y549509D01*
X332238Y550124D01*
D02*
G37*
G36*
X76228Y547016D02*
X74621D01*
X73136Y546401D01*
X72000Y545265D01*
X71384Y543780D01*
Y542172D01*
X72000Y540687D01*
X73136Y539551D01*
X74621Y538936D01*
X76228D01*
X77713Y539551D01*
X78849Y540687D01*
X79464Y542172D01*
Y543780D01*
X78849Y545265D01*
X77713Y546401D01*
X76228Y547016D01*
D02*
G37*
G36*
X29054Y542525D02*
X27446D01*
X25961Y541910D01*
X24825Y540773D01*
X24210Y539288D01*
Y537681D01*
X24825Y536196D01*
X25961Y535060D01*
X27446Y534445D01*
X29054D01*
X30538Y535060D01*
X31675Y536196D01*
X32290Y537681D01*
Y539288D01*
X31675Y540773D01*
X30538Y541910D01*
X29054Y542525D01*
D02*
G37*
G36*
X135941Y540752D02*
X134334D01*
X132850Y540137D01*
X131713Y539001D01*
X131098Y537516D01*
Y535909D01*
X131713Y534424D01*
X132850Y533288D01*
X134334Y532673D01*
X135941D01*
X137426Y533288D01*
X138563Y534424D01*
X139178Y535909D01*
Y537516D01*
X138563Y539001D01*
X137426Y540137D01*
X135941Y540752D01*
D02*
G37*
G36*
X525186Y540090D02*
Y532360D01*
X532916D01*
X532323Y534572D01*
X531135Y536630D01*
X529456Y538309D01*
X527398Y539497D01*
X525186Y540090D01*
D02*
G37*
G36*
X522646Y540090D02*
X520434Y539497D01*
X518376Y538309D01*
X516697Y536630D01*
X515509Y534572D01*
X514916Y532360D01*
X522646D01*
Y540090D01*
D02*
G37*
G36*
X532916Y529820D02*
X525186D01*
Y522090D01*
X527398Y522683D01*
X529456Y523871D01*
X531135Y525550D01*
X532323Y527608D01*
X532916Y529820D01*
D02*
G37*
G36*
X522646D02*
X514916D01*
X515509Y527608D01*
X516697Y525550D01*
X518376Y523871D01*
X520434Y522683D01*
X522646Y522090D01*
Y529820D01*
D02*
G37*
G36*
X87083Y532810D02*
X85476D01*
X83991Y532195D01*
X82855Y531058D01*
X82240Y529573D01*
Y527966D01*
X82731Y526780D01*
X81304Y526189D01*
X80167Y525052D01*
X79552Y523567D01*
Y521960D01*
X80167Y520475D01*
X81304Y519339D01*
X82788Y518724D01*
X84396D01*
X85880Y519339D01*
X87017Y520475D01*
X87632Y521960D01*
Y523567D01*
X87141Y524753D01*
X88568Y525345D01*
X89705Y526481D01*
X90320Y527966D01*
Y529573D01*
X89705Y531058D01*
X88568Y532195D01*
X87083Y532810D01*
D02*
G37*
G36*
X272997Y522126D02*
X271390D01*
X269905Y521511D01*
X268768Y520374D01*
X268153Y518889D01*
Y517282D01*
X268768Y515797D01*
X269905Y514661D01*
X271390Y514046D01*
X272997D01*
X274482Y514661D01*
X275618Y515797D01*
X276233Y517282D01*
Y518889D01*
X275618Y520374D01*
X274482Y521511D01*
X272997Y522126D01*
D02*
G37*
G36*
X456802Y519454D02*
X455210D01*
X453740Y518845D01*
X452615Y517719D01*
X452006Y516249D01*
Y514658D01*
X452615Y513188D01*
X453740Y512063D01*
X455210Y511454D01*
X456802D01*
X458272Y512063D01*
X459397Y513188D01*
X460006Y514658D01*
Y516249D01*
X459397Y517719D01*
X458272Y518845D01*
X456802Y519454D01*
D02*
G37*
G36*
X385201Y513309D02*
X383610D01*
X382140Y512700D01*
X381014Y511575D01*
X380405Y510105D01*
Y508514D01*
X381014Y507043D01*
X382140Y505918D01*
X383610Y505309D01*
X385201D01*
X386671Y505918D01*
X387796Y507043D01*
X388405Y508514D01*
Y510105D01*
X387796Y511575D01*
X386671Y512700D01*
X385201Y513309D01*
D02*
G37*
G36*
X525034Y514180D02*
X522798D01*
X520639Y513601D01*
X518703Y512484D01*
X517122Y510903D01*
X516004Y508967D01*
X515426Y506808D01*
Y504572D01*
X516004Y502413D01*
X517122Y500477D01*
X518703Y498896D01*
X520639Y497779D01*
X522798Y497200D01*
X525034D01*
X527193Y497779D01*
X529129Y498896D01*
X530710Y500477D01*
X531827Y502413D01*
X532406Y504572D01*
Y506808D01*
X531827Y508967D01*
X530710Y510903D01*
X529129Y512484D01*
X527193Y513601D01*
X525034Y514180D01*
D02*
G37*
G36*
X544068Y492299D02*
X542461D01*
X540976Y491684D01*
X539840Y490548D01*
X539225Y489063D01*
Y487456D01*
X539840Y485971D01*
X540976Y484834D01*
X542461Y484219D01*
X544068D01*
X545553Y484834D01*
X546689Y485971D01*
X547304Y487456D01*
Y489063D01*
X546689Y490548D01*
X545553Y491684D01*
X544068Y492299D01*
D02*
G37*
G36*
X103175Y490686D02*
X101568D01*
X100083Y490070D01*
X98946Y488934D01*
X98331Y487449D01*
Y485842D01*
X98946Y484357D01*
X100083Y483221D01*
X101568Y482606D01*
X103175D01*
X104660Y483221D01*
X105796Y484357D01*
X106411Y485842D01*
Y487449D01*
X105796Y488934D01*
X104660Y490070D01*
X103175Y490686D01*
D02*
G37*
G36*
X544068Y482833D02*
X542461D01*
X540976Y482218D01*
X539840Y481081D01*
X539225Y479596D01*
Y477989D01*
X539840Y476505D01*
X540976Y475368D01*
X542461Y474753D01*
X544068D01*
X545553Y475368D01*
X546689Y476505D01*
X547304Y477989D01*
Y479596D01*
X546689Y481081D01*
X545553Y482218D01*
X544068Y482833D01*
D02*
G37*
G36*
X115566Y482661D02*
X113959D01*
X112474Y482046D01*
X111338Y480910D01*
X110723Y479425D01*
Y477818D01*
X111338Y476333D01*
X112474Y475196D01*
X113959Y474581D01*
X115566D01*
X117051Y475196D01*
X118188Y476333D01*
X118803Y477818D01*
Y479425D01*
X118188Y480910D01*
X117051Y482046D01*
X115566Y482661D01*
D02*
G37*
G36*
X297209Y479960D02*
X295602D01*
X294117Y479345D01*
X292981Y478209D01*
X292366Y476724D01*
Y475116D01*
X292981Y473632D01*
X294117Y472495D01*
X295602Y471880D01*
X297209D01*
X298694Y472495D01*
X299831Y473632D01*
X300446Y475116D01*
Y476724D01*
X299831Y478209D01*
X298694Y479345D01*
X297209Y479960D01*
D02*
G37*
G36*
X274671Y477858D02*
X273063D01*
X271579Y477243D01*
X270442Y476106D01*
X269827Y474621D01*
Y473014D01*
X270442Y471529D01*
X271579Y470393D01*
X273063Y469778D01*
X274671D01*
X276155Y470393D01*
X277292Y471529D01*
X277907Y473014D01*
Y474621D01*
X277292Y476106D01*
X276155Y477243D01*
X274671Y477858D01*
D02*
G37*
G36*
X103175Y476311D02*
X101568D01*
X100083Y475696D01*
X98946Y474560D01*
X98331Y473075D01*
Y471468D01*
X98946Y469983D01*
X100083Y468846D01*
X101568Y468231D01*
X103175D01*
X104660Y468846D01*
X105796Y469983D01*
X106411Y471468D01*
Y473075D01*
X105796Y474560D01*
X104660Y475696D01*
X103175Y476311D01*
D02*
G37*
G36*
X315282Y471891D02*
X313675D01*
X312190Y471276D01*
X311054Y470139D01*
X310439Y468654D01*
Y467047D01*
X311054Y465562D01*
X312190Y464426D01*
X313675Y463811D01*
X315282D01*
X316767Y464426D01*
X317904Y465562D01*
X318519Y467047D01*
Y468654D01*
X317904Y470139D01*
X316767Y471276D01*
X315282Y471891D01*
D02*
G37*
G36*
X532406Y488780D02*
X515426D01*
Y471800D01*
X515481D01*
X515734Y470530D01*
X514514Y470025D01*
X513378Y468888D01*
X512763Y467403D01*
Y465796D01*
X513378Y464311D01*
X514514Y463175D01*
X515999Y462560D01*
X517606D01*
X519084Y463172D01*
X519115Y463158D01*
X520157Y462445D01*
X519876Y461766D01*
Y460159D01*
X520491Y458674D01*
X521628Y457537D01*
X523112Y456922D01*
X524720D01*
X526204Y457537D01*
X527341Y458674D01*
X527956Y460159D01*
Y461149D01*
X528772Y461687D01*
X529652Y461090D01*
Y460216D01*
X530267Y458731D01*
X531404Y457595D01*
X532889Y456980D01*
X534496D01*
X535981Y457595D01*
X537117Y458731D01*
X537732Y460216D01*
Y461824D01*
X537117Y463308D01*
X535981Y464445D01*
X534496Y465060D01*
X533199D01*
X532478Y465705D01*
X532196Y466147D01*
Y467564D01*
X531581Y469049D01*
X530444Y470186D01*
X529613Y470530D01*
X529865Y471800D01*
X532406D01*
Y488780D01*
D02*
G37*
G36*
X544068Y473067D02*
X542461D01*
X540976Y472452D01*
X539840Y471315D01*
X539225Y469831D01*
Y468223D01*
X539840Y466739D01*
X540863Y465715D01*
X540924Y464995D01*
X540863Y464274D01*
X539840Y463251D01*
X539225Y461766D01*
Y460159D01*
X539840Y458674D01*
X540976Y457537D01*
X542461Y456922D01*
X544068D01*
X545553Y457537D01*
X546689Y458674D01*
X547304Y460159D01*
Y461766D01*
X546689Y463251D01*
X545666Y464274D01*
X545605Y464995D01*
X545666Y465715D01*
X546689Y466739D01*
X547304Y468223D01*
Y469831D01*
X546689Y471315D01*
X545553Y472452D01*
X544068Y473067D01*
D02*
G37*
G36*
X290018Y464108D02*
X288411D01*
X286926Y463493D01*
X285790Y462356D01*
X285175Y460872D01*
Y459264D01*
X285790Y457780D01*
X286926Y456643D01*
X288411Y456028D01*
X290018D01*
X291503Y456643D01*
X292640Y457780D01*
X293255Y459264D01*
Y460872D01*
X292640Y462356D01*
X291503Y463493D01*
X290018Y464108D01*
D02*
G37*
G36*
X647554Y460398D02*
X645947D01*
X644462Y459783D01*
X643325Y458646D01*
X642710Y457161D01*
Y455554D01*
X643325Y454069D01*
X644462Y452933D01*
X645947Y452318D01*
X647554D01*
X649039Y452933D01*
X650175Y454069D01*
X650790Y455554D01*
Y457161D01*
X650175Y458646D01*
X649039Y459783D01*
X647554Y460398D01*
D02*
G37*
G36*
X435829Y448443D02*
X434222D01*
X432737Y447828D01*
X432220Y447311D01*
X431390Y446817D01*
X430560Y447311D01*
X430043Y447828D01*
X428558Y448443D01*
X426951D01*
X425466Y447828D01*
X425033Y447394D01*
X424203Y446785D01*
X423373Y447394D01*
X422939Y447828D01*
X421455Y448443D01*
X419847D01*
X418363Y447828D01*
X417764Y447229D01*
X417089Y446757D01*
X416105Y447229D01*
X415651Y447682D01*
X414166Y448298D01*
X412559D01*
X411074Y447682D01*
X409938Y446546D01*
X409323Y445061D01*
Y443454D01*
X409938Y441969D01*
X411074Y440833D01*
X412559Y440218D01*
X414166D01*
X415651Y440833D01*
X416250Y441431D01*
X416925Y441903D01*
X417909Y441431D01*
X418363Y440978D01*
X419847Y440363D01*
X421455D01*
X422939Y440978D01*
X423373Y441412D01*
X424203Y442021D01*
X425033Y441412D01*
X425466Y440978D01*
X426951Y440363D01*
X428558D01*
X430043Y440978D01*
X430560Y441495D01*
X431390Y441989D01*
X432220Y441495D01*
X432737Y440978D01*
X434222Y440363D01*
X435829D01*
X437314Y440978D01*
X438451Y442114D01*
X439066Y443599D01*
Y445206D01*
X438451Y446691D01*
X437314Y447828D01*
X435829Y448443D01*
D02*
G37*
G36*
X501637Y454108D02*
X500030D01*
X498545Y453493D01*
X497409Y452356D01*
X496794Y450872D01*
Y449264D01*
X497409Y447780D01*
X498545Y446643D01*
X500030Y446028D01*
X501637D01*
X503122Y446643D01*
X504259Y447780D01*
X504874Y449264D01*
Y450872D01*
X504259Y452356D01*
X503122Y453493D01*
X501637Y454108D01*
D02*
G37*
G36*
X154319Y450853D02*
X152711D01*
X151227Y450238D01*
X150090Y449102D01*
X149475Y447617D01*
Y446010D01*
X150090Y444525D01*
X151227Y443388D01*
X152711Y442773D01*
X154319D01*
X155803Y443388D01*
X156940Y444525D01*
X157555Y446010D01*
Y447617D01*
X156940Y449102D01*
X155803Y450238D01*
X154319Y450853D01*
D02*
G37*
G36*
X222686Y444790D02*
X221079D01*
X219594Y444175D01*
X218457Y443039D01*
X217842Y441554D01*
Y439947D01*
X218457Y438462D01*
X219594Y437325D01*
X221079Y436710D01*
X222686D01*
X224171Y437325D01*
X225307Y438462D01*
X225922Y439947D01*
Y441554D01*
X225307Y443039D01*
X224171Y444175D01*
X222686Y444790D01*
D02*
G37*
G36*
X358009Y445843D02*
X356402D01*
X354917Y445228D01*
X353781Y444091D01*
X353166Y442607D01*
Y440999D01*
X353781Y439514D01*
X354917Y438378D01*
X355328Y438208D01*
Y436833D01*
X354917Y436663D01*
X353781Y435526D01*
X353166Y434041D01*
Y432434D01*
X353781Y430949D01*
X354917Y429813D01*
X356402Y429198D01*
X358009D01*
X359494Y429813D01*
X360631Y430949D01*
X361246Y432434D01*
Y434041D01*
X360631Y435526D01*
X359494Y436663D01*
X359083Y436833D01*
Y438208D01*
X359494Y438378D01*
X360631Y439514D01*
X361246Y440999D01*
Y442607D01*
X360631Y444091D01*
X359494Y445228D01*
X358009Y445843D01*
D02*
G37*
G36*
X574730Y436805D02*
X573122D01*
X571638Y436190D01*
X570501Y435053D01*
X569886Y433568D01*
Y431961D01*
X570501Y430476D01*
X571638Y429340D01*
X573122Y428725D01*
X574730D01*
X576214Y429340D01*
X577351Y430476D01*
X577966Y431961D01*
Y433568D01*
X577351Y435053D01*
X576214Y436190D01*
X574730Y436805D01*
D02*
G37*
G36*
X458352Y445642D02*
X456745D01*
X455260Y445027D01*
X454123Y443891D01*
X453508Y442406D01*
Y440799D01*
X454123Y439314D01*
X455260Y438177D01*
X455724Y437985D01*
X455735Y437926D01*
X455598Y436663D01*
X454456Y436190D01*
X453320Y435053D01*
X452705Y433568D01*
Y431961D01*
X453320Y430476D01*
X454456Y429340D01*
X455941Y428725D01*
X457548D01*
X459033Y429340D01*
X460170Y430476D01*
X460785Y431961D01*
Y433568D01*
X460170Y435053D01*
X459033Y436190D01*
X458569Y436382D01*
X458558Y436442D01*
X458695Y437705D01*
X459837Y438177D01*
X460973Y439314D01*
X461589Y440799D01*
Y442406D01*
X460973Y443891D01*
X459837Y445027D01*
X458352Y445642D01*
D02*
G37*
G36*
X294487Y435289D02*
X292880D01*
X291395Y434673D01*
X290259Y433537D01*
X289643Y432052D01*
Y430445D01*
X290259Y428960D01*
X291395Y427823D01*
X292880Y427209D01*
X294487D01*
X295972Y427823D01*
X297108Y428960D01*
X297723Y430445D01*
Y432052D01*
X297108Y433537D01*
X295972Y434673D01*
X294487Y435289D01*
D02*
G37*
G36*
X123694Y435039D02*
X122086D01*
X120602Y434424D01*
X119465Y433288D01*
X118850Y431803D01*
Y430196D01*
X119465Y428711D01*
X120602Y427574D01*
X122086Y426959D01*
X123694D01*
X125178Y427574D01*
X126315Y428711D01*
X126930Y430196D01*
Y431803D01*
X126315Y433288D01*
X125178Y434424D01*
X123694Y435039D01*
D02*
G37*
G36*
X565684Y427535D02*
X564077D01*
X562592Y426920D01*
X561456Y425784D01*
X560841Y424299D01*
Y422692D01*
X561456Y421207D01*
X562592Y420070D01*
X564077Y419455D01*
X565684D01*
X567169Y420070D01*
X568306Y421207D01*
X568921Y422692D01*
Y424299D01*
X568306Y425784D01*
X567169Y426920D01*
X565684Y427535D01*
D02*
G37*
G36*
X661108Y458724D02*
X659501D01*
X658016Y458109D01*
X656880Y456972D01*
X656265Y455488D01*
Y453880D01*
X656880Y452396D01*
X658016Y451259D01*
X659207Y450766D01*
X659276Y449488D01*
X659272Y449469D01*
X658086Y448977D01*
X656949Y447841D01*
X656334Y446356D01*
Y444749D01*
X656949Y443264D01*
X658086Y442127D01*
X659571Y441512D01*
X659630Y440304D01*
X658145Y439689D01*
X657008Y438552D01*
X656393Y437067D01*
Y435460D01*
X657008Y433975D01*
X658145Y432839D01*
X659630Y432224D01*
Y431015D01*
X658145Y430400D01*
X657008Y429264D01*
X656393Y427779D01*
Y426171D01*
X657008Y424687D01*
X658145Y423550D01*
X658046Y422216D01*
X657953Y422178D01*
X656817Y421042D01*
X656202Y419557D01*
Y417949D01*
X656817Y416465D01*
X657953Y415328D01*
X659438Y414713D01*
X661045D01*
X662530Y415328D01*
X663667Y416465D01*
X664282Y417949D01*
Y419557D01*
X663667Y421042D01*
X662530Y422178D01*
X662629Y423512D01*
X662722Y423550D01*
X663858Y424687D01*
X664473Y426171D01*
Y427779D01*
X663858Y429264D01*
X662722Y430400D01*
X661237Y431015D01*
Y432224D01*
X662722Y432839D01*
X663858Y433975D01*
X664473Y435460D01*
Y437067D01*
X663858Y438552D01*
X662722Y439689D01*
X661237Y440304D01*
X661178Y441512D01*
X662663Y442127D01*
X663799Y443264D01*
X664414Y444749D01*
Y446356D01*
X663799Y447841D01*
X662663Y448977D01*
X661471Y449471D01*
X661403Y450748D01*
X661407Y450768D01*
X662593Y451259D01*
X663730Y452396D01*
X664345Y453880D01*
Y455488D01*
X663730Y456972D01*
X662593Y458109D01*
X661108Y458724D01*
D02*
G37*
G36*
X150834Y409278D02*
X149226D01*
X147741Y408663D01*
X146605Y407527D01*
X145990Y406042D01*
Y404435D01*
X146605Y402950D01*
X147741Y401813D01*
X149226Y401198D01*
X150834D01*
X152318Y401813D01*
X153455Y402950D01*
X154070Y404435D01*
Y406042D01*
X153455Y407527D01*
X152318Y408663D01*
X150834Y409278D01*
D02*
G37*
G36*
X175122Y408918D02*
X173514D01*
X172030Y408303D01*
X170893Y407166D01*
X170278Y405682D01*
Y404074D01*
X170893Y402589D01*
X172030Y401453D01*
X173514Y400838D01*
X175122D01*
X176607Y401453D01*
X177743Y402589D01*
X178358Y404074D01*
Y405682D01*
X177743Y407166D01*
X176607Y408303D01*
X175122Y408918D01*
D02*
G37*
G36*
X485559Y407616D02*
X483951D01*
X482467Y407001D01*
X481330Y405864D01*
X480715Y404379D01*
Y402772D01*
X481330Y401287D01*
X482467Y400151D01*
X483951Y399535D01*
X485559D01*
X487043Y400151D01*
X488180Y401287D01*
X488795Y402772D01*
Y404379D01*
X488180Y405864D01*
X487043Y407001D01*
X485559Y407616D01*
D02*
G37*
G36*
X280680Y406922D02*
X279073D01*
X277588Y406307D01*
X276452Y405171D01*
X275837Y403686D01*
Y402079D01*
X276452Y400594D01*
X277588Y399457D01*
X279073Y398842D01*
X280680D01*
X282165Y399457D01*
X283302Y400594D01*
X283917Y402079D01*
Y403686D01*
X283302Y405171D01*
X282165Y406307D01*
X280680Y406922D01*
D02*
G37*
G36*
X457548Y402000D02*
X455941D01*
X454456Y401385D01*
X453320Y400248D01*
X452705Y398763D01*
Y397156D01*
X453320Y395671D01*
X454456Y394535D01*
X455941Y393920D01*
X457548D01*
X459033Y394535D01*
X460170Y395671D01*
X460785Y397156D01*
Y398763D01*
X460170Y400248D01*
X459033Y401385D01*
X457548Y402000D01*
D02*
G37*
G36*
X271748Y401540D02*
X270141D01*
X268656Y400925D01*
X267520Y399789D01*
X266905Y398304D01*
Y396697D01*
X267520Y395212D01*
X268656Y394075D01*
X270141Y393460D01*
X271748D01*
X273233Y394075D01*
X274369Y395212D01*
X274984Y396697D01*
Y398304D01*
X274369Y399789D01*
X273233Y400925D01*
X271748Y401540D01*
D02*
G37*
G36*
X240425Y397673D02*
X238818D01*
X237333Y397058D01*
X236196Y395921D01*
X235581Y394436D01*
Y392829D01*
X236196Y391344D01*
X237333Y390208D01*
X238818Y389593D01*
X240425D01*
X241910Y390208D01*
X243046Y391344D01*
X243661Y392829D01*
Y394436D01*
X243046Y395921D01*
X241910Y397058D01*
X240425Y397673D01*
D02*
G37*
G36*
X443559Y393797D02*
X441951D01*
X440466Y393182D01*
X439330Y392046D01*
X438715Y390561D01*
Y388954D01*
X439330Y387469D01*
X440466Y386333D01*
X441951Y385718D01*
X443559D01*
X445043Y386333D01*
X446180Y387469D01*
X446795Y388954D01*
Y390561D01*
X446180Y392046D01*
X445043Y393182D01*
X443559Y393797D01*
D02*
G37*
G36*
X178249Y392091D02*
X176641D01*
X175156Y391475D01*
X174020Y390339D01*
X173405Y388854D01*
Y387247D01*
X174020Y385762D01*
X175156Y384626D01*
X176641Y384011D01*
X178249D01*
X179733Y384626D01*
X180870Y385762D01*
X181485Y387247D01*
Y388854D01*
X180870Y390339D01*
X179733Y391475D01*
X178249Y392091D01*
D02*
G37*
G36*
X215518Y388842D02*
X213911D01*
X212426Y388227D01*
X211290Y387090D01*
X210675Y385605D01*
Y383998D01*
X211290Y382513D01*
X212426Y381377D01*
X213911Y380762D01*
X215518D01*
X217003Y381377D01*
X218140Y382513D01*
X218755Y383998D01*
Y385605D01*
X218140Y387090D01*
X217003Y388227D01*
X215518Y388842D01*
D02*
G37*
G36*
X576734Y378756D02*
X575127D01*
X573642Y378141D01*
X572506Y377005D01*
X571891Y375520D01*
Y373913D01*
X572506Y372428D01*
X573642Y371291D01*
X575127Y370676D01*
X576734D01*
X578219Y371291D01*
X579356Y372428D01*
X579971Y373913D01*
Y375520D01*
X579356Y377005D01*
X578219Y378141D01*
X576734Y378756D01*
D02*
G37*
G36*
X527633Y369357D02*
X526026D01*
X524541Y368742D01*
X523404Y367606D01*
X522789Y366121D01*
Y364514D01*
X523404Y363029D01*
X524541Y361892D01*
X526026Y361277D01*
X527633D01*
X529118Y361892D01*
X530254Y363029D01*
X530869Y364514D01*
Y366121D01*
X530254Y367606D01*
X529118Y368742D01*
X527633Y369357D01*
D02*
G37*
G36*
X443559Y368961D02*
X441951D01*
X440466Y368346D01*
X439330Y367209D01*
X438715Y365724D01*
Y364117D01*
X439330Y362632D01*
X440466Y361496D01*
X441951Y360881D01*
X443559D01*
X445043Y361496D01*
X446180Y362632D01*
X446795Y364117D01*
Y365724D01*
X446180Y367209D01*
X445043Y368346D01*
X443559Y368961D01*
D02*
G37*
G36*
X201690Y364613D02*
X200083D01*
X198598Y363998D01*
X197461Y362861D01*
X196846Y361376D01*
Y359769D01*
X197461Y358284D01*
X198598Y357148D01*
X200083Y356533D01*
X201690D01*
X203175Y357148D01*
X204311Y358284D01*
X204926Y359769D01*
Y361376D01*
X204311Y362861D01*
X203175Y363998D01*
X201690Y364613D01*
D02*
G37*
G36*
X338621Y358363D02*
X337014D01*
X335529Y357748D01*
X334392Y356611D01*
X333777Y355127D01*
Y353519D01*
X334392Y352034D01*
X335529Y350898D01*
X337014Y350283D01*
X338621D01*
X340106Y350898D01*
X341242Y352034D01*
X341857Y353519D01*
Y355127D01*
X341242Y356611D01*
X340106Y357748D01*
X338621Y358363D01*
D02*
G37*
G36*
X443054Y354221D02*
X441446D01*
X439962Y353606D01*
X438825Y352470D01*
X438210Y350985D01*
Y349378D01*
X438825Y347893D01*
X439962Y346756D01*
X441446Y346141D01*
X443054D01*
X444538Y346756D01*
X445675Y347893D01*
X446290Y349378D01*
Y350985D01*
X445675Y352470D01*
X444538Y353606D01*
X443054Y354221D01*
D02*
G37*
G36*
X611019Y345440D02*
X609412D01*
X607927Y344825D01*
X607366Y344264D01*
X606536Y343823D01*
X605707Y344264D01*
X605146Y344825D01*
X603661Y345440D01*
X602054D01*
X600569Y344825D01*
X599432Y343688D01*
X598817Y342203D01*
Y340596D01*
X599432Y339111D01*
X600569Y337975D01*
X602054Y337360D01*
X603661D01*
X605146Y337975D01*
X605707Y338535D01*
X606536Y338976D01*
X607366Y338535D01*
X607927Y337975D01*
X609412Y337360D01*
X611019D01*
X612504Y337975D01*
X613640Y339111D01*
X614255Y340596D01*
Y342203D01*
X613640Y343688D01*
X612504Y344825D01*
X611019Y345440D01*
D02*
G37*
G36*
X645777Y346902D02*
X644169D01*
X642684Y346287D01*
X641548Y345150D01*
X640933Y343665D01*
Y342058D01*
X641548Y340573D01*
X642684Y339437D01*
X644169Y338821D01*
X645777D01*
X646862Y339271D01*
X647869Y338385D01*
X647424Y337311D01*
Y335704D01*
X647566Y335363D01*
X646585Y334412D01*
X645565Y334834D01*
X643958D01*
X642474Y334219D01*
X641337Y333082D01*
X640722Y331598D01*
Y329990D01*
X641337Y328506D01*
X642474Y327369D01*
X643958Y326754D01*
X645565D01*
X647050Y327369D01*
X648187Y328506D01*
X648802Y329990D01*
Y331598D01*
X648661Y331939D01*
X649641Y332890D01*
X650661Y332467D01*
X652268D01*
X652375Y332512D01*
X653371Y331598D01*
Y329990D01*
X653986Y328506D01*
X655122Y327369D01*
X656607Y326754D01*
X658214D01*
X659699Y327369D01*
X660836Y328506D01*
X661451Y329990D01*
Y331598D01*
X660836Y333082D01*
X659699Y334219D01*
X658214Y334834D01*
X656607D01*
X656500Y334790D01*
X655505Y335704D01*
Y337311D01*
X655346Y337695D01*
X656318Y338667D01*
X656607Y338547D01*
X658214D01*
X659699Y339162D01*
X660836Y340298D01*
X661451Y341783D01*
Y343390D01*
X660836Y344875D01*
X659699Y346012D01*
X658214Y346627D01*
X656607D01*
X655122Y346012D01*
X653986Y344875D01*
X653371Y343390D01*
Y341783D01*
X653530Y341400D01*
X652558Y340428D01*
X652268Y340547D01*
X650661D01*
X649576Y340098D01*
X648568Y340984D01*
X649013Y342058D01*
Y343665D01*
X648398Y345150D01*
X647261Y346287D01*
X645777Y346902D01*
D02*
G37*
G36*
X339184Y342001D02*
X337577D01*
X336092Y341386D01*
X334956Y340249D01*
X334341Y338764D01*
Y337157D01*
X334956Y335672D01*
X336092Y334536D01*
X337577Y333921D01*
X339184D01*
X340669Y334536D01*
X341806Y335672D01*
X342421Y337157D01*
Y338764D01*
X341806Y340249D01*
X340669Y341386D01*
X339184Y342001D01*
D02*
G37*
G36*
X311303D02*
X309696D01*
X308211Y341386D01*
X307075Y340249D01*
X306460Y338764D01*
Y337157D01*
X307075Y335672D01*
X308211Y334536D01*
X309696Y333921D01*
X311303D01*
X312788Y334536D01*
X313925Y335672D01*
X314540Y337157D01*
Y338764D01*
X313925Y340249D01*
X312788Y341386D01*
X311303Y342001D01*
D02*
G37*
G36*
X610933Y334834D02*
X609325D01*
X607841Y334219D01*
X607131Y333509D01*
X606579Y333124D01*
X605496Y333484D01*
X605017Y333964D01*
X603532Y334579D01*
X601925D01*
X600440Y333964D01*
X599303Y332827D01*
X598688Y331342D01*
Y329735D01*
X599303Y328250D01*
X600440Y327114D01*
X601925Y326499D01*
X603532D01*
X605017Y327114D01*
X605727Y327824D01*
X606278Y328209D01*
X607361Y327848D01*
X607841Y327369D01*
X609325Y326754D01*
X610933D01*
X612417Y327369D01*
X613554Y328506D01*
X614169Y329990D01*
Y331598D01*
X613554Y333082D01*
X612417Y334219D01*
X610933Y334834D01*
D02*
G37*
G36*
X419390Y349225D02*
X417782D01*
X416297Y348610D01*
X415161Y347473D01*
X414546Y345989D01*
Y344381D01*
X415161Y342896D01*
X416297Y341760D01*
X417492Y341265D01*
Y339972D01*
X416297Y339477D01*
X415161Y338340D01*
X414546Y336856D01*
Y335248D01*
X415161Y333764D01*
X416297Y332627D01*
X417782Y332012D01*
X419390D01*
X420874Y332627D01*
X422011Y333764D01*
X422626Y335248D01*
Y336856D01*
X422011Y338340D01*
X420874Y339477D01*
X419680Y339972D01*
Y341265D01*
X420874Y341760D01*
X422011Y342896D01*
X422626Y344381D01*
Y345989D01*
X422011Y347473D01*
X420874Y348610D01*
X419390Y349225D01*
D02*
G37*
G36*
Y330442D02*
X417782D01*
X416297Y329827D01*
X415161Y328690D01*
X414546Y327206D01*
Y325598D01*
X415161Y324113D01*
X416297Y322977D01*
X417782Y322362D01*
X419390D01*
X420874Y322977D01*
X422011Y324113D01*
X422626Y325598D01*
Y327206D01*
X422011Y328690D01*
X420874Y329827D01*
X419390Y330442D01*
D02*
G37*
G36*
X407266D02*
X405658D01*
X404174Y329827D01*
X403037Y328690D01*
X402422Y327206D01*
Y325598D01*
X403037Y324113D01*
X404174Y322977D01*
X405658Y322362D01*
X407266D01*
X408751Y322977D01*
X409887Y324113D01*
X410502Y325598D01*
Y327206D01*
X409887Y328690D01*
X408751Y329827D01*
X407266Y330442D01*
D02*
G37*
G36*
X608978Y323290D02*
X607371D01*
X605886Y322675D01*
X605130Y321918D01*
X604331Y321669D01*
X603532Y321918D01*
X602776Y322675D01*
X601291Y323290D01*
X599684D01*
X598199Y322675D01*
X597062Y321539D01*
X596447Y320054D01*
Y318446D01*
X597062Y316961D01*
X598199Y315825D01*
X599684Y315210D01*
X601291D01*
X602776Y315825D01*
X603532Y316581D01*
X604331Y316831D01*
X605130Y316581D01*
X605886Y315825D01*
X607371Y315210D01*
X608978D01*
X610463Y315825D01*
X611599Y316961D01*
X612214Y318446D01*
Y320054D01*
X611599Y321539D01*
X610463Y322675D01*
X608978Y323290D01*
D02*
G37*
G36*
X591147D02*
X589540D01*
X588055Y322675D01*
X586919Y321539D01*
X586304Y320054D01*
Y318446D01*
X586919Y316961D01*
X588055Y315825D01*
X589540Y315210D01*
X591147D01*
X592632Y315825D01*
X593769Y316961D01*
X594384Y318446D01*
Y320054D01*
X593769Y321539D01*
X592632Y322675D01*
X591147Y323290D01*
D02*
G37*
G36*
X471304D02*
X469696D01*
X468212Y322675D01*
X467075Y321539D01*
X466460Y320054D01*
Y318446D01*
X467075Y316961D01*
X468212Y315825D01*
X469696Y315210D01*
X471304D01*
X472789Y315825D01*
X473925Y316961D01*
X474540Y318446D01*
Y320054D01*
X473925Y321539D01*
X472789Y322675D01*
X471304Y323290D01*
D02*
G37*
G36*
X417502Y317139D02*
X415782D01*
X414122Y316694D01*
X412633Y315835D01*
X411417Y314619D01*
X411025Y313940D01*
X409559D01*
X409167Y314619D01*
X407951Y315835D01*
X406462Y316694D01*
X404802Y317139D01*
X403082D01*
X401422Y316694D01*
X399933Y315835D01*
X398717Y314619D01*
X397858Y313130D01*
X397413Y311470D01*
Y309751D01*
X397858Y308090D01*
X398717Y306601D01*
X399933Y305385D01*
X400080Y305301D01*
Y303834D01*
X399606Y303561D01*
X398292Y302246D01*
X397362Y300636D01*
X396972Y299180D01*
X403942D01*
Y296640D01*
X396972D01*
X397362Y295185D01*
X398292Y293575D01*
X399564Y292302D01*
X399718Y292120D01*
Y291000D01*
X399564Y290818D01*
X398292Y289546D01*
X397362Y287936D01*
X396972Y286480D01*
X403942D01*
Y283940D01*
X396972D01*
X397362Y282485D01*
X398292Y280875D01*
X399606Y279560D01*
X400080Y279286D01*
Y277820D01*
X399933Y277735D01*
X398717Y276519D01*
X397858Y275030D01*
X397413Y273370D01*
Y271651D01*
X397858Y269990D01*
X398717Y268501D01*
X399933Y267285D01*
X400080Y267201D01*
Y265734D01*
X399606Y265461D01*
X398292Y264146D01*
X397362Y262536D01*
X396972Y261080D01*
X403942D01*
Y259810D01*
X405212D01*
Y252840D01*
X406668Y253230D01*
X408278Y254160D01*
X409592Y255474D01*
X409866Y255948D01*
X411332D01*
X411417Y255801D01*
X412633Y254585D01*
X414122Y253726D01*
X415782Y253281D01*
X417502D01*
X419162Y253726D01*
X420651Y254585D01*
X421867Y255801D01*
X422726Y257290D01*
X423171Y258951D01*
Y260670D01*
X422726Y262330D01*
X421867Y263819D01*
X420651Y265035D01*
X419972Y265427D01*
Y266893D01*
X420651Y267285D01*
X421867Y268501D01*
X422726Y269990D01*
X423171Y271651D01*
Y273370D01*
X422726Y275030D01*
X421867Y276519D01*
X420651Y277735D01*
X419972Y278127D01*
Y279593D01*
X420651Y279986D01*
X421867Y281201D01*
X422726Y282690D01*
X423171Y284351D01*
Y286070D01*
X422726Y287730D01*
X421867Y289219D01*
X420651Y290435D01*
X419972Y290827D01*
Y292293D01*
X420651Y292686D01*
X421867Y293901D01*
X422726Y295390D01*
X423171Y297051D01*
Y298770D01*
X422726Y300430D01*
X421867Y301919D01*
X420651Y303135D01*
X419972Y303527D01*
Y304993D01*
X420651Y305385D01*
X421867Y306601D01*
X422726Y308090D01*
X423171Y309751D01*
Y311470D01*
X422726Y313130D01*
X421867Y314619D01*
X420651Y315835D01*
X419162Y316694D01*
X417502Y317139D01*
D02*
G37*
G36*
X384209Y318000D02*
X382602D01*
X381117Y317385D01*
X379980Y316248D01*
X379365Y314764D01*
Y313156D01*
X379980Y311672D01*
X381117Y310535D01*
X382602Y309920D01*
X384209D01*
X385694Y310535D01*
X386830Y311672D01*
X387445Y313156D01*
Y314764D01*
X386830Y316248D01*
X385694Y317385D01*
X384209Y318000D01*
D02*
G37*
G36*
X340769Y326653D02*
X339162D01*
X337677Y326038D01*
X336540Y324902D01*
X335925Y323417D01*
Y321810D01*
X336540Y320325D01*
X337595Y319270D01*
X337587Y318668D01*
X337402Y317927D01*
X336092Y317385D01*
X334956Y316248D01*
X334341Y314764D01*
Y313156D01*
X334956Y311672D01*
X336092Y310535D01*
X337577Y309920D01*
X339184D01*
X340669Y310535D01*
X341806Y311672D01*
X342421Y313156D01*
Y314764D01*
X341806Y316248D01*
X340751Y317303D01*
X340760Y317906D01*
X340944Y318646D01*
X342254Y319188D01*
X343390Y320325D01*
X344005Y321810D01*
Y323417D01*
X343390Y324902D01*
X342254Y326038D01*
X340769Y326653D01*
D02*
G37*
G36*
X608978Y310303D02*
X607371D01*
X605886Y309688D01*
X605130Y308932D01*
X604331Y308683D01*
X603532Y308932D01*
X602776Y309688D01*
X601291Y310303D01*
X599684D01*
X598199Y309688D01*
X597062Y308552D01*
X596447Y307067D01*
Y305460D01*
X597062Y303975D01*
X598199Y302838D01*
X599684Y302223D01*
X601291D01*
X602776Y302838D01*
X603532Y303595D01*
X604331Y303844D01*
X605130Y303595D01*
X605886Y302838D01*
X607371Y302223D01*
X608978D01*
X610463Y302838D01*
X611599Y303975D01*
X612214Y305460D01*
Y307067D01*
X611599Y308552D01*
X610463Y309688D01*
X608978Y310303D01*
D02*
G37*
G36*
X591147D02*
X589540D01*
X588055Y309688D01*
X586919Y308552D01*
X586304Y307067D01*
Y305460D01*
X586919Y303975D01*
X588055Y302838D01*
X589540Y302223D01*
X591147D01*
X592632Y302838D01*
X593769Y303975D01*
X594384Y305460D01*
Y307067D01*
X593769Y308552D01*
X592632Y309688D01*
X591147Y310303D01*
D02*
G37*
G36*
X307230Y299000D02*
X305623D01*
X304138Y298385D01*
X303002Y297249D01*
X302387Y295764D01*
Y294157D01*
X303002Y292672D01*
X304138Y291535D01*
X305623Y290920D01*
X307230D01*
X308715Y291535D01*
X309852Y292672D01*
X310467Y294157D01*
Y295764D01*
X309852Y297249D01*
X308715Y298385D01*
X307230Y299000D01*
D02*
G37*
G36*
X265237D02*
X263630D01*
X262145Y298385D01*
X261008Y297249D01*
X260394Y295764D01*
Y294157D01*
X261008Y292672D01*
X262145Y291535D01*
X263630Y290920D01*
X265237D01*
X266722Y291535D01*
X267858Y292672D01*
X268473Y294157D01*
Y295764D01*
X267858Y297249D01*
X266722Y298385D01*
X265237Y299000D01*
D02*
G37*
G36*
X601283Y281334D02*
X599692D01*
X598222Y280725D01*
X597096Y279599D01*
X596487Y278129D01*
Y276538D01*
X597096Y275068D01*
X598222Y273943D01*
X599692Y273334D01*
X601283D01*
X602753Y273943D01*
X603878Y275068D01*
X604487Y276538D01*
Y278129D01*
X603878Y279599D01*
X602753Y280725D01*
X601283Y281334D01*
D02*
G37*
G36*
X345041Y279749D02*
X343434D01*
X341949Y279134D01*
X340812Y277998D01*
X340197Y276513D01*
Y274906D01*
X340812Y273421D01*
X341949Y272285D01*
X343434Y271669D01*
X345041D01*
X346526Y272285D01*
X347662Y273421D01*
X348277Y274906D01*
Y276513D01*
X347662Y277998D01*
X346526Y279134D01*
X345041Y279749D01*
D02*
G37*
G36*
X184074Y278012D02*
X182466D01*
X180981Y277397D01*
X179845Y276261D01*
X179230Y274776D01*
Y273169D01*
X179845Y271684D01*
X180981Y270547D01*
X182466Y269932D01*
X184074D01*
X185558Y270547D01*
X186695Y271684D01*
X187310Y273169D01*
Y274776D01*
X186695Y276261D01*
X185558Y277397D01*
X184074Y278012D01*
D02*
G37*
G36*
X317635Y274186D02*
X316028D01*
X314543Y273571D01*
X313407Y272435D01*
X312792Y270950D01*
Y269342D01*
X313407Y267858D01*
X314543Y266721D01*
X316028Y266106D01*
X317635D01*
X319120Y266721D01*
X320257Y267858D01*
X320872Y269342D01*
Y270950D01*
X320257Y272435D01*
X319120Y273571D01*
X317635Y274186D01*
D02*
G37*
G36*
X140804Y266898D02*
X139197D01*
X137712Y266283D01*
X136575Y265147D01*
X135960Y263662D01*
Y262055D01*
X136575Y260570D01*
X137712Y259433D01*
X139197Y258818D01*
X140804D01*
X142289Y259433D01*
X143425Y260570D01*
X144040Y262055D01*
Y263662D01*
X143425Y265147D01*
X142289Y266283D01*
X140804Y266898D01*
D02*
G37*
G36*
X225363Y264203D02*
X223755D01*
X222271Y263588D01*
X221134Y262451D01*
X220519Y260966D01*
Y259359D01*
X221134Y257874D01*
X222271Y256738D01*
X223755Y256123D01*
X225363D01*
X226847Y256738D01*
X227984Y257874D01*
X228599Y259359D01*
Y260966D01*
X227984Y262451D01*
X226847Y263588D01*
X225363Y264203D01*
D02*
G37*
G36*
X402672Y258540D02*
X396972D01*
X397362Y257085D01*
X398292Y255474D01*
X399606Y254160D01*
X401217Y253230D01*
X402672Y252840D01*
Y258540D01*
D02*
G37*
G36*
X387709Y253537D02*
X386101D01*
X384617Y252922D01*
X383480Y251785D01*
X382865Y250300D01*
Y248693D01*
X383480Y247208D01*
X384617Y246072D01*
X386101Y245457D01*
X387709D01*
X389193Y246072D01*
X390330Y247208D01*
X390945Y248693D01*
Y250300D01*
X390330Y251785D01*
X389193Y252922D01*
X387709Y253537D01*
D02*
G37*
G36*
X189253Y253507D02*
X187646D01*
X186161Y252892D01*
X185024Y251756D01*
X184409Y250271D01*
Y248664D01*
X185024Y247179D01*
X186161Y246042D01*
X187646Y245427D01*
X189253D01*
X190738Y246042D01*
X191874Y247179D01*
X192489Y248664D01*
Y250271D01*
X191874Y251756D01*
X190738Y252892D01*
X189253Y253507D01*
D02*
G37*
G36*
X198779Y249711D02*
X197171D01*
X195687Y249096D01*
X194550Y247960D01*
X193935Y246475D01*
Y244867D01*
X194550Y243383D01*
X195687Y242246D01*
X197171Y241631D01*
X198779D01*
X200264Y242246D01*
X201400Y243383D01*
X202015Y244867D01*
Y246475D01*
X201400Y247960D01*
X200264Y249096D01*
X198779Y249711D01*
D02*
G37*
G36*
X266402Y245544D02*
X264795D01*
X263310Y244929D01*
X262174Y243793D01*
X261559Y242308D01*
Y240701D01*
X262174Y239216D01*
X263310Y238079D01*
X264795Y237464D01*
X266402D01*
X267887Y238079D01*
X269024Y239216D01*
X269639Y240701D01*
Y242308D01*
X269024Y243793D01*
X267887Y244929D01*
X266402Y245544D01*
D02*
G37*
G36*
X235693Y251024D02*
X234086D01*
X232601Y250409D01*
X231465Y249272D01*
X230850Y247787D01*
Y246180D01*
X231465Y244695D01*
X232601Y243559D01*
X234086Y242944D01*
X234103Y242919D01*
X233850Y242308D01*
Y240701D01*
X234465Y239216D01*
X235602Y238079D01*
X237086Y237464D01*
X238694D01*
X240178Y238079D01*
X241315Y239216D01*
X241930Y240701D01*
Y242308D01*
X241315Y243793D01*
X240178Y244929D01*
X238694Y245544D01*
X238677Y245569D01*
X238930Y246180D01*
Y247787D01*
X238315Y249272D01*
X237178Y250409D01*
X235693Y251024D01*
D02*
G37*
G36*
X428667Y241936D02*
X427059D01*
X425575Y241321D01*
X424438Y240185D01*
X423823Y238700D01*
Y237093D01*
X424438Y235608D01*
X425575Y234471D01*
X427059Y233857D01*
X428667D01*
X430151Y234471D01*
X431288Y235608D01*
X431903Y237093D01*
Y238700D01*
X431288Y240185D01*
X430151Y241321D01*
X428667Y241936D01*
D02*
G37*
G36*
X325288Y238499D02*
X323680D01*
X322195Y237884D01*
X321059Y236748D01*
X320444Y235263D01*
Y233655D01*
X321059Y232171D01*
X322195Y231034D01*
X323680Y230419D01*
X325288D01*
X326772Y231034D01*
X327909Y232171D01*
X328524Y233655D01*
Y235263D01*
X327909Y236748D01*
X326772Y237884D01*
X325288Y238499D01*
D02*
G37*
G36*
X226248Y229260D02*
X224641D01*
X223156Y228645D01*
X222020Y227509D01*
X221405Y226024D01*
Y224416D01*
X222020Y222932D01*
X223156Y221795D01*
X224641Y221180D01*
X226248D01*
X227733Y221795D01*
X228870Y222932D01*
X229485Y224416D01*
Y226024D01*
X228870Y227509D01*
X227733Y228645D01*
X226248Y229260D01*
D02*
G37*
G36*
X252694Y202695D02*
X251086D01*
X249602Y202080D01*
X248465Y200944D01*
X247850Y199459D01*
Y197852D01*
X248465Y196367D01*
X249602Y195230D01*
X251086Y194615D01*
X252694D01*
X254179Y195230D01*
X255315Y196367D01*
X255930Y197852D01*
Y199459D01*
X255315Y200944D01*
X254179Y202080D01*
X252694Y202695D01*
D02*
G37*
G36*
X269072Y198855D02*
X267465D01*
X265980Y198240D01*
X264843Y197104D01*
X264228Y195619D01*
Y194012D01*
X264843Y192527D01*
X265980Y191390D01*
X267465Y190776D01*
X269072D01*
X270557Y191390D01*
X271693Y192527D01*
X272308Y194012D01*
Y195619D01*
X271693Y197104D01*
X270557Y198240D01*
X269072Y198855D01*
D02*
G37*
G36*
X344920Y198557D02*
X343313D01*
X341828Y197942D01*
X340692Y196805D01*
X340077Y195320D01*
Y193713D01*
X340692Y192228D01*
X341828Y191092D01*
X343313Y190477D01*
X344920D01*
X346405Y191092D01*
X347542Y192228D01*
X348157Y193713D01*
Y195320D01*
X347542Y196805D01*
X346405Y197942D01*
X344920Y198557D01*
D02*
G37*
G36*
X135749Y193757D02*
X134142D01*
X132657Y193142D01*
X131520Y192006D01*
X130905Y190521D01*
Y188913D01*
X131520Y187428D01*
X132657Y186292D01*
X134142Y185677D01*
X135749D01*
X137234Y186292D01*
X138370Y187428D01*
X138985Y188913D01*
Y190521D01*
X138370Y192006D01*
X137234Y193142D01*
X135749Y193757D01*
D02*
G37*
G36*
X293934Y192961D02*
X292326D01*
X290842Y192346D01*
X289705Y191210D01*
X289090Y189725D01*
Y188118D01*
X289705Y186633D01*
X290842Y185496D01*
X292326Y184881D01*
X293934D01*
X295418Y185496D01*
X296555Y186633D01*
X297170Y188118D01*
Y189725D01*
X296555Y191210D01*
X295418Y192346D01*
X293934Y192961D01*
D02*
G37*
G36*
X340920Y189807D02*
X339313D01*
X337828Y189192D01*
X336692Y188055D01*
X336077Y186570D01*
Y184963D01*
X336692Y183478D01*
X337828Y182342D01*
X339313Y181727D01*
X340920D01*
X342405Y182342D01*
X343541Y183478D01*
X344157Y184963D01*
Y186570D01*
X343541Y188055D01*
X342405Y189192D01*
X340920Y189807D01*
D02*
G37*
G36*
X256128Y191757D02*
X254521D01*
X253036Y191142D01*
X251900Y190005D01*
X251285Y188521D01*
Y186913D01*
X251900Y185429D01*
X253036Y184292D01*
X254521Y183677D01*
X256128D01*
X257489Y184240D01*
X257878Y184029D01*
X258514Y183397D01*
X258227Y182704D01*
Y181097D01*
X258842Y179612D01*
X259978Y178475D01*
X261463Y177860D01*
X263071D01*
X264555Y178475D01*
X265692Y179612D01*
X266307Y181097D01*
Y182704D01*
X265692Y184189D01*
X264555Y185325D01*
X263071Y185940D01*
X261463D01*
X260103Y185377D01*
X259713Y185589D01*
X259078Y186221D01*
X259365Y186913D01*
Y188521D01*
X258750Y190005D01*
X257613Y191142D01*
X256128Y191757D01*
D02*
G37*
G36*
X344920Y180366D02*
X343313D01*
X341828Y179751D01*
X340692Y178615D01*
X340077Y177130D01*
Y175523D01*
X340692Y174038D01*
X341828Y172901D01*
X343313Y172286D01*
X344920D01*
X346405Y172901D01*
X347542Y174038D01*
X348157Y175523D01*
Y177130D01*
X347542Y178615D01*
X346405Y179751D01*
X344920Y180366D01*
D02*
G37*
G36*
X68490Y179102D02*
X51510D01*
Y162122D01*
X68490D01*
Y179102D01*
D02*
G37*
G36*
X166511Y144672D02*
X164903D01*
X163419Y144057D01*
X162282Y142920D01*
X161667Y141435D01*
Y139828D01*
X161678Y139802D01*
X160632Y139188D01*
X159496Y140325D01*
X158011Y140940D01*
X156404D01*
X154919Y140325D01*
X153782Y139188D01*
X153167Y137704D01*
Y136096D01*
X153782Y134612D01*
X154919Y133475D01*
X156404Y132860D01*
X158011D01*
X159496Y133475D01*
X160632Y134612D01*
X161247Y136096D01*
Y137704D01*
X161236Y137730D01*
X162282Y138343D01*
X163419Y137207D01*
X164903Y136592D01*
X166511D01*
X167995Y137207D01*
X169132Y138343D01*
X169747Y139828D01*
Y141435D01*
X169132Y142920D01*
X167995Y144057D01*
X166511Y144672D01*
D02*
G37*
G36*
X149219Y145220D02*
X147612D01*
X146127Y144605D01*
X144990Y143469D01*
X144375Y141984D01*
Y140376D01*
X144990Y138891D01*
X146127Y137755D01*
X147612Y137140D01*
X149219D01*
X150704Y137755D01*
X151840Y138891D01*
X152455Y140376D01*
Y141984D01*
X151840Y143469D01*
X150704Y144605D01*
X149219Y145220D01*
D02*
G37*
G36*
X61118Y153702D02*
X58882D01*
X56723Y153123D01*
X54787Y152006D01*
X53206Y150425D01*
X52089Y148489D01*
X51510Y146330D01*
Y144094D01*
X52089Y141935D01*
X53206Y139999D01*
X54787Y138418D01*
X56723Y137301D01*
X58882Y136722D01*
X61118D01*
X63277Y137301D01*
X65213Y138418D01*
X66794Y139999D01*
X67911Y141935D01*
X68490Y144094D01*
Y146330D01*
X67911Y148489D01*
X66794Y150425D01*
X65213Y152006D01*
X63277Y153123D01*
X61118Y153702D01*
D02*
G37*
G36*
X307554Y155290D02*
X305946D01*
X304461Y154675D01*
X303325Y153539D01*
X302710Y152054D01*
Y150446D01*
X301831Y149249D01*
X301532D01*
X300047Y148633D01*
X298911Y147497D01*
X298295Y146012D01*
Y144405D01*
X298911Y142920D01*
X299883Y141947D01*
X298911Y140975D01*
X298295Y139490D01*
Y137883D01*
X298911Y136398D01*
X300047Y135261D01*
X301532Y134646D01*
X302187D01*
X302710Y133863D01*
Y132256D01*
X303325Y130771D01*
X304461Y129635D01*
X305946Y129019D01*
X307554D01*
X309039Y129635D01*
X310175Y130771D01*
X310790Y132256D01*
Y133863D01*
X310175Y135348D01*
X309039Y136484D01*
X307554Y137099D01*
X306899D01*
X306376Y137883D01*
Y139490D01*
X305760Y140975D01*
X304788Y141947D01*
X305760Y142920D01*
X306376Y144405D01*
Y146012D01*
X307254Y147210D01*
X307554D01*
X309039Y147825D01*
X310175Y148962D01*
X310790Y150446D01*
Y152054D01*
X310175Y153539D01*
X309039Y154675D01*
X307554Y155290D01*
D02*
G37*
G36*
X79639Y136552D02*
X78031D01*
X76547Y135937D01*
X75410Y134801D01*
X74795Y133316D01*
Y131708D01*
X75410Y130224D01*
X76547Y129087D01*
X78031Y128472D01*
X79639D01*
X81123Y129087D01*
X82260Y130224D01*
X82875Y131708D01*
Y133316D01*
X82260Y134801D01*
X81123Y135937D01*
X79639Y136552D01*
D02*
G37*
G36*
X223510Y120210D02*
X221903D01*
X220418Y119594D01*
X219282Y118458D01*
X218667Y116973D01*
Y115366D01*
X219282Y113881D01*
X220418Y112745D01*
X221903Y112129D01*
X223510D01*
X224995Y112745D01*
X226132Y113881D01*
X226747Y115366D01*
Y116973D01*
X226132Y118458D01*
X224995Y119594D01*
X223510Y120210D01*
D02*
G37*
G36*
X61118Y128302D02*
X58882D01*
X56723Y127723D01*
X54787Y126606D01*
X53206Y125025D01*
X52089Y123089D01*
X51510Y120930D01*
Y118694D01*
X52089Y116535D01*
X53206Y114599D01*
X54787Y113018D01*
X56723Y111901D01*
X58882Y111322D01*
X61118D01*
X63277Y111901D01*
X65213Y113018D01*
X66794Y114599D01*
X67911Y116535D01*
X68490Y118694D01*
Y120930D01*
X67911Y123089D01*
X66794Y125025D01*
X65213Y126606D01*
X63277Y127723D01*
X61118Y128302D01*
D02*
G37*
G36*
X410337Y117624D02*
X408730D01*
X407245Y117009D01*
X406108Y115872D01*
X405493Y114387D01*
Y112780D01*
X406108Y111295D01*
X407245Y110159D01*
X408730Y109544D01*
X410337D01*
X411822Y110159D01*
X412958Y111295D01*
X413573Y112780D01*
Y114387D01*
X412958Y115872D01*
X411822Y117009D01*
X410337Y117624D01*
D02*
G37*
G36*
X200944D02*
X199336D01*
X197852Y117009D01*
X196715Y115872D01*
X196100Y114387D01*
Y112780D01*
X196715Y111295D01*
X197852Y110159D01*
X199336Y109544D01*
X200944D01*
X202429Y110159D01*
X203565Y111295D01*
X204180Y112780D01*
Y114387D01*
X203565Y115872D01*
X202429Y117009D01*
X200944Y117624D01*
D02*
G37*
G36*
X293934Y112624D02*
X292326D01*
X290842Y112009D01*
X289705Y110873D01*
X289090Y109388D01*
Y107781D01*
X289705Y106296D01*
X290842Y105159D01*
X292326Y104544D01*
X293934D01*
X295418Y105159D01*
X296555Y106296D01*
X297170Y107781D01*
Y109388D01*
X296555Y110873D01*
X295418Y112009D01*
X293934Y112624D01*
D02*
G37*
G36*
X61270Y103412D02*
Y95682D01*
X69000D01*
X68407Y97894D01*
X67219Y99952D01*
X65540Y101631D01*
X63482Y102819D01*
X61270Y103412D01*
D02*
G37*
G36*
X58730D02*
X56518Y102819D01*
X54460Y101631D01*
X52781Y99952D01*
X51593Y97894D01*
X51000Y95682D01*
X58730D01*
Y103412D01*
D02*
G37*
G36*
X212693Y98198D02*
X211086D01*
X209601Y97583D01*
X208465Y96447D01*
X207850Y94962D01*
Y93354D01*
X208465Y91869D01*
X209601Y90733D01*
X211086Y90118D01*
X212693D01*
X214178Y90733D01*
X215315Y91869D01*
X215930Y93354D01*
Y94962D01*
X215315Y96447D01*
X214178Y97583D01*
X212693Y98198D01*
D02*
G37*
G36*
X181217Y97944D02*
X179610D01*
X178125Y97329D01*
X176989Y96193D01*
X176374Y94708D01*
Y93100D01*
X176989Y91615D01*
X178125Y90479D01*
X179610Y89864D01*
X181217D01*
X182702Y90479D01*
X183839Y91615D01*
X184454Y93100D01*
Y94708D01*
X183839Y96193D01*
X182702Y97329D01*
X181217Y97944D01*
D02*
G37*
G36*
X69000Y93142D02*
X61270D01*
Y85412D01*
X63482Y86005D01*
X65540Y87193D01*
X67219Y88872D01*
X68407Y90930D01*
X69000Y93142D01*
D02*
G37*
G36*
X58730D02*
X51000D01*
X51593Y90930D01*
X52781Y88872D01*
X54460Y87193D01*
X56518Y86005D01*
X58730Y85412D01*
Y93142D01*
D02*
G37*
G36*
X205891Y84040D02*
X204284D01*
X202799Y83425D01*
X201663Y82289D01*
X201048Y80804D01*
Y79196D01*
X201663Y77712D01*
X202799Y76575D01*
X204284Y75960D01*
X205891D01*
X207376Y76575D01*
X208513Y77712D01*
X209128Y79196D01*
Y80804D01*
X208513Y82289D01*
X207376Y83425D01*
X205891Y84040D01*
D02*
G37*
G36*
X183878D02*
X182271D01*
X180786Y83425D01*
X179649Y82289D01*
X179034Y80804D01*
Y79196D01*
X179649Y77712D01*
X180786Y76575D01*
X182271Y75960D01*
X183878D01*
X185362Y76575D01*
X186499Y77712D01*
X187114Y79196D01*
Y80804D01*
X186499Y82289D01*
X185362Y83425D01*
X183878Y84040D01*
D02*
G37*
G36*
X251232Y68406D02*
Y60676D01*
X258962D01*
X258369Y62888D01*
X257181Y64946D01*
X255502Y66625D01*
X253444Y67813D01*
X251232Y68406D01*
D02*
G37*
G36*
X248692D02*
X246480Y67813D01*
X244422Y66625D01*
X242743Y64946D01*
X241555Y62888D01*
X240962Y60676D01*
X248692D01*
Y68406D01*
D02*
G37*
G36*
X334652Y67896D02*
X317672D01*
Y50916D01*
X334652D01*
Y67896D01*
D02*
G37*
G36*
X301880D02*
X299644D01*
X297485Y67318D01*
X295549Y66200D01*
X293968Y64619D01*
X292851Y62683D01*
X292272Y60524D01*
Y58288D01*
X292851Y56129D01*
X293968Y54193D01*
X295549Y52613D01*
X297485Y51495D01*
X299644Y50916D01*
X301880D01*
X304039Y51495D01*
X305975Y52613D01*
X307556Y54193D01*
X308673Y56129D01*
X309252Y58288D01*
Y60524D01*
X308673Y62683D01*
X307556Y64619D01*
X305975Y66200D01*
X304039Y67318D01*
X301880Y67896D01*
D02*
G37*
G36*
X276480D02*
X274244D01*
X272085Y67318D01*
X270149Y66200D01*
X268568Y64619D01*
X267451Y62683D01*
X266872Y60524D01*
Y58288D01*
X267451Y56129D01*
X268568Y54193D01*
X270149Y52613D01*
X272085Y51495D01*
X274244Y50916D01*
X276480D01*
X278639Y51495D01*
X280575Y52613D01*
X282156Y54193D01*
X283273Y56129D01*
X283852Y58288D01*
Y60524D01*
X283273Y62683D01*
X282156Y64619D01*
X280575Y66200D01*
X278639Y67318D01*
X276480Y67896D01*
D02*
G37*
G36*
X494316Y67850D02*
X477336D01*
Y50870D01*
X494316D01*
Y67850D01*
D02*
G37*
G36*
X461543D02*
X459308D01*
X457149Y67271D01*
X455213Y66154D01*
X453632Y64573D01*
X452514Y62637D01*
X451936Y60478D01*
Y58242D01*
X452514Y56083D01*
X453632Y54147D01*
X455213Y52566D01*
X457149Y51449D01*
X459308Y50870D01*
X461543D01*
X463703Y51449D01*
X465639Y52566D01*
X467219Y54147D01*
X468337Y56083D01*
X468916Y58242D01*
Y60478D01*
X468337Y62637D01*
X467219Y64573D01*
X465639Y66154D01*
X463703Y67271D01*
X461543Y67850D01*
D02*
G37*
G36*
X436143D02*
X433908D01*
X431749Y67271D01*
X429813Y66154D01*
X428232Y64573D01*
X427114Y62637D01*
X426536Y60478D01*
Y58242D01*
X427114Y56083D01*
X428232Y54147D01*
X429813Y52566D01*
X431749Y51449D01*
X433908Y50870D01*
X436143D01*
X438303Y51449D01*
X440239Y52566D01*
X441819Y54147D01*
X442937Y56083D01*
X443516Y58242D01*
Y60478D01*
X442937Y62637D01*
X441819Y64573D01*
X440239Y66154D01*
X438303Y67271D01*
X436143Y67850D01*
D02*
G37*
G36*
X410743D02*
X408508D01*
X406349Y67271D01*
X404413Y66154D01*
X402832Y64573D01*
X401714Y62637D01*
X401136Y60478D01*
Y58242D01*
X401714Y56083D01*
X402832Y54147D01*
X404413Y52566D01*
X406349Y51449D01*
X408508Y50870D01*
X410743D01*
X412903Y51449D01*
X414839Y52566D01*
X416419Y54147D01*
X417537Y56083D01*
X418116Y58242D01*
Y60478D01*
X417537Y62637D01*
X416419Y64573D01*
X414839Y66154D01*
X412903Y67271D01*
X410743Y67850D01*
D02*
G37*
G36*
X385343D02*
X383108D01*
X380949Y67271D01*
X379013Y66154D01*
X377432Y64573D01*
X376314Y62637D01*
X375736Y60478D01*
Y58242D01*
X376314Y56083D01*
X377432Y54147D01*
X379013Y52566D01*
X380949Y51449D01*
X383108Y50870D01*
X385343D01*
X387503Y51449D01*
X389439Y52566D01*
X391019Y54147D01*
X392137Y56083D01*
X392716Y58242D01*
Y60478D01*
X392137Y62637D01*
X391019Y64573D01*
X389439Y66154D01*
X387503Y67271D01*
X385343Y67850D01*
D02*
G37*
G36*
X258962Y58136D02*
X251232D01*
Y50406D01*
X253444Y50999D01*
X255502Y52187D01*
X257181Y53867D01*
X258369Y55924D01*
X258962Y58136D01*
D02*
G37*
G36*
X248692D02*
X240962D01*
X241555Y55924D01*
X242743Y53867D01*
X244422Y52187D01*
X246480Y50999D01*
X248692Y50406D01*
Y58136D01*
D02*
G37*
G36*
X168074Y48009D02*
X166467D01*
X164982Y47394D01*
X163845Y46258D01*
X163230Y44773D01*
Y43165D01*
X163845Y41681D01*
X164982Y40544D01*
X166467Y39929D01*
X168074D01*
X169559Y40544D01*
X170695Y41681D01*
X171310Y43165D01*
Y44773D01*
X170695Y46258D01*
X169559Y47394D01*
X168074Y48009D01*
D02*
G37*
G36*
X166511Y38640D02*
X164903D01*
X163419Y38025D01*
X162282Y36889D01*
X161929Y36035D01*
X160554D01*
X160201Y36888D01*
X159064Y38025D01*
X157579Y38640D01*
X155972D01*
X154487Y38025D01*
X153351Y36888D01*
X153156Y36419D01*
X151781D01*
X151587Y36888D01*
X150450Y38025D01*
X148966Y38640D01*
X147358D01*
X145873Y38025D01*
X144737Y36888D01*
X144122Y35404D01*
Y33796D01*
X144737Y32311D01*
X145873Y31175D01*
X147358Y30560D01*
X148966D01*
X150450Y31175D01*
X151587Y32311D01*
X151781Y32781D01*
X153156D01*
X153351Y32311D01*
X154487Y31175D01*
X155972Y30560D01*
X157579D01*
X159064Y31175D01*
X160201Y32311D01*
X160554Y33165D01*
X161929D01*
X162282Y32312D01*
X163419Y31175D01*
X164903Y30560D01*
X166511D01*
X167995Y31175D01*
X169132Y32312D01*
X169747Y33797D01*
Y35404D01*
X169132Y36889D01*
X167995Y38025D01*
X166511Y38640D01*
D02*
G37*
%LPD*%
D126*
X676500Y676500D02*
D03*
X23500Y23500D02*
D03*
X676500D02*
D03*
X23500Y676500D02*
D03*
D127*
X409626Y59360D02*
D03*
X435026D02*
D03*
X460426D02*
D03*
X384226D02*
D03*
X249962Y59406D02*
D03*
X275362D02*
D03*
X300762D02*
D03*
X523916Y531090D02*
D03*
Y505690D02*
D03*
X60000Y94412D02*
D03*
Y119812D02*
D03*
Y145212D02*
D03*
D128*
X485826Y59360D02*
D03*
X326162Y59406D02*
D03*
D129*
X416642Y259810D02*
D03*
X403942D02*
D03*
Y285210D02*
D03*
Y272510D02*
D03*
X416642Y285210D02*
D03*
Y272510D02*
D03*
Y297910D02*
D03*
Y310610D02*
D03*
X403942Y297910D02*
D03*
Y310610D02*
D03*
D130*
X90732Y645700D02*
D03*
X139232D02*
D03*
D131*
X73982Y676500D02*
D03*
X155982D02*
D03*
D132*
X523916Y480290D02*
D03*
X60000Y170612D02*
D03*
D133*
X249382Y627886D02*
D03*
D134*
X229382D02*
D03*
D135*
X167270Y43969D02*
D03*
X302335Y138686D02*
D03*
X406462Y326402D02*
D03*
X653632Y391187D02*
D03*
X622965D02*
D03*
X646750Y456358D02*
D03*
X660242Y418753D02*
D03*
X660433Y426975D02*
D03*
Y436264D02*
D03*
X660374Y445552D02*
D03*
X660305Y454684D02*
D03*
X602857Y341400D02*
D03*
X602728Y330539D02*
D03*
X610129Y330794D02*
D03*
X608174Y306263D02*
D03*
X590344D02*
D03*
Y319250D02*
D03*
X600487Y306263D02*
D03*
Y319250D02*
D03*
X148415Y141180D02*
D03*
X165707Y140632D02*
D03*
X148162Y34600D02*
D03*
X165707Y34600D02*
D03*
X427755Y444403D02*
D03*
X435026D02*
D03*
X418586Y326402D02*
D03*
Y345185D02*
D03*
X420651Y444403D02*
D03*
X528156Y466761D02*
D03*
X516803Y466600D02*
D03*
X523916Y460962D02*
D03*
X533692Y461020D02*
D03*
X543265Y460962D02*
D03*
Y469027D02*
D03*
Y478793D02*
D03*
Y488259D02*
D03*
X537329Y391876D02*
D03*
X521078Y395294D02*
D03*
X507046D02*
D03*
X531139Y404938D02*
D03*
X521078D02*
D03*
X507046D02*
D03*
X186000Y551288D02*
D03*
X216920Y540212D02*
D03*
X201043Y540677D02*
D03*
X297787Y560568D02*
D03*
X333155Y555397D02*
D03*
X198733Y618776D02*
D03*
X199431Y631500D02*
D03*
X239382Y610106D02*
D03*
X228395D02*
D03*
X632569Y362467D02*
D03*
X622286D02*
D03*
X611469D02*
D03*
X632565Y372567D02*
D03*
X622226D02*
D03*
X611512D02*
D03*
X210676Y513830D02*
D03*
Y522903D02*
D03*
X199722Y503545D02*
D03*
Y494303D02*
D03*
X210676Y503545D02*
D03*
Y494020D02*
D03*
X11058Y229552D02*
D03*
X34826D02*
D03*
X59794D02*
D03*
X74358Y266929D02*
D03*
X74558Y243700D02*
D03*
X74575Y361744D02*
D03*
X74775Y338516D02*
D03*
X74558Y299000D02*
D03*
X74575Y315547D02*
D03*
X74781Y402857D02*
D03*
X74758Y384105D02*
D03*
Y430303D02*
D03*
X74558Y453531D02*
D03*
X59794Y470121D02*
D03*
X34826D02*
D03*
X11058D02*
D03*
X86280Y528770D02*
D03*
X83592Y522764D02*
D03*
X289746Y221459D02*
D03*
X255325Y187717D02*
D03*
X275692Y241504D02*
D03*
X224559Y260163D02*
D03*
X309445Y268831D02*
D03*
X316832Y270146D02*
D03*
X324484Y234459D02*
D03*
X183270Y273972D02*
D03*
X456745Y397960D02*
D03*
X512250Y623559D02*
D03*
X522354D02*
D03*
X501205Y611105D02*
D03*
X452725Y618757D02*
D03*
X427863Y237896D02*
D03*
X386905Y249497D02*
D03*
X92765Y564136D02*
D03*
X47226Y584740D02*
D03*
X92879Y580886D02*
D03*
X70547Y560988D02*
D03*
X63732Y540326D02*
D03*
X135138Y536712D02*
D03*
X61409Y549535D02*
D03*
X28250Y538485D02*
D03*
X385905Y492000D02*
D03*
X377905D02*
D03*
X383405Y313960D02*
D03*
X338381D02*
D03*
X268268Y194816D02*
D03*
X262267Y181900D02*
D03*
X302335Y145209D02*
D03*
X188449Y249467D02*
D03*
X265599Y241504D02*
D03*
X180414Y93904D02*
D03*
X183074Y80000D02*
D03*
X187640Y134400D02*
D03*
X175821Y142920D02*
D03*
X200140Y113584D02*
D03*
X359352Y275709D02*
D03*
X156776Y34600D02*
D03*
X157207Y136900D02*
D03*
X140000Y262858D02*
D03*
X568762Y394772D02*
D03*
X576262Y399772D02*
D03*
X568762Y404772D02*
D03*
X583762Y394772D02*
D03*
Y404772D02*
D03*
X345750Y691252D02*
D03*
X414755Y666487D02*
D03*
X430734Y610889D02*
D03*
X504163Y649517D02*
D03*
Y665150D02*
D03*
X189650Y404878D02*
D03*
X85450Y299000D02*
D03*
X81445Y417000D02*
D03*
X293130Y108584D02*
D03*
X141520Y226016D02*
D03*
X145230Y243593D02*
D03*
X181209Y262094D02*
D03*
X78835Y132512D02*
D03*
X134945Y189717D02*
D03*
X186000Y558266D02*
D03*
X314479Y467851D02*
D03*
X272193Y518086D02*
D03*
X217920Y483750D02*
D03*
X560218Y621573D02*
D03*
X442755Y389757D02*
D03*
X500834Y450068D02*
D03*
X289215Y460068D02*
D03*
X177445Y388051D02*
D03*
X150030Y405238D02*
D03*
X174318Y404878D02*
D03*
X296048Y657922D02*
D03*
X216920Y456300D02*
D03*
X418586Y336052D02*
D03*
X37226Y584740D02*
D03*
X339965Y322613D02*
D03*
X470500Y319250D02*
D03*
X338381Y337961D02*
D03*
X310500D02*
D03*
X652958Y277780D02*
D03*
X279877Y402882D02*
D03*
X270944Y397500D02*
D03*
X484755Y403576D02*
D03*
X205088Y80000D02*
D03*
X409533Y113584D02*
D03*
X222707Y116170D02*
D03*
X211890Y94158D02*
D03*
X251890Y198655D02*
D03*
X234890Y246984D02*
D03*
X75424Y542976D02*
D03*
X225445Y225220D02*
D03*
X438755Y637672D02*
D03*
X504000Y633320D02*
D03*
X452725Y649517D02*
D03*
X264433Y294960D02*
D03*
X344237Y275709D02*
D03*
X293130Y188921D02*
D03*
X340117Y185767D02*
D03*
X113784Y590549D02*
D03*
X48719Y619835D02*
D03*
X306427Y294960D02*
D03*
X273617Y301294D02*
D03*
X239621Y393633D02*
D03*
X221882Y440750D02*
D03*
X200886Y360573D02*
D03*
X214715Y384802D02*
D03*
X442755Y364921D02*
D03*
X337817Y354323D02*
D03*
X442250Y350181D02*
D03*
X331434Y546084D02*
D03*
X455260Y575086D02*
D03*
X296406Y475920D02*
D03*
X481105Y665150D02*
D03*
X309445Y431249D02*
D03*
X273305Y358386D02*
D03*
X244755Y329146D02*
D03*
X273305D02*
D03*
X368000Y583945D02*
D03*
X273867Y473818D02*
D03*
X291604Y502888D02*
D03*
Y493750D02*
D03*
X356816Y371047D02*
D03*
X357206Y433238D02*
D03*
X124357Y678500D02*
D03*
X105607D02*
D03*
X344117Y176326D02*
D03*
Y194517D02*
D03*
X189445Y296250D02*
D03*
X657411Y330794D02*
D03*
X608174Y319250D02*
D03*
X153515Y446813D02*
D03*
X122890Y430999D02*
D03*
X293683Y431249D02*
D03*
X575931Y374716D02*
D03*
X355631Y407750D02*
D03*
X413363Y444258D02*
D03*
X357206Y441803D02*
D03*
X456745Y432765D02*
D03*
X457548Y441602D02*
D03*
X244755Y358386D02*
D03*
X186000Y565891D02*
D03*
X194511Y567884D02*
D03*
X186000Y572204D02*
D03*
X144375Y360446D02*
D03*
Y338626D02*
D03*
X122195D02*
D03*
Y360446D02*
D03*
X382005Y656445D02*
D03*
X573926Y432765D02*
D03*
X564881Y423495D02*
D03*
X526829Y365317D02*
D03*
X644973Y342862D02*
D03*
X657411Y342587D02*
D03*
X651464Y336507D02*
D03*
X610215Y341400D02*
D03*
X644762Y330794D02*
D03*
X356245Y585116D02*
D03*
X365306Y667487D02*
D03*
X365567Y680808D02*
D03*
X306750Y151250D02*
D03*
Y133059D02*
D03*
X197975Y245671D02*
D03*
X237890Y241504D02*
D03*
X506750Y679250D02*
D03*
X255663Y142111D02*
D03*
X114763Y478621D02*
D03*
X102371Y472271D02*
D03*
Y486646D02*
D03*
X110415Y533860D02*
D03*
X114598Y552091D02*
D03*
X105366D02*
D03*
D136*
X613528Y217490D02*
D03*
X571792Y217293D02*
D03*
X600487Y277334D02*
D03*
X456006Y515454D02*
D03*
X384405Y509309D02*
D03*
X80424Y438727D02*
D03*
X262720Y251064D02*
D03*
M02*
