G04*
G04 #@! TF.GenerationSoftware,Altium Limited,Altium Designer,23.2.1 (34)*
G04*
G04 Layer_Physical_Order=4*
G04 Layer_Color=16711680*
%FSLAX44Y44*%
%MOMM*%
G71*
G04*
G04 #@! TF.SameCoordinates,6C2AB55D-B72B-4B93-AE35-0C838568E6CE*
G04*
G04*
G04 #@! TF.FilePolarity,Positive*
G04*
G01*
G75*
%ADD15C,0.1524*%
%ADD126C,3.6000*%
%ADD127C,1.3980*%
%ADD128R,1.3980X1.3980*%
%ADD129C,1.0058*%
%ADD130O,1.0000X1.4600*%
%ADD131O,1.0000X1.8000*%
%ADD132R,1.3980X1.3980*%
%ADD133R,1.2000X1.2000*%
%ADD134C,1.2000*%
%ADD135C,0.5080*%
%ADD136C,0.5000*%
G36*
X242867Y237024D02*
X242642Y236481D01*
X183390D01*
Y254359D01*
X242867D01*
Y237024D01*
D02*
G37*
G36*
X484692Y446855D02*
X484575Y440833D01*
X484316Y427500D01*
X483791Y426975D01*
X351738D01*
Y447762D01*
X409357D01*
X409938Y446546D01*
X409323Y445061D01*
Y443454D01*
X409938Y441969D01*
X411074Y440833D01*
X412559Y440218D01*
X414166D01*
X415651Y440833D01*
X416250Y441431D01*
X416925Y441903D01*
X417909Y441431D01*
X418363Y440978D01*
X419847Y440363D01*
X421455D01*
X422939Y440978D01*
X423373Y441412D01*
X424203Y442021D01*
X425033Y441412D01*
X425466Y440978D01*
X426951Y440363D01*
X428558D01*
X430043Y440978D01*
X430560Y441495D01*
X431390Y441989D01*
X432220Y441495D01*
X432737Y440978D01*
X434222Y440363D01*
X435829D01*
X437314Y440978D01*
X438451Y442114D01*
X439066Y443599D01*
Y445206D01*
X438533Y446492D01*
X439040Y447762D01*
X483803D01*
X484692Y446855D01*
D02*
G37*
G36*
X667217Y322613D02*
X610525Y322613D01*
X610463Y322675D01*
X608978Y323290D01*
X607371D01*
X605886Y322675D01*
X605824Y322613D01*
X602838D01*
X602776Y322675D01*
X601291Y323290D01*
X599684D01*
X598199Y322675D01*
X598137Y322613D01*
X592694D01*
X592632Y322675D01*
X591147Y323290D01*
X589540D01*
X589132Y323121D01*
X587862Y323970D01*
Y359522D01*
X587464Y359921D01*
X600276Y372732D01*
Y458587D01*
X605059Y463370D01*
X667217D01*
Y322613D01*
D02*
G37*
%LPC*%
G36*
X654435Y395227D02*
X652828D01*
X651343Y394612D01*
X650207Y393475D01*
X649592Y391991D01*
Y390383D01*
X650207Y388898D01*
X651343Y387762D01*
X652828Y387147D01*
X654435D01*
X655920Y387762D01*
X657057Y388898D01*
X657672Y390383D01*
Y391991D01*
X657057Y393475D01*
X655920Y394612D01*
X654435Y395227D01*
D02*
G37*
G36*
X623769D02*
X622162D01*
X620677Y394612D01*
X619540Y393475D01*
X618925Y391991D01*
Y390383D01*
X619540Y388898D01*
X620677Y387762D01*
X622162Y387147D01*
X623769D01*
X625254Y387762D01*
X626390Y388898D01*
X627005Y390383D01*
Y391991D01*
X626390Y393475D01*
X625254Y394612D01*
X623769Y395227D01*
D02*
G37*
G36*
X633368Y376607D02*
X631761D01*
X630276Y375992D01*
X629140Y374856D01*
X628525Y373371D01*
Y371764D01*
X629140Y370279D01*
X630276Y369142D01*
X631761Y368527D01*
X633368D01*
X634853Y369142D01*
X635990Y370279D01*
X636605Y371764D01*
Y373371D01*
X635990Y374856D01*
X634853Y375992D01*
X633368Y376607D01*
D02*
G37*
G36*
X623030D02*
X621423D01*
X619938Y375992D01*
X618801Y374856D01*
X618186Y373371D01*
Y371764D01*
X618801Y370279D01*
X619938Y369142D01*
X621423Y368527D01*
X623030D01*
X624515Y369142D01*
X625651Y370279D01*
X626266Y371764D01*
Y373371D01*
X625651Y374856D01*
X624515Y375992D01*
X623030Y376607D01*
D02*
G37*
G36*
X612316D02*
X610709D01*
X609224Y375992D01*
X608087Y374856D01*
X607472Y373371D01*
Y371764D01*
X608087Y370279D01*
X609224Y369142D01*
X610709Y368527D01*
X612316D01*
X613801Y369142D01*
X614937Y370279D01*
X615552Y371764D01*
Y373371D01*
X614937Y374856D01*
X613801Y375992D01*
X612316Y376607D01*
D02*
G37*
G36*
X633373Y366507D02*
X631766D01*
X630281Y365892D01*
X629144Y364756D01*
X628529Y363271D01*
Y361664D01*
X629144Y360179D01*
X630281Y359042D01*
X631766Y358427D01*
X633373D01*
X634858Y359042D01*
X635994Y360179D01*
X636609Y361664D01*
Y363271D01*
X635994Y364756D01*
X634858Y365892D01*
X633373Y366507D01*
D02*
G37*
G36*
X623089D02*
X621482D01*
X619997Y365892D01*
X618861Y364756D01*
X618246Y363271D01*
Y361664D01*
X618861Y360179D01*
X619997Y359042D01*
X621482Y358427D01*
X623089D01*
X624574Y359042D01*
X625710Y360179D01*
X626326Y361664D01*
Y363271D01*
X625710Y364756D01*
X624574Y365892D01*
X623089Y366507D01*
D02*
G37*
G36*
X612273D02*
X610666D01*
X609181Y365892D01*
X608044Y364756D01*
X607429Y363271D01*
Y361664D01*
X608044Y360179D01*
X609181Y359042D01*
X610666Y358427D01*
X612273D01*
X613758Y359042D01*
X614894Y360179D01*
X615509Y361664D01*
Y363271D01*
X614894Y364756D01*
X613758Y365892D01*
X612273Y366507D01*
D02*
G37*
G36*
X645777Y346902D02*
X644169D01*
X642684Y346287D01*
X641548Y345150D01*
X640933Y343665D01*
Y342058D01*
X641548Y340573D01*
X642684Y339437D01*
X644169Y338821D01*
X645777D01*
X646862Y339271D01*
X647869Y338385D01*
X647424Y337311D01*
Y335704D01*
X647566Y335363D01*
X646585Y334412D01*
X645565Y334834D01*
X643958D01*
X642474Y334219D01*
X641337Y333082D01*
X640722Y331598D01*
Y329990D01*
X641337Y328506D01*
X642474Y327369D01*
X643958Y326754D01*
X645565D01*
X647050Y327369D01*
X648187Y328506D01*
X648802Y329990D01*
Y331598D01*
X648661Y331939D01*
X649641Y332890D01*
X650661Y332467D01*
X652268D01*
X652375Y332512D01*
X653371Y331598D01*
Y329990D01*
X653986Y328506D01*
X655122Y327369D01*
X656607Y326754D01*
X658214D01*
X659699Y327369D01*
X660836Y328506D01*
X661451Y329990D01*
Y331598D01*
X660836Y333082D01*
X659699Y334219D01*
X658214Y334834D01*
X656607D01*
X656500Y334790D01*
X655505Y335704D01*
Y337311D01*
X655346Y337695D01*
X656318Y338667D01*
X656607Y338547D01*
X658214D01*
X659699Y339162D01*
X660836Y340298D01*
X661451Y341783D01*
Y343390D01*
X660836Y344875D01*
X659699Y346012D01*
X658214Y346627D01*
X656607D01*
X655122Y346012D01*
X653986Y344875D01*
X653371Y343390D01*
Y341783D01*
X653530Y341400D01*
X652558Y340428D01*
X652268Y340547D01*
X650661D01*
X649576Y340098D01*
X648568Y340984D01*
X649013Y342058D01*
Y343665D01*
X648398Y345150D01*
X647261Y346287D01*
X645777Y346902D01*
D02*
G37*
%LPD*%
D15*
X434165Y277334D02*
X600487D01*
X416642Y259810D02*
X434165Y277334D01*
X449862Y509309D02*
X456006Y515454D01*
X384405Y509309D02*
X449862D01*
X121189Y522764D02*
X135138Y536712D01*
X83592Y522764D02*
X121189D01*
X255325Y187717D02*
X255887D01*
X261704Y181900D02*
X262267D01*
X255887Y187717D02*
X261704Y181900D01*
X224559Y260163D02*
X362515D01*
X384782Y237896D01*
X313006Y273972D02*
X316832Y270146D01*
X324444Y234459D02*
X324484D01*
X183270Y273972D02*
X313006D01*
X271174Y397730D02*
X456515D01*
X456745Y397960D01*
X270944Y397500D02*
X271174Y397730D01*
X557402Y618757D02*
X560218Y621573D01*
X452725Y618757D02*
X557402D01*
X430862Y611017D02*
X501117D01*
X501205Y611105D01*
X319536Y229552D02*
X324444Y234459D01*
X386905Y249497D02*
X413383D01*
X416381Y252495D01*
Y259549D02*
X416642Y259810D01*
X416381Y252495D02*
Y259549D01*
X68865Y549535D02*
X75424Y542976D01*
X61409Y549535D02*
X68865D01*
X384782Y237896D02*
X427863D01*
X225445Y225220D02*
X229776Y229552D01*
X319536D01*
X416954Y298222D02*
X423064D01*
X429764Y304922D02*
Y319250D01*
X416642Y297910D02*
X416954Y298222D01*
X423064D02*
X429764Y304922D01*
Y319250D02*
X470500D01*
X343371D02*
X429764D01*
X437799Y384802D02*
X442755Y389757D01*
X338381Y313960D02*
X383405D01*
X340008Y322613D02*
X343371Y319250D01*
X339965Y322613D02*
X340008D01*
X264433Y294960D02*
X306427D01*
X211636Y94158D02*
X211890Y94412D01*
X183027Y393633D02*
X239621D01*
X177445Y388051D02*
X183027Y393633D01*
X221882Y440750D02*
X231200Y450068D01*
X200886Y360573D02*
Y361423D01*
X204384Y364921D01*
X442755D01*
X214715Y384802D02*
X437799D01*
X337817Y354323D02*
X438108D01*
X442250Y350181D01*
X348461Y570553D02*
X352995Y575086D01*
X296406Y475920D02*
X348461Y527976D01*
Y570553D01*
X352995Y575086D02*
X455260D01*
X286802Y648676D02*
X296048Y657922D01*
X286802Y484149D02*
X289215Y481736D01*
X286802Y484149D02*
Y648676D01*
X289215Y460068D02*
Y481736D01*
X481105Y665150D02*
X504163D01*
X430734Y610889D02*
X430862Y611017D01*
X382662Y403576D02*
X484755D01*
X381969Y402882D02*
X382662Y403576D01*
X231200Y450068D02*
X500834D01*
X575931Y374716D02*
X595062Y393848D01*
X573926Y432765D02*
X596035Y410656D01*
X595062Y393848D02*
Y408421D01*
X596035Y409394D02*
Y410656D01*
X595062Y408421D02*
X596035Y409394D01*
X526829Y389997D02*
X560055Y423222D01*
X564608D02*
X564881Y423495D01*
X526829Y365317D02*
Y389997D01*
X560055Y423222D02*
X564608D01*
X279877Y402882D02*
X381969D01*
X174138Y405058D02*
X174318Y404878D01*
X150210Y405058D02*
X174138D01*
X150030Y405238D02*
X150210Y405058D01*
X122890Y430999D02*
X293434D01*
X293683Y431249D01*
X310500Y337961D02*
X338381D01*
X183074Y80000D02*
X205088D01*
X409488Y113584D02*
X409533D01*
X406903Y116170D02*
X409488Y113584D01*
X222707Y116170D02*
X406903D01*
X180668Y94158D02*
X211636D01*
X180414Y93904D02*
X180668Y94158D01*
X251890Y198655D02*
X254699D01*
X264433Y188921D01*
X438755Y637672D02*
X443107Y633320D01*
X504000D01*
X452725Y649517D02*
X504163D01*
X264433Y188921D02*
X293130D01*
X200140Y113584D02*
X205088Y108636D01*
X248280D02*
X248332Y108584D01*
X293130D01*
X205088Y108636D02*
X248280D01*
X361047Y678537D02*
X373097Y666487D01*
X345750Y691252D02*
X358465Y678537D01*
X361047D01*
X373097Y666487D02*
X414755D01*
X78835Y133059D02*
X134945Y189170D01*
Y189717D01*
X78835Y132512D02*
Y133059D01*
D126*
X676500Y676500D02*
D03*
X23500Y23500D02*
D03*
X676500D02*
D03*
X23500Y676500D02*
D03*
D127*
X409626Y59360D02*
D03*
X435026D02*
D03*
X460426D02*
D03*
X384226D02*
D03*
X249962Y59406D02*
D03*
X275362D02*
D03*
X300762D02*
D03*
X523916Y531090D02*
D03*
Y505690D02*
D03*
X60000Y94412D02*
D03*
Y119812D02*
D03*
Y145212D02*
D03*
D128*
X485826Y59360D02*
D03*
X326162Y59406D02*
D03*
D129*
X416642Y259810D02*
D03*
X403942D02*
D03*
Y285210D02*
D03*
Y272510D02*
D03*
X416642Y285210D02*
D03*
Y272510D02*
D03*
Y297910D02*
D03*
Y310610D02*
D03*
X403942Y297910D02*
D03*
Y310610D02*
D03*
D130*
X90732Y645700D02*
D03*
X139232D02*
D03*
D131*
X73982Y676500D02*
D03*
X155982D02*
D03*
D132*
X523916Y480290D02*
D03*
X60000Y170612D02*
D03*
D133*
X249382Y627886D02*
D03*
D134*
X229382D02*
D03*
D135*
X167270Y43969D02*
D03*
X302335Y138686D02*
D03*
X406462Y326402D02*
D03*
X653632Y391187D02*
D03*
X622965D02*
D03*
X646750Y456358D02*
D03*
X660242Y418753D02*
D03*
X660433Y426975D02*
D03*
Y436264D02*
D03*
X660374Y445552D02*
D03*
X660305Y454684D02*
D03*
X602857Y341400D02*
D03*
X602728Y330539D02*
D03*
X610129Y330794D02*
D03*
X608174Y306263D02*
D03*
X590344D02*
D03*
Y319250D02*
D03*
X600487Y306263D02*
D03*
Y319250D02*
D03*
X148415Y141180D02*
D03*
X165707Y140632D02*
D03*
X148162Y34600D02*
D03*
X165707Y34600D02*
D03*
X427755Y444403D02*
D03*
X435026D02*
D03*
X418586Y326402D02*
D03*
Y345185D02*
D03*
X420651Y444403D02*
D03*
X528156Y466761D02*
D03*
X516803Y466600D02*
D03*
X523916Y460962D02*
D03*
X533692Y461020D02*
D03*
X543265Y460962D02*
D03*
Y469027D02*
D03*
Y478793D02*
D03*
Y488259D02*
D03*
X537329Y391876D02*
D03*
X521078Y395294D02*
D03*
X507046D02*
D03*
X531139Y404938D02*
D03*
X521078D02*
D03*
X507046D02*
D03*
X186000Y551288D02*
D03*
X216920Y540212D02*
D03*
X201043Y540677D02*
D03*
X297787Y560568D02*
D03*
X333155Y555397D02*
D03*
X198733Y618776D02*
D03*
X199431Y631500D02*
D03*
X239382Y610106D02*
D03*
X228395D02*
D03*
X632569Y362467D02*
D03*
X622286D02*
D03*
X611469D02*
D03*
X632565Y372567D02*
D03*
X622226D02*
D03*
X611512D02*
D03*
X210676Y513830D02*
D03*
Y522903D02*
D03*
X199722Y503545D02*
D03*
Y494303D02*
D03*
X210676Y503545D02*
D03*
Y494020D02*
D03*
X11058Y229552D02*
D03*
X34826D02*
D03*
X59794D02*
D03*
X74358Y266929D02*
D03*
X74558Y243700D02*
D03*
X74575Y361744D02*
D03*
X74775Y338516D02*
D03*
X74558Y299000D02*
D03*
X74575Y315547D02*
D03*
X74781Y402857D02*
D03*
X74758Y384105D02*
D03*
Y430303D02*
D03*
X74558Y453531D02*
D03*
X59794Y470121D02*
D03*
X34826D02*
D03*
X11058D02*
D03*
X86280Y528770D02*
D03*
X83592Y522764D02*
D03*
X289746Y221459D02*
D03*
X255325Y187717D02*
D03*
X275692Y241504D02*
D03*
X224559Y260163D02*
D03*
X309445Y268831D02*
D03*
X316832Y270146D02*
D03*
X324484Y234459D02*
D03*
X183270Y273972D02*
D03*
X456745Y397960D02*
D03*
X512250Y623559D02*
D03*
X522354D02*
D03*
X501205Y611105D02*
D03*
X452725Y618757D02*
D03*
X427863Y237896D02*
D03*
X386905Y249497D02*
D03*
X92765Y564136D02*
D03*
X47226Y584740D02*
D03*
X92879Y580886D02*
D03*
X70547Y560988D02*
D03*
X63732Y540326D02*
D03*
X135138Y536712D02*
D03*
X61409Y549535D02*
D03*
X28250Y538485D02*
D03*
X385905Y492000D02*
D03*
X377905D02*
D03*
X383405Y313960D02*
D03*
X338381D02*
D03*
X268268Y194816D02*
D03*
X262267Y181900D02*
D03*
X302335Y145209D02*
D03*
X188449Y249467D02*
D03*
X265599Y241504D02*
D03*
X180414Y93904D02*
D03*
X183074Y80000D02*
D03*
X187640Y134400D02*
D03*
X175821Y142920D02*
D03*
X200140Y113584D02*
D03*
X359352Y275709D02*
D03*
X156776Y34600D02*
D03*
X157207Y136900D02*
D03*
X140000Y262858D02*
D03*
X568762Y394772D02*
D03*
X576262Y399772D02*
D03*
X568762Y404772D02*
D03*
X583762Y394772D02*
D03*
Y404772D02*
D03*
X345750Y691252D02*
D03*
X414755Y666487D02*
D03*
X430734Y610889D02*
D03*
X504163Y649517D02*
D03*
Y665150D02*
D03*
X189650Y404878D02*
D03*
X85450Y299000D02*
D03*
X81445Y417000D02*
D03*
X293130Y108584D02*
D03*
X141520Y226016D02*
D03*
X145230Y243593D02*
D03*
X181209Y262094D02*
D03*
X78835Y132512D02*
D03*
X134945Y189717D02*
D03*
X186000Y558266D02*
D03*
X314479Y467851D02*
D03*
X272193Y518086D02*
D03*
X217920Y483750D02*
D03*
X560218Y621573D02*
D03*
X442755Y389757D02*
D03*
X500834Y450068D02*
D03*
X289215Y460068D02*
D03*
X177445Y388051D02*
D03*
X150030Y405238D02*
D03*
X174318Y404878D02*
D03*
X296048Y657922D02*
D03*
X216920Y456300D02*
D03*
X418586Y336052D02*
D03*
X37226Y584740D02*
D03*
X339965Y322613D02*
D03*
X470500Y319250D02*
D03*
X338381Y337961D02*
D03*
X310500D02*
D03*
X652958Y277780D02*
D03*
X279877Y402882D02*
D03*
X270944Y397500D02*
D03*
X484755Y403576D02*
D03*
X205088Y80000D02*
D03*
X409533Y113584D02*
D03*
X222707Y116170D02*
D03*
X211890Y94158D02*
D03*
X251890Y198655D02*
D03*
X234890Y246984D02*
D03*
X75424Y542976D02*
D03*
X225445Y225220D02*
D03*
X438755Y637672D02*
D03*
X504000Y633320D02*
D03*
X452725Y649517D02*
D03*
X264433Y294960D02*
D03*
X344237Y275709D02*
D03*
X293130Y188921D02*
D03*
X340117Y185767D02*
D03*
X113784Y590549D02*
D03*
X48719Y619835D02*
D03*
X306427Y294960D02*
D03*
X273617Y301294D02*
D03*
X239621Y393633D02*
D03*
X221882Y440750D02*
D03*
X200886Y360573D02*
D03*
X214715Y384802D02*
D03*
X442755Y364921D02*
D03*
X337817Y354323D02*
D03*
X442250Y350181D02*
D03*
X331434Y546084D02*
D03*
X455260Y575086D02*
D03*
X296406Y475920D02*
D03*
X481105Y665150D02*
D03*
X309445Y431249D02*
D03*
X273305Y358386D02*
D03*
X244755Y329146D02*
D03*
X273305D02*
D03*
X368000Y583945D02*
D03*
X273867Y473818D02*
D03*
X291604Y502888D02*
D03*
Y493750D02*
D03*
X356816Y371047D02*
D03*
X357206Y433238D02*
D03*
X124357Y678500D02*
D03*
X105607D02*
D03*
X344117Y176326D02*
D03*
Y194517D02*
D03*
X189445Y296250D02*
D03*
X657411Y330794D02*
D03*
X608174Y319250D02*
D03*
X153515Y446813D02*
D03*
X122890Y430999D02*
D03*
X293683Y431249D02*
D03*
X575931Y374716D02*
D03*
X355631Y407750D02*
D03*
X413363Y444258D02*
D03*
X357206Y441803D02*
D03*
X456745Y432765D02*
D03*
X457548Y441602D02*
D03*
X244755Y358386D02*
D03*
X186000Y565891D02*
D03*
X194511Y567884D02*
D03*
X186000Y572204D02*
D03*
X144375Y360446D02*
D03*
Y338626D02*
D03*
X122195D02*
D03*
Y360446D02*
D03*
X382005Y656445D02*
D03*
X573926Y432765D02*
D03*
X564881Y423495D02*
D03*
X526829Y365317D02*
D03*
X644973Y342862D02*
D03*
X657411Y342587D02*
D03*
X651464Y336507D02*
D03*
X610215Y341400D02*
D03*
X644762Y330794D02*
D03*
X356245Y585116D02*
D03*
X365306Y667487D02*
D03*
X365567Y680808D02*
D03*
X306750Y151250D02*
D03*
Y133059D02*
D03*
X197975Y245671D02*
D03*
X237890Y241504D02*
D03*
X506750Y679250D02*
D03*
X255663Y142111D02*
D03*
X114763Y478621D02*
D03*
X102371Y472271D02*
D03*
Y486646D02*
D03*
X110415Y533860D02*
D03*
X114598Y552091D02*
D03*
X105366D02*
D03*
D136*
X613528Y217490D02*
D03*
X571792Y217293D02*
D03*
X600487Y277334D02*
D03*
X456006Y515454D02*
D03*
X384405Y509309D02*
D03*
X80424Y438727D02*
D03*
X262720Y251064D02*
D03*
M02*
