G04*
G04 #@! TF.GenerationSoftware,Altium Limited,Altium Designer,23.2.1 (34)*
G04*
G04 Layer_Physical_Order=3*
G04 Layer_Color=16440176*
%FSLAX44Y44*%
%MOMM*%
G71*
G04*
G04 #@! TF.SameCoordinates,6C2AB55D-B72B-4B93-AE35-0C838568E6CE*
G04*
G04*
G04 #@! TF.FilePolarity,Positive*
G04*
G01*
G75*
%ADD126C,3.6000*%
%ADD127C,1.3980*%
%ADD128R,1.3980X1.3980*%
%ADD129C,1.0058*%
%ADD130O,1.0000X1.4600*%
%ADD131O,1.0000X1.8000*%
%ADD132R,1.3980X1.3980*%
%ADD133R,1.2000X1.2000*%
%ADD134C,1.2000*%
%ADD135C,0.5080*%
%ADD136C,0.5000*%
G36*
X459241Y689712D02*
X660410D01*
X661027Y688441D01*
X659219Y685737D01*
X657749Y682188D01*
X657000Y678421D01*
Y674579D01*
X657749Y670812D01*
X659219Y667263D01*
X661353Y664070D01*
X664070Y661353D01*
X666411Y659789D01*
Y609805D01*
X505577D01*
X505245Y610301D01*
Y611908D01*
X504630Y613393D01*
X503493Y614530D01*
X502009Y615145D01*
X500401D01*
X498917Y614530D01*
X497780Y613393D01*
X497165Y611908D01*
Y610301D01*
X496833Y609805D01*
X459241D01*
Y578614D01*
X457971Y578088D01*
X457548Y578511D01*
X456064Y579126D01*
X454456D01*
X452971Y578511D01*
X451835Y577374D01*
X451220Y575890D01*
Y574282D01*
X451835Y572797D01*
X452971Y571661D01*
X454456Y571046D01*
X456064D01*
X457548Y571661D01*
X457971Y572084D01*
X459241Y571558D01*
Y519534D01*
X457971Y518969D01*
X456802Y519454D01*
X455210D01*
X453740Y518845D01*
X452615Y517719D01*
X452006Y516249D01*
Y514658D01*
X452615Y513188D01*
X453740Y512063D01*
X455210Y511454D01*
X456802D01*
X457971Y511938D01*
X459241Y511373D01*
Y455000D01*
Y446236D01*
X458352Y445642D01*
X456745D01*
X455260Y445027D01*
X454123Y443891D01*
X453508Y442406D01*
Y440799D01*
X454123Y439314D01*
X455260Y438177D01*
X455724Y437985D01*
X455735Y437926D01*
X455598Y436663D01*
X454456Y436190D01*
X453320Y435053D01*
X452705Y433568D01*
Y431961D01*
X453320Y430476D01*
X454456Y429340D01*
X455941Y428725D01*
X457548D01*
X457971Y428900D01*
X459241Y428051D01*
Y402673D01*
X457971Y401825D01*
X457548Y402000D01*
X455941D01*
X454456Y401385D01*
X453320Y400248D01*
X452705Y398763D01*
Y397156D01*
X453320Y395671D01*
X454456Y394535D01*
X455941Y393920D01*
X457548D01*
X457971Y394095D01*
X459241Y393246D01*
Y324902D01*
X626397Y324902D01*
X627292Y324000D01*
X626113Y180033D01*
X459241Y178580D01*
Y67832D01*
X457149Y67271D01*
X455213Y66154D01*
X453632Y64573D01*
X452514Y62637D01*
X451936Y60478D01*
Y58242D01*
X452514Y56083D01*
X453632Y54147D01*
X455213Y52566D01*
X457149Y51449D01*
X459241Y50888D01*
Y18720D01*
X75567D01*
X74671Y19620D01*
X75054Y128783D01*
X76326Y129307D01*
X76547Y129087D01*
X78031Y128472D01*
X79639D01*
X81123Y129087D01*
X82260Y130224D01*
X82875Y131708D01*
Y133316D01*
X82260Y134801D01*
X81123Y135937D01*
X79639Y136552D01*
X78031D01*
X76547Y135937D01*
X76349Y135739D01*
X75081Y136267D01*
X75444Y239694D01*
X76846Y240275D01*
X77983Y241412D01*
X78598Y242897D01*
Y244504D01*
X77983Y245989D01*
X76846Y247125D01*
X75472Y247694D01*
X75526Y263040D01*
X76646Y263504D01*
X77783Y264640D01*
X78398Y266125D01*
Y267732D01*
X77783Y269217D01*
X76646Y270354D01*
X75553Y270806D01*
X75638Y295075D01*
X76846Y295575D01*
X77983Y296712D01*
X78598Y298196D01*
Y299804D01*
X77983Y301289D01*
X76846Y302425D01*
X75666Y302914D01*
X75697Y311639D01*
X76863Y312122D01*
X78000Y313258D01*
X78615Y314743D01*
Y316350D01*
X78000Y317835D01*
X76863Y318972D01*
X75724Y319444D01*
X75777Y334558D01*
X77063Y335091D01*
X78200Y336227D01*
X78815Y337712D01*
Y339320D01*
X78200Y340804D01*
X77063Y341941D01*
X75805Y342462D01*
X75859Y357903D01*
X76863Y358319D01*
X78000Y359456D01*
X78615Y360941D01*
Y362548D01*
X78000Y364033D01*
X76863Y365169D01*
X75886Y365574D01*
X75937Y380221D01*
X77046Y380681D01*
X78183Y381817D01*
X78798Y383302D01*
Y384909D01*
X78183Y386394D01*
X77046Y387531D01*
X75965Y387979D01*
X76003Y398990D01*
X77069Y399432D01*
X78206Y400568D01*
X78821Y402053D01*
Y403661D01*
X78206Y405145D01*
X77069Y406282D01*
X76030Y406712D01*
X76100Y426486D01*
X77046Y426878D01*
X78183Y428015D01*
X78798Y429499D01*
Y431107D01*
X78183Y432592D01*
X77046Y433728D01*
X76127Y434109D01*
X76132Y435572D01*
X77404Y436091D01*
X78158Y435336D01*
X79629Y434728D01*
X81220D01*
X82690Y435336D01*
X83815Y436462D01*
X84424Y437932D01*
Y439523D01*
X83815Y440993D01*
X82690Y442118D01*
X81220Y442728D01*
X79629D01*
X78158Y442118D01*
X77422Y441382D01*
X76154Y441910D01*
X76182Y449831D01*
X76846Y450107D01*
X77983Y451243D01*
X78598Y452728D01*
Y454335D01*
X79042Y455000D01*
X213086D01*
X213495Y454012D01*
X214632Y452875D01*
X216117Y452260D01*
X217724D01*
X219209Y452875D01*
X220345Y454012D01*
X220754Y455000D01*
X340289D01*
Y689712D01*
X340408Y690000D01*
X341895D01*
X342325Y688963D01*
X343461Y687827D01*
X344946Y687212D01*
X346553D01*
X348038Y687827D01*
X349175Y688963D01*
X349604Y690000D01*
X459241D01*
Y689712D01*
D02*
G37*
G36*
X200992Y636047D02*
X200234Y635540D01*
X198627D01*
X197142Y634925D01*
X196006Y633789D01*
X195390Y632304D01*
Y630697D01*
X196006Y629212D01*
X197142Y628075D01*
X198627Y627460D01*
X200234D01*
X200992Y626954D01*
Y623356D01*
X199936Y622650D01*
X199536Y622816D01*
X197929D01*
X196444Y622201D01*
X195308Y621064D01*
X194693Y619579D01*
Y617972D01*
X195308Y616487D01*
X196444Y615351D01*
X197929Y614736D01*
X199536D01*
X199936Y614901D01*
X200992Y614196D01*
Y544717D01*
X200240D01*
X198755Y544102D01*
X197618Y542966D01*
X197003Y541481D01*
Y539874D01*
X197618Y538389D01*
X198755Y537252D01*
X200240Y536637D01*
X200992D01*
Y507897D01*
X200526Y507585D01*
X198918D01*
X197434Y506970D01*
X196297Y505833D01*
X195682Y504348D01*
Y502741D01*
X196297Y501256D01*
X197434Y500120D01*
X198788Y499559D01*
X198856Y498924D01*
X198788Y498289D01*
X197434Y497728D01*
X196297Y496591D01*
X195682Y495107D01*
Y493499D01*
X196297Y492015D01*
X197434Y490878D01*
X198918Y490263D01*
X200526D01*
X200992Y489951D01*
Y467420D01*
X64423D01*
X63574Y468690D01*
X63834Y469318D01*
Y470925D01*
X63219Y472410D01*
X62083Y473546D01*
X60598Y474161D01*
X58991D01*
X57506Y473546D01*
X56369Y472410D01*
X55754Y470925D01*
Y469318D01*
X56014Y468690D01*
X55166Y467420D01*
X39455D01*
X38606Y468690D01*
X38866Y469318D01*
Y470925D01*
X38251Y472410D01*
X37114Y473546D01*
X35629Y474161D01*
X34022D01*
X32537Y473546D01*
X31401Y472410D01*
X30786Y470925D01*
Y469318D01*
X31046Y468690D01*
X30197Y467420D01*
X17500D01*
Y649622D01*
X83427D01*
X84264Y648667D01*
X84176Y648000D01*
Y643400D01*
X84400Y641703D01*
X85055Y640122D01*
X86096Y638764D01*
X87454Y637723D01*
X89035Y637068D01*
X90732Y636844D01*
X92429Y637068D01*
X94010Y637723D01*
X95368Y638764D01*
X96410Y640122D01*
X97065Y641703D01*
X97288Y643400D01*
Y648000D01*
X97200Y648667D01*
X98038Y649622D01*
X131927D01*
X132764Y648667D01*
X132676Y648000D01*
Y643400D01*
X132900Y641703D01*
X133554Y640122D01*
X134596Y638764D01*
X135954Y637723D01*
X137535Y637068D01*
X139232Y636844D01*
X140929Y637068D01*
X142510Y637723D01*
X143868Y638764D01*
X144910Y640122D01*
X145565Y641703D01*
X145788Y643400D01*
Y648000D01*
X145701Y648667D01*
X146538Y649622D01*
X200992D01*
Y636047D01*
D02*
G37*
G36*
X322000Y602116D02*
X248867D01*
X248867Y537050D01*
X301892Y537050D01*
Y471555D01*
X299490D01*
X299024Y472825D01*
X299831Y473632D01*
X300446Y475116D01*
Y476724D01*
X299831Y478209D01*
X298694Y479345D01*
X297209Y479960D01*
X295602D01*
X294117Y479345D01*
X292981Y478209D01*
X292366Y476724D01*
Y475116D01*
X292981Y473632D01*
X293788Y472825D01*
X293322Y471555D01*
X278445D01*
X277740Y472611D01*
X277907Y473014D01*
Y474621D01*
X277292Y476106D01*
X276155Y477243D01*
X274671Y477858D01*
X273063D01*
X271579Y477243D01*
X270442Y476106D01*
X269827Y474621D01*
Y473014D01*
X269994Y472611D01*
X269289Y471555D01*
X205000D01*
Y539673D01*
X205083Y539874D01*
Y541481D01*
X205000Y541682D01*
Y602116D01*
Y685672D01*
X322000D01*
Y602116D01*
D02*
G37*
G36*
X337033Y541153D02*
Y476611D01*
Y463461D01*
X307750D01*
Y541153D01*
X258118D01*
X258000Y541271D01*
Y598602D01*
X337033D01*
Y541153D01*
D02*
G37*
G36*
X688999Y330354D02*
X636485Y329500D01*
X614497D01*
X614169Y329990D01*
Y331598D01*
X613554Y333082D01*
X612417Y334219D01*
X610933Y334834D01*
X609325D01*
X607841Y334219D01*
X607131Y333509D01*
X606579Y333124D01*
X605496Y333484D01*
X605017Y333964D01*
X603532Y334579D01*
X601925D01*
X600440Y333964D01*
X599303Y332827D01*
X598688Y331342D01*
Y330770D01*
X597516Y329500D01*
X545105Y329500D01*
X476891Y329500D01*
X475993Y330398D01*
X476086Y595277D01*
X688999Y595278D01*
Y330354D01*
D02*
G37*
%LPC*%
G36*
X507554Y683290D02*
X505946D01*
X504462Y682675D01*
X503325Y681538D01*
X502710Y680054D01*
Y678446D01*
X503325Y676962D01*
X504462Y675825D01*
X505946Y675210D01*
X507554D01*
X509039Y675825D01*
X510175Y676962D01*
X510790Y678446D01*
Y680054D01*
X510175Y681538D01*
X509039Y682675D01*
X507554Y683290D01*
D02*
G37*
G36*
X415559Y670527D02*
X413951D01*
X412467Y669912D01*
X411330Y668775D01*
X410715Y667290D01*
Y665683D01*
X411330Y664198D01*
X412467Y663062D01*
X413951Y662447D01*
X415559D01*
X417043Y663062D01*
X418180Y664198D01*
X418795Y665683D01*
Y667290D01*
X418180Y668775D01*
X417043Y669912D01*
X415559Y670527D01*
D02*
G37*
G36*
X504967Y669190D02*
X503360D01*
X501875Y668575D01*
X500738Y667438D01*
X500123Y665953D01*
Y664346D01*
X500738Y662861D01*
X501875Y661725D01*
X503360Y661110D01*
X504967D01*
X506452Y661725D01*
X507588Y662861D01*
X508203Y664346D01*
Y665953D01*
X507588Y667438D01*
X506452Y668575D01*
X504967Y669190D01*
D02*
G37*
G36*
X481909D02*
X480301D01*
X478816Y668575D01*
X477680Y667438D01*
X477065Y665953D01*
Y664346D01*
X477680Y662861D01*
X478816Y661725D01*
X480301Y661110D01*
X481909D01*
X483394Y661725D01*
X484530Y662861D01*
X485145Y664346D01*
Y665953D01*
X484530Y667438D01*
X483394Y668575D01*
X481909Y669190D01*
D02*
G37*
G36*
X382809Y660485D02*
X381201D01*
X379716Y659870D01*
X378580Y658733D01*
X377965Y657249D01*
Y655641D01*
X378580Y654156D01*
X379716Y653020D01*
X381201Y652405D01*
X382809D01*
X384293Y653020D01*
X385430Y654156D01*
X386045Y655641D01*
Y657249D01*
X385430Y658733D01*
X384293Y659870D01*
X382809Y660485D01*
D02*
G37*
G36*
X504967Y653557D02*
X503360D01*
X501875Y652942D01*
X500738Y651806D01*
X500123Y650321D01*
Y648714D01*
X500738Y647229D01*
X501875Y646092D01*
X503360Y645477D01*
X504967D01*
X506452Y646092D01*
X507588Y647229D01*
X508203Y648714D01*
Y650321D01*
X507588Y651806D01*
X506452Y652942D01*
X504967Y653557D01*
D02*
G37*
G36*
X453529D02*
X451921D01*
X450437Y652942D01*
X449300Y651806D01*
X448685Y650321D01*
Y648714D01*
X449300Y647229D01*
X450437Y646092D01*
X451921Y645477D01*
X453529D01*
X455013Y646092D01*
X456150Y647229D01*
X456765Y648714D01*
Y650321D01*
X456150Y651806D01*
X455013Y652942D01*
X453529Y653557D01*
D02*
G37*
G36*
X523157Y627599D02*
X521550D01*
X520065Y626983D01*
X518929Y625847D01*
X518314Y624362D01*
Y622755D01*
X518929Y621270D01*
X520065Y620134D01*
X521550Y619519D01*
X523157D01*
X524642Y620134D01*
X525779Y621270D01*
X526394Y622755D01*
Y624362D01*
X525779Y625847D01*
X524642Y626983D01*
X523157Y627599D01*
D02*
G37*
G36*
X561022Y625613D02*
X559415D01*
X557930Y624998D01*
X556793Y623862D01*
X556178Y622377D01*
Y620770D01*
X556793Y619285D01*
X557930Y618148D01*
X559415Y617533D01*
X561022D01*
X562507Y618148D01*
X563643Y619285D01*
X564258Y620770D01*
Y622377D01*
X563643Y623862D01*
X562507Y624998D01*
X561022Y625613D01*
D02*
G37*
G36*
X453529Y622797D02*
X451921D01*
X450437Y622182D01*
X449300Y621045D01*
X448685Y619560D01*
Y617953D01*
X449300Y616468D01*
X450437Y615332D01*
X451921Y614717D01*
X453529D01*
X455013Y615332D01*
X456150Y616468D01*
X456765Y617953D01*
Y619560D01*
X456150Y621045D01*
X455013Y622182D01*
X453529Y622797D01*
D02*
G37*
G36*
X431538Y614929D02*
X429930D01*
X428445Y614314D01*
X427309Y613177D01*
X426694Y611693D01*
Y610085D01*
X427309Y608601D01*
X428445Y607464D01*
X429930Y606849D01*
X431538D01*
X433022Y607464D01*
X434159Y608601D01*
X434774Y610085D01*
Y610085D01*
Y611693D01*
X434159Y613177D01*
X433022Y614314D01*
X431538Y614929D01*
D02*
G37*
G36*
X368804Y587985D02*
X367196D01*
X365712Y587370D01*
X364575Y586234D01*
X363960Y584749D01*
Y583142D01*
X364575Y581657D01*
X365712Y580520D01*
X367196Y579905D01*
X368804D01*
X370289Y580520D01*
X371425Y581657D01*
X372040Y583142D01*
Y584749D01*
X371425Y586234D01*
X370289Y587370D01*
X368804Y587985D01*
D02*
G37*
G36*
X385201Y513309D02*
X383610D01*
X382140Y512700D01*
X381014Y511575D01*
X380405Y510105D01*
Y508514D01*
X381014Y507043D01*
X382140Y505918D01*
X383610Y505309D01*
X385201D01*
X386671Y505918D01*
X387796Y507043D01*
X388405Y508514D01*
Y510105D01*
X387796Y511575D01*
X386671Y512700D01*
X385201Y513309D01*
D02*
G37*
G36*
X386709Y496040D02*
X385102D01*
X383617Y495425D01*
X382639Y494447D01*
X381905Y494358D01*
X381171Y494447D01*
X380194Y495425D01*
X378709Y496040D01*
X377102D01*
X375617Y495425D01*
X374480Y494288D01*
X373865Y492804D01*
Y491196D01*
X374480Y489712D01*
X375617Y488575D01*
X377102Y487960D01*
X378709D01*
X380194Y488575D01*
X381171Y489553D01*
X381905Y489642D01*
X382639Y489553D01*
X383617Y488575D01*
X385102Y487960D01*
X386709D01*
X388194Y488575D01*
X389330Y489712D01*
X389945Y491196D01*
Y492804D01*
X389330Y494288D01*
X388194Y495425D01*
X386709Y496040D01*
D02*
G37*
G36*
X222686Y444790D02*
X221079D01*
X219594Y444175D01*
X218457Y443039D01*
X217842Y441554D01*
Y439947D01*
X218457Y438462D01*
X219594Y437325D01*
X221079Y436710D01*
X222686D01*
X224171Y437325D01*
X225307Y438462D01*
X225922Y439947D01*
Y441554D01*
X225307Y443039D01*
X224171Y444175D01*
X222686Y444790D01*
D02*
G37*
G36*
X358009Y445843D02*
X356402D01*
X354917Y445228D01*
X353781Y444091D01*
X353166Y442607D01*
Y440999D01*
X353781Y439514D01*
X354917Y438378D01*
X355328Y438208D01*
Y436833D01*
X354917Y436663D01*
X353781Y435526D01*
X353166Y434041D01*
Y432434D01*
X353781Y430949D01*
X354917Y429813D01*
X356402Y429198D01*
X358009D01*
X359494Y429813D01*
X360631Y430949D01*
X361246Y432434D01*
Y434041D01*
X360631Y435526D01*
X359494Y436663D01*
X359083Y436833D01*
Y438208D01*
X359494Y438378D01*
X360631Y439514D01*
X361246Y440999D01*
Y442607D01*
X360631Y444091D01*
X359494Y445228D01*
X358009Y445843D01*
D02*
G37*
G36*
X310249Y435289D02*
X308641D01*
X307157Y434673D01*
X306020Y433537D01*
X305405Y432052D01*
Y430445D01*
X306020Y428960D01*
X307157Y427823D01*
X308641Y427209D01*
X310249D01*
X311734Y427823D01*
X312870Y428960D01*
X313485Y430445D01*
Y432052D01*
X312870Y433537D01*
X311734Y434673D01*
X310249Y435289D01*
D02*
G37*
G36*
X294487D02*
X292880D01*
X291395Y434673D01*
X290259Y433537D01*
X289643Y432052D01*
Y430445D01*
X290259Y428960D01*
X291395Y427823D01*
X292880Y427209D01*
X294487D01*
X295972Y427823D01*
X297108Y428960D01*
X297723Y430445D01*
Y432052D01*
X297108Y433537D01*
X295972Y434673D01*
X294487Y435289D01*
D02*
G37*
G36*
X123694Y435039D02*
X122086D01*
X120602Y434424D01*
X119465Y433288D01*
X118850Y431803D01*
Y430196D01*
X119465Y428711D01*
X120602Y427574D01*
X122086Y426959D01*
X123694D01*
X125178Y427574D01*
X126315Y428711D01*
X126930Y430196D01*
Y431803D01*
X126315Y433288D01*
X125178Y434424D01*
X123694Y435039D01*
D02*
G37*
G36*
X82249Y421040D02*
X80641D01*
X79157Y420425D01*
X78020Y419289D01*
X77405Y417804D01*
Y416197D01*
X78020Y414712D01*
X79157Y413575D01*
X80641Y412960D01*
X82249D01*
X83734Y413575D01*
X84870Y414712D01*
X85485Y416197D01*
Y417804D01*
X84870Y419289D01*
X83734Y420425D01*
X82249Y421040D01*
D02*
G37*
G36*
X356434Y411790D02*
X354827D01*
X353342Y411175D01*
X352206Y410039D01*
X351591Y408554D01*
Y406946D01*
X352206Y405462D01*
X353342Y404325D01*
X354827Y403710D01*
X356434D01*
X357919Y404325D01*
X359055Y405462D01*
X359671Y406946D01*
Y408554D01*
X359055Y410039D01*
X357919Y411175D01*
X356434Y411790D01*
D02*
G37*
G36*
X150834Y409278D02*
X149226D01*
X147741Y408663D01*
X146605Y407527D01*
X145990Y406042D01*
Y404435D01*
X146605Y402950D01*
X147741Y401813D01*
X149226Y401198D01*
X150834D01*
X152318Y401813D01*
X153455Y402950D01*
X154070Y404435D01*
Y406042D01*
X153455Y407527D01*
X152318Y408663D01*
X150834Y409278D01*
D02*
G37*
G36*
X190454Y408918D02*
X188847D01*
X187362Y408303D01*
X186225Y407166D01*
X185610Y405682D01*
Y404074D01*
X186225Y402589D01*
X187362Y401453D01*
X188847Y400838D01*
X190454D01*
X191939Y401453D01*
X193075Y402589D01*
X193690Y404074D01*
Y405682D01*
X193075Y407166D01*
X191939Y408303D01*
X190454Y408918D01*
D02*
G37*
G36*
X175122D02*
X173514D01*
X172030Y408303D01*
X170893Y407166D01*
X170278Y405682D01*
Y404074D01*
X170893Y402589D01*
X172030Y401453D01*
X173514Y400838D01*
X175122D01*
X176607Y401453D01*
X177743Y402589D01*
X178358Y404074D01*
Y405682D01*
X177743Y407166D01*
X176607Y408303D01*
X175122Y408918D01*
D02*
G37*
G36*
X280680Y406922D02*
X279073D01*
X277588Y406307D01*
X276452Y405171D01*
X275837Y403686D01*
Y402079D01*
X276452Y400594D01*
X277588Y399457D01*
X279073Y398842D01*
X280680D01*
X282165Y399457D01*
X283302Y400594D01*
X283917Y402079D01*
Y403686D01*
X283302Y405171D01*
X282165Y406307D01*
X280680Y406922D01*
D02*
G37*
G36*
X271748Y401540D02*
X270141D01*
X268656Y400925D01*
X267520Y399789D01*
X266905Y398304D01*
Y396697D01*
X267520Y395212D01*
X268656Y394075D01*
X270141Y393460D01*
X271748D01*
X273233Y394075D01*
X274369Y395212D01*
X274984Y396697D01*
Y398304D01*
X274369Y399789D01*
X273233Y400925D01*
X271748Y401540D01*
D02*
G37*
G36*
X240425Y397673D02*
X238818D01*
X237333Y397058D01*
X236196Y395921D01*
X235581Y394436D01*
Y392829D01*
X236196Y391344D01*
X237333Y390208D01*
X238818Y389593D01*
X240425D01*
X241910Y390208D01*
X243046Y391344D01*
X243661Y392829D01*
Y394436D01*
X243046Y395921D01*
X241910Y397058D01*
X240425Y397673D01*
D02*
G37*
G36*
X443559Y393797D02*
X441951D01*
X440466Y393182D01*
X439330Y392046D01*
X438715Y390561D01*
Y388954D01*
X439330Y387469D01*
X440466Y386333D01*
X441951Y385718D01*
X443559D01*
X445043Y386333D01*
X446180Y387469D01*
X446795Y388954D01*
Y390561D01*
X446180Y392046D01*
X445043Y393182D01*
X443559Y393797D01*
D02*
G37*
G36*
X178249Y392091D02*
X176641D01*
X175156Y391475D01*
X174020Y390339D01*
X173405Y388854D01*
Y387247D01*
X174020Y385762D01*
X175156Y384626D01*
X176641Y384011D01*
X178249D01*
X179733Y384626D01*
X180870Y385762D01*
X181485Y387247D01*
Y388854D01*
X180870Y390339D01*
X179733Y391475D01*
X178249Y392091D01*
D02*
G37*
G36*
X215518Y388842D02*
X213911D01*
X212426Y388227D01*
X211290Y387090D01*
X210675Y385605D01*
Y383998D01*
X211290Y382513D01*
X212426Y381377D01*
X213911Y380762D01*
X215518D01*
X217003Y381377D01*
X218140Y382513D01*
X218755Y383998D01*
Y385605D01*
X218140Y387090D01*
X217003Y388227D01*
X215518Y388842D01*
D02*
G37*
G36*
X357619Y375087D02*
X356012D01*
X354527Y374472D01*
X353391Y373336D01*
X352776Y371851D01*
Y370244D01*
X353391Y368759D01*
X354527Y367622D01*
X356012Y367007D01*
X357619D01*
X359104Y367622D01*
X360241Y368759D01*
X360856Y370244D01*
Y371851D01*
X360241Y373336D01*
X359104Y374472D01*
X357619Y375087D01*
D02*
G37*
G36*
X443559Y368961D02*
X441951D01*
X440466Y368346D01*
X439330Y367209D01*
X438715Y365724D01*
Y364117D01*
X439330Y362632D01*
X440466Y361496D01*
X441951Y360881D01*
X443559D01*
X445043Y361496D01*
X446180Y362632D01*
X446795Y364117D01*
Y365724D01*
X446180Y367209D01*
X445043Y368346D01*
X443559Y368961D01*
D02*
G37*
G36*
X201690Y364613D02*
X200083D01*
X198598Y363998D01*
X197461Y362861D01*
X196846Y361376D01*
Y359769D01*
X197461Y358284D01*
X198598Y357148D01*
X200083Y356533D01*
X201690D01*
X203175Y357148D01*
X204311Y358284D01*
X204926Y359769D01*
Y361376D01*
X204311Y362861D01*
X203175Y363998D01*
X201690Y364613D01*
D02*
G37*
G36*
X145179Y364486D02*
X143572D01*
X142087Y363871D01*
X140950Y362734D01*
X140335Y361250D01*
Y359642D01*
X140950Y358158D01*
X142087Y357021D01*
X143572Y356406D01*
X145179D01*
X146664Y357021D01*
X147800Y358158D01*
X148415Y359642D01*
Y361250D01*
X147800Y362734D01*
X146664Y363871D01*
X145179Y364486D01*
D02*
G37*
G36*
X122998D02*
X121391D01*
X119906Y363871D01*
X118770Y362734D01*
X118155Y361250D01*
Y359642D01*
X118770Y358158D01*
X119906Y357021D01*
X121391Y356406D01*
X122998D01*
X124483Y357021D01*
X125620Y358158D01*
X126235Y359642D01*
Y361250D01*
X125620Y362734D01*
X124483Y363871D01*
X122998Y364486D01*
D02*
G37*
G36*
X274109Y362426D02*
X272501D01*
X271017Y361811D01*
X269880Y360675D01*
X269265Y359190D01*
Y357583D01*
X269880Y356098D01*
X271017Y354961D01*
X272501Y354346D01*
X274109D01*
X275593Y354961D01*
X276730Y356098D01*
X277345Y357583D01*
Y359190D01*
X276730Y360675D01*
X275593Y361811D01*
X274109Y362426D01*
D02*
G37*
G36*
X245558D02*
X243951D01*
X242466Y361811D01*
X241330Y360675D01*
X240715Y359190D01*
Y357583D01*
X241330Y356098D01*
X242466Y354961D01*
X243951Y354346D01*
X245558D01*
X247043Y354961D01*
X248180Y356098D01*
X248795Y357583D01*
Y359190D01*
X248180Y360675D01*
X247043Y361811D01*
X245558Y362426D01*
D02*
G37*
G36*
X338621Y358363D02*
X337014D01*
X335529Y357748D01*
X334392Y356611D01*
X333777Y355127D01*
Y353519D01*
X334392Y352034D01*
X335529Y350898D01*
X337014Y350283D01*
X338621D01*
X340106Y350898D01*
X341242Y352034D01*
X341857Y353519D01*
Y355127D01*
X341242Y356611D01*
X340106Y357748D01*
X338621Y358363D01*
D02*
G37*
G36*
X443054Y354221D02*
X441446D01*
X439962Y353606D01*
X438825Y352470D01*
X438210Y350985D01*
Y349378D01*
X438825Y347893D01*
X439962Y346756D01*
X441446Y346141D01*
X443054D01*
X444538Y346756D01*
X445675Y347893D01*
X446290Y349378D01*
Y350985D01*
X445675Y352470D01*
X444538Y353606D01*
X443054Y354221D01*
D02*
G37*
G36*
X145179Y342666D02*
X143572D01*
X142087Y342051D01*
X140950Y340914D01*
X140335Y339430D01*
Y337822D01*
X140950Y336337D01*
X142087Y335201D01*
X143572Y334586D01*
X145179D01*
X146664Y335201D01*
X147800Y336337D01*
X148415Y337822D01*
Y339430D01*
X147800Y340914D01*
X146664Y342051D01*
X145179Y342666D01*
D02*
G37*
G36*
X122998D02*
X121391D01*
X119906Y342051D01*
X118770Y340914D01*
X118155Y339430D01*
Y337822D01*
X118770Y336337D01*
X119906Y335201D01*
X121391Y334586D01*
X122998D01*
X124483Y335201D01*
X125620Y336337D01*
X126235Y337822D01*
Y339430D01*
X125620Y340914D01*
X124483Y342051D01*
X122998Y342666D01*
D02*
G37*
G36*
X339184Y342001D02*
X337577D01*
X336092Y341386D01*
X334956Y340249D01*
X334341Y338764D01*
Y337157D01*
X334956Y335672D01*
X336092Y334536D01*
X337577Y333921D01*
X339184D01*
X340669Y334536D01*
X341806Y335672D01*
X342421Y337157D01*
Y338764D01*
X341806Y340249D01*
X340669Y341386D01*
X339184Y342001D01*
D02*
G37*
G36*
X311303D02*
X309696D01*
X308211Y341386D01*
X307075Y340249D01*
X306460Y338764D01*
Y337157D01*
X307075Y335672D01*
X308211Y334536D01*
X309696Y333921D01*
X311303D01*
X312788Y334536D01*
X313925Y335672D01*
X314540Y337157D01*
Y338764D01*
X313925Y340249D01*
X312788Y341386D01*
X311303Y342001D01*
D02*
G37*
G36*
X274109Y333186D02*
X272501D01*
X271017Y332571D01*
X269880Y331435D01*
X269265Y329950D01*
Y328343D01*
X269880Y326858D01*
X271017Y325721D01*
X272501Y325106D01*
X274109D01*
X275593Y325721D01*
X276730Y326858D01*
X277345Y328343D01*
Y329950D01*
X276730Y331435D01*
X275593Y332571D01*
X274109Y333186D01*
D02*
G37*
G36*
X245558D02*
X243951D01*
X242466Y332571D01*
X241330Y331435D01*
X240715Y329950D01*
Y328343D01*
X241330Y326858D01*
X242466Y325721D01*
X243951Y325106D01*
X245558D01*
X247043Y325721D01*
X248180Y326858D01*
X248795Y328343D01*
Y329950D01*
X248180Y331435D01*
X247043Y332571D01*
X245558Y333186D01*
D02*
G37*
G36*
X471304Y323290D02*
X469696D01*
X468212Y322675D01*
X467075Y321539D01*
X466460Y320054D01*
Y318446D01*
X467075Y316961D01*
X468212Y315825D01*
X469696Y315210D01*
X471304D01*
X472789Y315825D01*
X473925Y316961D01*
X474540Y318446D01*
Y320054D01*
X473925Y321539D01*
X472789Y322675D01*
X471304Y323290D01*
D02*
G37*
G36*
X402672Y317580D02*
X401217Y317190D01*
X399606Y316261D01*
X398292Y314946D01*
X397362Y313336D01*
X396972Y311880D01*
X402672D01*
Y317580D01*
D02*
G37*
G36*
X384209Y318000D02*
X382602D01*
X381117Y317385D01*
X379980Y316248D01*
X379365Y314764D01*
Y313156D01*
X379980Y311672D01*
X381117Y310535D01*
X382602Y309920D01*
X384209D01*
X385694Y310535D01*
X386830Y311672D01*
X387445Y313156D01*
Y314764D01*
X386830Y316248D01*
X385694Y317385D01*
X384209Y318000D01*
D02*
G37*
G36*
X340769Y326653D02*
X339162D01*
X337677Y326038D01*
X336540Y324902D01*
X335925Y323417D01*
Y321810D01*
X336540Y320325D01*
X337595Y319270D01*
X337587Y318668D01*
X337402Y317927D01*
X336092Y317385D01*
X334956Y316248D01*
X334341Y314764D01*
Y313156D01*
X334956Y311672D01*
X336092Y310535D01*
X337577Y309920D01*
X339184D01*
X340669Y310535D01*
X341806Y311672D01*
X342421Y313156D01*
Y314764D01*
X341806Y316248D01*
X340751Y317303D01*
X340760Y317906D01*
X340944Y318646D01*
X342254Y319188D01*
X343390Y320325D01*
X344005Y321810D01*
Y323417D01*
X343390Y324902D01*
X342254Y326038D01*
X340769Y326653D01*
D02*
G37*
G36*
X274420Y305334D02*
X272813D01*
X271328Y304719D01*
X270192Y303582D01*
X269577Y302097D01*
Y300490D01*
X270192Y299005D01*
X271328Y297869D01*
X272813Y297254D01*
X274420D01*
X275905Y297869D01*
X277042Y299005D01*
X277657Y300490D01*
Y302097D01*
X277042Y303582D01*
X275905Y304719D01*
X274420Y305334D01*
D02*
G37*
G36*
X86253Y303040D02*
X84646D01*
X83161Y302425D01*
X82025Y301289D01*
X81410Y299804D01*
Y298196D01*
X82025Y296712D01*
X83161Y295575D01*
X84646Y294960D01*
X86253D01*
X87738Y295575D01*
X88875Y296712D01*
X89490Y298196D01*
Y299804D01*
X88875Y301289D01*
X87738Y302425D01*
X86253Y303040D01*
D02*
G37*
G36*
X190249Y300290D02*
X188641D01*
X187156Y299675D01*
X186020Y298538D01*
X185405Y297054D01*
Y295446D01*
X186020Y293962D01*
X187156Y292825D01*
X188641Y292210D01*
X190249D01*
X191733Y292825D01*
X192870Y293962D01*
X193485Y295446D01*
Y297054D01*
X192870Y298538D01*
X191733Y299675D01*
X190249Y300290D01*
D02*
G37*
G36*
X307230Y299000D02*
X305623D01*
X304138Y298385D01*
X303002Y297249D01*
X302387Y295764D01*
Y294157D01*
X303002Y292672D01*
X304138Y291535D01*
X305623Y290920D01*
X307230D01*
X308715Y291535D01*
X309852Y292672D01*
X310467Y294157D01*
Y295764D01*
X309852Y297249D01*
X308715Y298385D01*
X307230Y299000D01*
D02*
G37*
G36*
X265237D02*
X263630D01*
X262145Y298385D01*
X261008Y297249D01*
X260394Y295764D01*
Y294157D01*
X261008Y292672D01*
X262145Y291535D01*
X263630Y290920D01*
X265237D01*
X266722Y291535D01*
X267858Y292672D01*
X268473Y294157D01*
Y295764D01*
X267858Y297249D01*
X266722Y298385D01*
X265237Y299000D01*
D02*
G37*
G36*
X601283Y281334D02*
X599692D01*
X598222Y280725D01*
X597096Y279599D01*
X596487Y278129D01*
Y276538D01*
X597096Y275068D01*
X598222Y273943D01*
X599692Y273334D01*
X601283D01*
X602753Y273943D01*
X603878Y275068D01*
X604487Y276538D01*
Y278129D01*
X603878Y279599D01*
X602753Y280725D01*
X601283Y281334D01*
D02*
G37*
G36*
X317635Y274186D02*
X316028D01*
X314543Y273571D01*
X313407Y272435D01*
X313302Y272181D01*
X312056Y271933D01*
X311734Y272256D01*
X310249Y272871D01*
X308641D01*
X307157Y272256D01*
X306020Y271120D01*
X305405Y269635D01*
Y268028D01*
X306020Y266543D01*
X307157Y265406D01*
X308641Y264791D01*
X310249D01*
X311734Y265406D01*
X312870Y266543D01*
X312975Y266796D01*
X314221Y267044D01*
X314543Y266721D01*
X316028Y266106D01*
X317635D01*
X319120Y266721D01*
X320257Y267858D01*
X320872Y269342D01*
Y270950D01*
X320257Y272435D01*
X319120Y273571D01*
X317635Y274186D01*
D02*
G37*
G36*
X360155Y279749D02*
X358548D01*
X357063Y279134D01*
X355927Y277998D01*
X355312Y276513D01*
Y274906D01*
X355927Y273421D01*
X357063Y272285D01*
X358548Y271669D01*
X360155D01*
X361640Y272285D01*
X362777Y273421D01*
X363392Y274906D01*
Y276513D01*
X362777Y277998D01*
X361640Y279134D01*
X360155Y279749D01*
D02*
G37*
G36*
X184074Y278012D02*
X182466D01*
X180981Y277397D01*
X179845Y276261D01*
X179230Y274776D01*
Y273169D01*
X179845Y271684D01*
X180981Y270547D01*
X182466Y269932D01*
X184074D01*
X185558Y270547D01*
X186695Y271684D01*
X187310Y273169D01*
Y274776D01*
X186695Y276261D01*
X185558Y277397D01*
X184074Y278012D01*
D02*
G37*
G36*
X182013Y266134D02*
X180406D01*
X178921Y265519D01*
X177784Y264383D01*
X177169Y262898D01*
Y261291D01*
X177784Y259806D01*
X178921Y258669D01*
X180406Y258054D01*
X182013D01*
X183498Y258669D01*
X184634Y259806D01*
X185249Y261291D01*
Y262898D01*
X184634Y264383D01*
X183498Y265519D01*
X182013Y266134D01*
D02*
G37*
G36*
X225363Y264203D02*
X223755D01*
X222271Y263588D01*
X221134Y262451D01*
X220519Y260966D01*
Y259359D01*
X221134Y257874D01*
X222271Y256738D01*
X223755Y256123D01*
X225363D01*
X226847Y256738D01*
X227984Y257874D01*
X228599Y259359D01*
Y260966D01*
X227984Y262451D01*
X226847Y263588D01*
X225363Y264203D01*
D02*
G37*
G36*
X405212Y317580D02*
Y310610D01*
X403942D01*
Y309340D01*
X396972D01*
X397362Y307885D01*
X398292Y306275D01*
X399606Y304960D01*
X400080Y304686D01*
Y303220D01*
X399933Y303135D01*
X398717Y301919D01*
X397858Y300430D01*
X397413Y298770D01*
Y297051D01*
X397858Y295390D01*
X398717Y293901D01*
X399933Y292686D01*
X400612Y292293D01*
Y290827D01*
X399933Y290435D01*
X398717Y289219D01*
X397858Y287730D01*
X397413Y286070D01*
Y284351D01*
X397858Y282690D01*
X398717Y281201D01*
X399933Y279986D01*
X400612Y279593D01*
Y278127D01*
X399933Y277735D01*
X398717Y276519D01*
X397858Y275030D01*
X397413Y273370D01*
Y271651D01*
X397858Y269990D01*
X398717Y268501D01*
X399933Y267285D01*
X400612Y266893D01*
Y265427D01*
X399933Y265035D01*
X398717Y263819D01*
X397858Y262330D01*
X397413Y260670D01*
Y258951D01*
X397858Y257290D01*
X398717Y255801D01*
X399933Y254585D01*
X401422Y253726D01*
X403082Y253281D01*
X404802D01*
X406462Y253726D01*
X407951Y254585D01*
X409167Y255801D01*
X409559Y256480D01*
X411025D01*
X411417Y255801D01*
X412633Y254585D01*
X414122Y253726D01*
X415782Y253281D01*
X417502D01*
X419162Y253726D01*
X420651Y254585D01*
X421867Y255801D01*
X422726Y257290D01*
X423171Y258951D01*
Y260670D01*
X422726Y262330D01*
X421867Y263819D01*
X420651Y265035D01*
X419972Y265427D01*
Y266893D01*
X420651Y267285D01*
X421867Y268501D01*
X422726Y269990D01*
X423171Y271651D01*
Y273370D01*
X422726Y275030D01*
X421867Y276519D01*
X420651Y277735D01*
X419972Y278127D01*
Y279593D01*
X420651Y279986D01*
X421867Y281201D01*
X422726Y282690D01*
X423171Y284351D01*
Y286070D01*
X422726Y287730D01*
X421867Y289219D01*
X420651Y290435D01*
X419972Y290827D01*
Y292293D01*
X420651Y292686D01*
X421867Y293901D01*
X422726Y295390D01*
X423171Y297051D01*
Y298770D01*
X422726Y300430D01*
X421867Y301919D01*
X420651Y303135D01*
X419972Y303527D01*
Y304993D01*
X420651Y305385D01*
X421867Y306601D01*
X422726Y308090D01*
X423171Y309751D01*
Y311470D01*
X422726Y313130D01*
X421867Y314619D01*
X420651Y315835D01*
X419162Y316694D01*
X417502Y317139D01*
X415782D01*
X414122Y316694D01*
X412633Y315835D01*
X411417Y314619D01*
X411332Y314472D01*
X409866D01*
X409592Y314946D01*
X408278Y316261D01*
X406668Y317190D01*
X405212Y317580D01*
D02*
G37*
G36*
X263516Y255064D02*
X261925D01*
X260455Y254455D01*
X259329Y253330D01*
X258720Y251860D01*
Y250268D01*
X259329Y248798D01*
X260455Y247673D01*
X261925Y247064D01*
X263516D01*
X264986Y247673D01*
X266111Y248798D01*
X266720Y250268D01*
Y251860D01*
X266111Y253330D01*
X264986Y254455D01*
X263516Y255064D01*
D02*
G37*
G36*
X387709Y253537D02*
X386101D01*
X384617Y252922D01*
X383480Y251785D01*
X382865Y250300D01*
Y248693D01*
X383480Y247208D01*
X384617Y246072D01*
X386101Y245457D01*
X387709D01*
X389193Y246072D01*
X390330Y247208D01*
X390945Y248693D01*
Y250300D01*
X390330Y251785D01*
X389193Y252922D01*
X387709Y253537D01*
D02*
G37*
G36*
X189253Y253507D02*
X187646D01*
X186161Y252892D01*
X185024Y251756D01*
X184409Y250271D01*
Y248664D01*
X185024Y247179D01*
X186161Y246042D01*
X187646Y245427D01*
X189253D01*
X190738Y246042D01*
X191874Y247179D01*
X192489Y248664D01*
Y250271D01*
X191874Y251756D01*
X190738Y252892D01*
X189253Y253507D01*
D02*
G37*
G36*
X198779Y249711D02*
X197171D01*
X195687Y249096D01*
X194550Y247960D01*
X193935Y246475D01*
Y244867D01*
X194550Y243383D01*
X195687Y242246D01*
X197171Y241631D01*
X198779D01*
X200264Y242246D01*
X201400Y243383D01*
X202015Y244867D01*
Y246475D01*
X201400Y247960D01*
X200264Y249096D01*
X198779Y249711D01*
D02*
G37*
G36*
X146033Y247633D02*
X144426D01*
X142941Y247018D01*
X141805Y245881D01*
X141190Y244396D01*
Y242789D01*
X141805Y241304D01*
X142941Y240168D01*
X144426Y239553D01*
X146033D01*
X147518Y240168D01*
X148655Y241304D01*
X149270Y242789D01*
Y244396D01*
X148655Y245881D01*
X147518Y247018D01*
X146033Y247633D01*
D02*
G37*
G36*
X276496Y245544D02*
X274889D01*
X273404Y244929D01*
X272267Y243793D01*
X271652Y242308D01*
Y240701D01*
X272267Y239216D01*
X273404Y238079D01*
X274889Y237464D01*
X276496D01*
X277981Y238079D01*
X279117Y239216D01*
X279732Y240701D01*
Y242308D01*
X279117Y243793D01*
X277981Y244929D01*
X276496Y245544D01*
D02*
G37*
G36*
X235693Y251024D02*
X234086D01*
X232601Y250409D01*
X231465Y249272D01*
X230850Y247787D01*
Y246180D01*
X231465Y244695D01*
X232601Y243559D01*
X234086Y242944D01*
X234103Y242919D01*
X233850Y242308D01*
Y240701D01*
X234465Y239216D01*
X235602Y238079D01*
X237086Y237464D01*
X238694D01*
X240178Y238079D01*
X241315Y239216D01*
X241930Y240701D01*
Y242308D01*
X241315Y243793D01*
X240178Y244929D01*
X238694Y245544D01*
X238677Y245569D01*
X238930Y246180D01*
Y247787D01*
X238315Y249272D01*
X237178Y250409D01*
X235693Y251024D01*
D02*
G37*
G36*
X428667Y241936D02*
X427059D01*
X425575Y241321D01*
X424438Y240185D01*
X423823Y238700D01*
Y237093D01*
X424438Y235608D01*
X425575Y234471D01*
X427059Y233857D01*
X428667D01*
X430151Y234471D01*
X431288Y235608D01*
X431903Y237093D01*
Y238700D01*
X431288Y240185D01*
X430151Y241321D01*
X428667Y241936D01*
D02*
G37*
G36*
X325288Y238499D02*
X323680D01*
X322195Y237884D01*
X321059Y236748D01*
X320444Y235263D01*
Y233655D01*
X321059Y232171D01*
X322195Y231034D01*
X323680Y230419D01*
X325288D01*
X326772Y231034D01*
X327909Y232171D01*
X328524Y233655D01*
Y235263D01*
X327909Y236748D01*
X326772Y237884D01*
X325288Y238499D01*
D02*
G37*
G36*
X142323Y230056D02*
X140716D01*
X139231Y229441D01*
X138095Y228304D01*
X137480Y226819D01*
Y225212D01*
X138095Y223727D01*
X139231Y222591D01*
X140716Y221976D01*
X142323D01*
X143808Y222591D01*
X144945Y223727D01*
X145560Y225212D01*
Y226819D01*
X144945Y228304D01*
X143808Y229441D01*
X142323Y230056D01*
D02*
G37*
G36*
X226248Y229260D02*
X224641D01*
X223156Y228645D01*
X222020Y227509D01*
X221405Y226024D01*
Y224416D01*
X222020Y222932D01*
X223156Y221795D01*
X224641Y221180D01*
X226248D01*
X227733Y221795D01*
X228870Y222932D01*
X229485Y224416D01*
Y226024D01*
X228870Y227509D01*
X227733Y228645D01*
X226248Y229260D01*
D02*
G37*
G36*
X290550Y225499D02*
X288942D01*
X287458Y224884D01*
X286321Y223748D01*
X285706Y222263D01*
Y220656D01*
X286321Y219171D01*
X287458Y218034D01*
X288942Y217419D01*
X290550D01*
X292034Y218034D01*
X293171Y219171D01*
X293786Y220656D01*
Y222263D01*
X293171Y223748D01*
X292034Y224884D01*
X290550Y225499D01*
D02*
G37*
G36*
X614324Y221490D02*
X612733D01*
X611262Y220881D01*
X610137Y219756D01*
X609528Y218285D01*
Y216694D01*
X610137Y215224D01*
X611262Y214099D01*
X612733Y213490D01*
X614324D01*
X615794Y214099D01*
X616919Y215224D01*
X617528Y216694D01*
Y218285D01*
X616919Y219756D01*
X615794Y220881D01*
X614324Y221490D01*
D02*
G37*
G36*
X572587Y221293D02*
X570996D01*
X569526Y220684D01*
X568400Y219559D01*
X567792Y218089D01*
Y216497D01*
X568400Y215027D01*
X569526Y213902D01*
X570996Y213293D01*
X572587D01*
X574057Y213902D01*
X575183Y215027D01*
X575792Y216497D01*
Y218089D01*
X575183Y219559D01*
X574057Y220684D01*
X572587Y221293D01*
D02*
G37*
G36*
X252694Y202695D02*
X251086D01*
X249602Y202080D01*
X248465Y200944D01*
X247850Y199459D01*
Y197852D01*
X248465Y196367D01*
X249602Y195230D01*
X251086Y194615D01*
X252694D01*
X254179Y195230D01*
X255315Y196367D01*
X255930Y197852D01*
Y199459D01*
X255315Y200944D01*
X254179Y202080D01*
X252694Y202695D01*
D02*
G37*
G36*
X135749Y193757D02*
X134142D01*
X132657Y193142D01*
X131520Y192006D01*
X130905Y190521D01*
Y188913D01*
X131520Y187428D01*
X132657Y186292D01*
X134142Y185677D01*
X135749D01*
X137234Y186292D01*
X138370Y187428D01*
X138985Y188913D01*
Y190521D01*
X138370Y192006D01*
X137234Y193142D01*
X135749Y193757D01*
D02*
G37*
G36*
X293934Y192961D02*
X292326D01*
X290842Y192346D01*
X289705Y191210D01*
X289090Y189725D01*
Y188118D01*
X289705Y186633D01*
X290842Y185496D01*
X292326Y184881D01*
X293934D01*
X295418Y185496D01*
X296555Y186633D01*
X297170Y188118D01*
Y189725D01*
X296555Y191210D01*
X295418Y192346D01*
X293934Y192961D01*
D02*
G37*
G36*
X256128Y191757D02*
X254521D01*
X253036Y191142D01*
X251900Y190005D01*
X251285Y188521D01*
Y186913D01*
X251900Y185429D01*
X253036Y184292D01*
X254521Y183677D01*
X256128D01*
X257489Y184240D01*
X257878Y184029D01*
X258514Y183397D01*
X258227Y182704D01*
Y181097D01*
X258842Y179612D01*
X259978Y178475D01*
X261463Y177860D01*
X263071D01*
X264555Y178475D01*
X265692Y179612D01*
X266307Y181097D01*
Y182704D01*
X265692Y184189D01*
X264555Y185325D01*
X263071Y185940D01*
X261463D01*
X260103Y185377D01*
X259713Y185589D01*
X259078Y186221D01*
X259365Y186913D01*
Y188521D01*
X258750Y190005D01*
X257613Y191142D01*
X256128Y191757D01*
D02*
G37*
G36*
X176625Y146960D02*
X175018D01*
X173533Y146345D01*
X172396Y145209D01*
X171781Y143724D01*
Y142116D01*
X172396Y140632D01*
X173533Y139495D01*
X175018Y138880D01*
X176625D01*
X178110Y139495D01*
X179246Y140632D01*
X179861Y142116D01*
Y143724D01*
X179246Y145209D01*
X178110Y146345D01*
X176625Y146960D01*
D02*
G37*
G36*
X256467Y146151D02*
X254860D01*
X253375Y145536D01*
X252239Y144400D01*
X251623Y142915D01*
Y141308D01*
X252239Y139823D01*
X253375Y138686D01*
X254860Y138071D01*
X256467D01*
X257952Y138686D01*
X259088Y139823D01*
X259703Y141308D01*
Y142915D01*
X259088Y144400D01*
X257952Y145536D01*
X256467Y146151D01*
D02*
G37*
G36*
X188443Y138440D02*
X186836D01*
X185351Y137825D01*
X184215Y136689D01*
X183600Y135204D01*
Y133597D01*
X184215Y132112D01*
X185351Y130975D01*
X186836Y130360D01*
X188443D01*
X189928Y130975D01*
X191065Y132112D01*
X191680Y133597D01*
Y135204D01*
X191065Y136689D01*
X189928Y137825D01*
X188443Y138440D01*
D02*
G37*
G36*
X223510Y120210D02*
X221903D01*
X220418Y119594D01*
X219282Y118458D01*
X218667Y116973D01*
Y115366D01*
X219282Y113881D01*
X220418Y112745D01*
X221903Y112129D01*
X223510D01*
X224995Y112745D01*
X226132Y113881D01*
X226747Y115366D01*
Y116973D01*
X226132Y118458D01*
X224995Y119594D01*
X223510Y120210D01*
D02*
G37*
G36*
X410337Y117624D02*
X408730D01*
X407245Y117009D01*
X406108Y115872D01*
X405493Y114387D01*
Y112780D01*
X406108Y111295D01*
X407245Y110159D01*
X408730Y109544D01*
X410337D01*
X411822Y110159D01*
X412958Y111295D01*
X413573Y112780D01*
Y114387D01*
X412958Y115872D01*
X411822Y117009D01*
X410337Y117624D01*
D02*
G37*
G36*
X200944D02*
X199336D01*
X197852Y117009D01*
X196715Y115872D01*
X196100Y114387D01*
Y112780D01*
X196715Y111295D01*
X197852Y110159D01*
X199336Y109544D01*
X200944D01*
X202429Y110159D01*
X203565Y111295D01*
X204180Y112780D01*
Y114387D01*
X203565Y115872D01*
X202429Y117009D01*
X200944Y117624D01*
D02*
G37*
G36*
X293934Y112624D02*
X292326D01*
X290842Y112009D01*
X289705Y110873D01*
X289090Y109388D01*
Y107781D01*
X289705Y106296D01*
X290842Y105159D01*
X292326Y104544D01*
X293934D01*
X295418Y105159D01*
X296555Y106296D01*
X297170Y107781D01*
Y109388D01*
X296555Y110873D01*
X295418Y112009D01*
X293934Y112624D01*
D02*
G37*
G36*
X212693Y98198D02*
X211086D01*
X209601Y97583D01*
X208465Y96447D01*
X207850Y94962D01*
Y93354D01*
X208465Y91869D01*
X209601Y90733D01*
X211086Y90118D01*
X212693D01*
X214178Y90733D01*
X215315Y91869D01*
X215930Y93354D01*
Y94962D01*
X215315Y96447D01*
X214178Y97583D01*
X212693Y98198D01*
D02*
G37*
G36*
X181217Y97944D02*
X179610D01*
X178125Y97329D01*
X176989Y96193D01*
X176374Y94708D01*
Y93100D01*
X176989Y91615D01*
X178125Y90479D01*
X179610Y89864D01*
X181217D01*
X182702Y90479D01*
X183839Y91615D01*
X184454Y93100D01*
Y94708D01*
X183839Y96193D01*
X182702Y97329D01*
X181217Y97944D01*
D02*
G37*
G36*
X205891Y84040D02*
X204284D01*
X202799Y83425D01*
X201663Y82289D01*
X201048Y80804D01*
Y79196D01*
X201663Y77712D01*
X202799Y76575D01*
X204284Y75960D01*
X205891D01*
X207376Y76575D01*
X208513Y77712D01*
X209128Y79196D01*
Y80804D01*
X208513Y82289D01*
X207376Y83425D01*
X205891Y84040D01*
D02*
G37*
G36*
X183878D02*
X182271D01*
X180786Y83425D01*
X179649Y82289D01*
X179034Y80804D01*
Y79196D01*
X179649Y77712D01*
X180786Y76575D01*
X182271Y75960D01*
X183878D01*
X185362Y76575D01*
X186499Y77712D01*
X187114Y79196D01*
Y80804D01*
X186499Y82289D01*
X185362Y83425D01*
X183878Y84040D01*
D02*
G37*
G36*
X335184Y68428D02*
X327432D01*
Y60676D01*
X335184D01*
Y68428D01*
D02*
G37*
G36*
X324892D02*
X317140D01*
Y60676D01*
X324892D01*
Y68428D01*
D02*
G37*
G36*
X301880Y67896D02*
X299644D01*
X297485Y67318D01*
X295549Y66200D01*
X293968Y64619D01*
X292851Y62683D01*
X292272Y60524D01*
Y58288D01*
X292851Y56129D01*
X293968Y54193D01*
X295549Y52613D01*
X297485Y51495D01*
X299644Y50916D01*
X301880D01*
X304039Y51495D01*
X305975Y52613D01*
X307556Y54193D01*
X308673Y56129D01*
X309252Y58288D01*
Y60524D01*
X308673Y62683D01*
X307556Y64619D01*
X305975Y66200D01*
X304039Y67318D01*
X301880Y67896D01*
D02*
G37*
G36*
X276480D02*
X274244D01*
X272085Y67318D01*
X270149Y66200D01*
X268568Y64619D01*
X267451Y62683D01*
X266872Y60524D01*
Y58288D01*
X267451Y56129D01*
X268568Y54193D01*
X270149Y52613D01*
X272085Y51495D01*
X274244Y50916D01*
X276480D01*
X278639Y51495D01*
X280575Y52613D01*
X282156Y54193D01*
X283273Y56129D01*
X283852Y58288D01*
Y60524D01*
X283273Y62683D01*
X282156Y64619D01*
X280575Y66200D01*
X278639Y67318D01*
X276480Y67896D01*
D02*
G37*
G36*
X251080D02*
X248844D01*
X246685Y67318D01*
X244749Y66200D01*
X243168Y64619D01*
X242051Y62683D01*
X241472Y60524D01*
Y58288D01*
X242051Y56129D01*
X243168Y54193D01*
X244749Y52613D01*
X246685Y51495D01*
X248844Y50916D01*
X251080D01*
X253239Y51495D01*
X255175Y52613D01*
X256756Y54193D01*
X257873Y56129D01*
X258452Y58288D01*
Y60524D01*
X257873Y62683D01*
X256756Y64619D01*
X255175Y66200D01*
X253239Y67318D01*
X251080Y67896D01*
D02*
G37*
G36*
X436143Y67850D02*
X433908D01*
X431749Y67271D01*
X429813Y66154D01*
X428232Y64573D01*
X427114Y62637D01*
X426536Y60478D01*
Y58242D01*
X427114Y56083D01*
X428232Y54147D01*
X429813Y52566D01*
X431749Y51449D01*
X433908Y50870D01*
X436143D01*
X438303Y51449D01*
X440239Y52566D01*
X441819Y54147D01*
X442937Y56083D01*
X443516Y58242D01*
Y60478D01*
X442937Y62637D01*
X441819Y64573D01*
X440239Y66154D01*
X438303Y67271D01*
X436143Y67850D01*
D02*
G37*
G36*
X410743D02*
X408508D01*
X406349Y67271D01*
X404413Y66154D01*
X402832Y64573D01*
X401714Y62637D01*
X401136Y60478D01*
Y58242D01*
X401714Y56083D01*
X402832Y54147D01*
X404413Y52566D01*
X406349Y51449D01*
X408508Y50870D01*
X410743D01*
X412903Y51449D01*
X414839Y52566D01*
X416419Y54147D01*
X417537Y56083D01*
X418116Y58242D01*
Y60478D01*
X417537Y62637D01*
X416419Y64573D01*
X414839Y66154D01*
X412903Y67271D01*
X410743Y67850D01*
D02*
G37*
G36*
X385343D02*
X383108D01*
X380949Y67271D01*
X379013Y66154D01*
X377432Y64573D01*
X376314Y62637D01*
X375736Y60478D01*
Y58242D01*
X376314Y56083D01*
X377432Y54147D01*
X379013Y52566D01*
X380949Y51449D01*
X383108Y50870D01*
X385343D01*
X387503Y51449D01*
X389439Y52566D01*
X391019Y54147D01*
X392137Y56083D01*
X392716Y58242D01*
Y60478D01*
X392137Y62637D01*
X391019Y64573D01*
X389439Y66154D01*
X387503Y67271D01*
X385343Y67850D01*
D02*
G37*
G36*
X335184Y58136D02*
X327432D01*
Y50384D01*
X335184D01*
Y58136D01*
D02*
G37*
G36*
X324892D02*
X317140D01*
Y50384D01*
X324892D01*
Y58136D01*
D02*
G37*
G36*
X49522Y623875D02*
X47915D01*
X46430Y623259D01*
X45294Y622123D01*
X44679Y620638D01*
Y619031D01*
X45294Y617546D01*
X46430Y616409D01*
X47915Y615794D01*
X49522D01*
X51007Y616409D01*
X52144Y617546D01*
X52759Y619031D01*
Y620638D01*
X52144Y622123D01*
X51007Y623259D01*
X49522Y623875D01*
D02*
G37*
G36*
X114587Y594589D02*
X112980D01*
X111495Y593974D01*
X110359Y592838D01*
X109744Y591353D01*
Y589746D01*
X110359Y588261D01*
X111495Y587124D01*
X112980Y586509D01*
X114587D01*
X116072Y587124D01*
X117209Y588261D01*
X117824Y589746D01*
Y591353D01*
X117209Y592838D01*
X116072Y593974D01*
X114587Y594589D01*
D02*
G37*
G36*
X38029Y588780D02*
X36422D01*
X34937Y588165D01*
X33801Y587028D01*
X33186Y585544D01*
Y583936D01*
X33801Y582451D01*
X34937Y581315D01*
X36422Y580700D01*
X38029D01*
X39514Y581315D01*
X40651Y582451D01*
X41266Y583936D01*
Y585544D01*
X40651Y587028D01*
X39514Y588165D01*
X38029Y588780D01*
D02*
G37*
G36*
X93682Y584926D02*
X92075D01*
X90590Y584311D01*
X89454Y583175D01*
X88839Y581690D01*
Y580083D01*
X89454Y578598D01*
X90590Y577461D01*
X92075Y576846D01*
X93682D01*
X95167Y577461D01*
X96304Y578598D01*
X96919Y580083D01*
Y581690D01*
X96304Y583175D01*
X95167Y584311D01*
X93682Y584926D01*
D02*
G37*
G36*
X71351Y565028D02*
X69744D01*
X68259Y564412D01*
X67122Y563276D01*
X66507Y561791D01*
Y560184D01*
X67122Y558699D01*
X68259Y557563D01*
X69744Y556948D01*
X71351D01*
X72836Y557563D01*
X73972Y558699D01*
X74587Y560184D01*
Y561791D01*
X73972Y563276D01*
X72836Y564412D01*
X71351Y565028D01*
D02*
G37*
G36*
X115401Y556132D02*
X113794D01*
X112309Y555516D01*
X111173Y554380D01*
X110617Y553038D01*
X109982Y552963D01*
X109347Y553038D01*
X108791Y554380D01*
X107655Y555516D01*
X106170Y556132D01*
X104563D01*
X103078Y555516D01*
X101941Y554380D01*
X101326Y552895D01*
Y551288D01*
X101941Y549803D01*
X103078Y548666D01*
X104563Y548051D01*
X106170D01*
X107655Y548666D01*
X108791Y549803D01*
X109347Y551145D01*
X109982Y551220D01*
X110617Y551145D01*
X111173Y549803D01*
X112309Y548666D01*
X113794Y548051D01*
X115401D01*
X116886Y548666D01*
X118023Y549803D01*
X118638Y551288D01*
Y552895D01*
X118023Y554380D01*
X116886Y555516D01*
X115401Y556132D01*
D02*
G37*
G36*
X62213Y553575D02*
X60606D01*
X59121Y552960D01*
X57984Y551824D01*
X57369Y550339D01*
Y548731D01*
X57984Y547247D01*
X59121Y546110D01*
X60606Y545495D01*
X62213D01*
X63698Y546110D01*
X64834Y547247D01*
X65449Y548731D01*
Y550339D01*
X64834Y551824D01*
X63698Y552960D01*
X62213Y553575D01*
D02*
G37*
G36*
X76228Y547016D02*
X74621D01*
X73136Y546401D01*
X72000Y545265D01*
X71384Y543780D01*
Y542172D01*
X72000Y540687D01*
X73136Y539551D01*
X74621Y538936D01*
X76228D01*
X77713Y539551D01*
X78849Y540687D01*
X79464Y542172D01*
Y543780D01*
X78849Y545265D01*
X77713Y546401D01*
X76228Y547016D01*
D02*
G37*
G36*
X64536Y544366D02*
X62929D01*
X61444Y543751D01*
X60307Y542615D01*
X59692Y541130D01*
Y539523D01*
X60307Y538038D01*
X61444Y536902D01*
X62929Y536287D01*
X64536D01*
X66021Y536902D01*
X67157Y538038D01*
X67772Y539523D01*
Y541130D01*
X67157Y542615D01*
X66021Y543751D01*
X64536Y544366D01*
D02*
G37*
G36*
X135941Y540752D02*
X134334D01*
X132850Y540137D01*
X131713Y539001D01*
X131098Y537516D01*
Y535909D01*
X131713Y534424D01*
X132850Y533288D01*
X134334Y532673D01*
X135941D01*
X137426Y533288D01*
X138563Y534424D01*
X139178Y535909D01*
Y537516D01*
X138563Y539001D01*
X137426Y540137D01*
X135941Y540752D01*
D02*
G37*
G36*
X111219Y537900D02*
X109612D01*
X108127Y537285D01*
X106990Y536149D01*
X106375Y534664D01*
Y533056D01*
X106990Y531572D01*
X108127Y530435D01*
X109612Y529820D01*
X111219D01*
X112704Y530435D01*
X113840Y531572D01*
X114455Y533056D01*
Y534664D01*
X113840Y536149D01*
X112704Y537285D01*
X111219Y537900D01*
D02*
G37*
G36*
X84396Y526804D02*
X82788D01*
X81304Y526189D01*
X80167Y525052D01*
X79552Y523567D01*
Y521960D01*
X80167Y520475D01*
X81304Y519339D01*
X82788Y518724D01*
X84396D01*
X85880Y519339D01*
X87017Y520475D01*
X87632Y521960D01*
Y523567D01*
X87017Y525052D01*
X85880Y526189D01*
X84396Y526804D01*
D02*
G37*
G36*
X296852Y661962D02*
X295245D01*
X293760Y661347D01*
X292623Y660210D01*
X292008Y658726D01*
Y657118D01*
X292623Y655633D01*
X293760Y654497D01*
X295245Y653882D01*
X296852D01*
X298337Y654497D01*
X299473Y655633D01*
X300088Y657118D01*
Y658726D01*
X299473Y660210D01*
X298337Y661347D01*
X296852Y661962D01*
D02*
G37*
G36*
X230652Y635861D02*
Y629156D01*
X237357D01*
X236867Y630986D01*
X235809Y632818D01*
X234314Y634313D01*
X232482Y635371D01*
X230652Y635861D01*
D02*
G37*
G36*
X228112D02*
X226282Y635371D01*
X224450Y634313D01*
X222955Y632818D01*
X221898Y630986D01*
X221407Y629156D01*
X228112D01*
Y635861D01*
D02*
G37*
G36*
X256882Y635386D02*
X241882D01*
Y620386D01*
X256882D01*
Y635386D01*
D02*
G37*
G36*
X237357Y626616D02*
X230652D01*
Y619911D01*
X232482Y620402D01*
X234314Y621459D01*
X235809Y622954D01*
X236867Y624786D01*
X237357Y626616D01*
D02*
G37*
G36*
X228112D02*
X221407D01*
X221898Y624786D01*
X222955Y622954D01*
X224450Y621459D01*
X226282Y620402D01*
X228112Y619911D01*
Y626616D01*
D02*
G37*
G36*
X240186Y614146D02*
X238579D01*
X237094Y613531D01*
X235957Y612395D01*
X235342Y610910D01*
Y609303D01*
X235957Y607818D01*
X237094Y606681D01*
X238579Y606066D01*
X240186D01*
X241671Y606681D01*
X242807Y607818D01*
X243422Y609303D01*
Y610910D01*
X242807Y612395D01*
X241671Y613531D01*
X240186Y614146D01*
D02*
G37*
G36*
X229198D02*
X227591D01*
X226106Y613531D01*
X224970Y612395D01*
X224355Y610910D01*
Y609303D01*
X224970Y607818D01*
X226106Y606681D01*
X227591Y606066D01*
X229198D01*
X230683Y606681D01*
X231820Y607818D01*
X232435Y609303D01*
Y610910D01*
X231820Y612395D01*
X230683Y613531D01*
X229198Y614146D01*
D02*
G37*
G36*
X217724Y544252D02*
X216117D01*
X214632Y543637D01*
X213495Y542500D01*
X212880Y541015D01*
Y539408D01*
X213495Y537923D01*
X214632Y536787D01*
X216117Y536172D01*
X217724D01*
X219209Y536787D01*
X220345Y537923D01*
X220960Y539408D01*
Y541015D01*
X220345Y542500D01*
X219209Y543637D01*
X217724Y544252D01*
D02*
G37*
G36*
X211480Y526943D02*
X209873D01*
X208388Y526328D01*
X207251Y525191D01*
X206636Y523707D01*
Y522099D01*
X207251Y520615D01*
X208388Y519478D01*
X209437Y519043D01*
Y517690D01*
X208388Y517255D01*
X207251Y516119D01*
X206636Y514634D01*
Y513026D01*
X207251Y511541D01*
X208388Y510405D01*
X209873Y509790D01*
X211480D01*
X212965Y510405D01*
X214101Y511541D01*
X214716Y513026D01*
Y514634D01*
X214101Y516119D01*
X212965Y517255D01*
X211915Y517690D01*
Y519043D01*
X212965Y519478D01*
X214101Y520615D01*
X214716Y522099D01*
Y523707D01*
X214101Y525191D01*
X212965Y526328D01*
X211480Y526943D01*
D02*
G37*
G36*
Y507585D02*
X209873D01*
X208388Y506970D01*
X207251Y505833D01*
X206636Y504348D01*
Y502741D01*
X207251Y501256D01*
X208388Y500120D01*
X209873Y499505D01*
X211480D01*
X212965Y500120D01*
X214101Y501256D01*
X214716Y502741D01*
Y504348D01*
X214101Y505833D01*
X212965Y506970D01*
X211480Y507585D01*
D02*
G37*
G36*
Y498060D02*
X209873D01*
X208388Y497445D01*
X207251Y496309D01*
X206636Y494824D01*
Y493216D01*
X207251Y491732D01*
X208388Y490595D01*
X209873Y489980D01*
X211480D01*
X212965Y490595D01*
X214101Y491732D01*
X214716Y493216D01*
Y494824D01*
X214101Y496309D01*
X212965Y497445D01*
X211480Y498060D01*
D02*
G37*
G36*
X292407Y506928D02*
X290800D01*
X289315Y506313D01*
X288179Y505176D01*
X287564Y503692D01*
Y502084D01*
X288179Y500600D01*
X289315Y499463D01*
X290520Y498964D01*
Y497675D01*
X289315Y497175D01*
X288179Y496039D01*
X287564Y494554D01*
Y492947D01*
X288179Y491462D01*
X289315Y490326D01*
X290800Y489711D01*
X292407D01*
X293892Y490326D01*
X295029Y491462D01*
X295644Y492947D01*
Y494554D01*
X295029Y496039D01*
X293892Y497175D01*
X292687Y497675D01*
Y498964D01*
X293892Y499463D01*
X295029Y500600D01*
X295644Y502084D01*
Y503692D01*
X295029Y505176D01*
X293892Y506313D01*
X292407Y506928D01*
D02*
G37*
G36*
X218724Y487790D02*
X217117D01*
X215632Y487175D01*
X214495Y486039D01*
X213880Y484554D01*
Y482947D01*
X214495Y481462D01*
X215632Y480326D01*
X217117Y479711D01*
X218724D01*
X220209Y480326D01*
X221345Y481462D01*
X221960Y482947D01*
Y484554D01*
X221345Y486039D01*
X220209Y487175D01*
X218724Y487790D01*
D02*
G37*
G36*
X525034Y539580D02*
X522798D01*
X520639Y539001D01*
X518703Y537884D01*
X517122Y536303D01*
X516004Y534367D01*
X515426Y532208D01*
Y529972D01*
X516004Y527813D01*
X517122Y525877D01*
X518703Y524296D01*
X520639Y523179D01*
X522798Y522600D01*
X525034D01*
X527193Y523179D01*
X529129Y524296D01*
X530710Y525877D01*
X531827Y527813D01*
X532406Y529972D01*
Y532208D01*
X531827Y534367D01*
X530710Y536303D01*
X529129Y537884D01*
X527193Y539001D01*
X525034Y539580D01*
D02*
G37*
G36*
Y514180D02*
X522798D01*
X520639Y513601D01*
X518703Y512484D01*
X517122Y510903D01*
X516004Y508967D01*
X515426Y506808D01*
Y504572D01*
X516004Y502413D01*
X517122Y500477D01*
X518703Y498896D01*
X520639Y497779D01*
X522798Y497200D01*
X525034D01*
X527193Y497779D01*
X529129Y498896D01*
X530710Y500477D01*
X531827Y502413D01*
X532406Y504572D01*
Y506808D01*
X531827Y508967D01*
X530710Y510903D01*
X529129Y512484D01*
X527193Y513601D01*
X525034Y514180D01*
D02*
G37*
G36*
X532938Y489312D02*
X525186D01*
Y481560D01*
X532938D01*
Y489312D01*
D02*
G37*
G36*
X522646D02*
X514894D01*
Y481560D01*
X522646D01*
Y489312D01*
D02*
G37*
G36*
X532938Y479020D02*
X525186D01*
Y471268D01*
X532938D01*
Y479020D01*
D02*
G37*
G36*
X522646D02*
X514894D01*
Y471268D01*
X522646D01*
Y479020D01*
D02*
G37*
G36*
X647554Y460398D02*
X645947D01*
X644462Y459783D01*
X643325Y458646D01*
X642710Y457161D01*
Y455554D01*
X643325Y454069D01*
X644462Y452933D01*
X645947Y452318D01*
X647554D01*
X649039Y452933D01*
X650175Y454069D01*
X650790Y455554D01*
Y457161D01*
X650175Y458646D01*
X649039Y459783D01*
X647554Y460398D01*
D02*
G37*
G36*
X501637Y454108D02*
X500030D01*
X498545Y453493D01*
X497409Y452356D01*
X496794Y450872D01*
Y449264D01*
X497409Y447780D01*
X498545Y446643D01*
X500030Y446028D01*
X501637D01*
X503122Y446643D01*
X504259Y447780D01*
X504874Y449264D01*
Y450872D01*
X504259Y452356D01*
X503122Y453493D01*
X501637Y454108D01*
D02*
G37*
G36*
X574730Y436805D02*
X573122D01*
X571638Y436190D01*
X570501Y435053D01*
X569886Y433568D01*
Y431961D01*
X570501Y430476D01*
X571638Y429340D01*
X573122Y428725D01*
X574730D01*
X576214Y429340D01*
X577351Y430476D01*
X577966Y431961D01*
Y433568D01*
X577351Y435053D01*
X576214Y436190D01*
X574730Y436805D01*
D02*
G37*
G36*
X565684Y427535D02*
X564077D01*
X562592Y426920D01*
X561456Y425784D01*
X560841Y424299D01*
Y422692D01*
X561456Y421207D01*
X562592Y420070D01*
X564077Y419455D01*
X565684D01*
X567169Y420070D01*
X568306Y421207D01*
X568921Y422692D01*
Y424299D01*
X568306Y425784D01*
X567169Y426920D01*
X565684Y427535D01*
D02*
G37*
G36*
X661108Y458724D02*
X659501D01*
X658016Y458109D01*
X656880Y456972D01*
X656265Y455488D01*
Y453880D01*
X656880Y452396D01*
X658016Y451259D01*
X659207Y450766D01*
X659276Y449488D01*
X659272Y449469D01*
X658086Y448977D01*
X656949Y447841D01*
X656334Y446356D01*
Y444749D01*
X656949Y443264D01*
X658086Y442127D01*
X659571Y441512D01*
X659630Y440304D01*
X658145Y439689D01*
X657008Y438552D01*
X656393Y437067D01*
Y435460D01*
X657008Y433975D01*
X658145Y432839D01*
X659630Y432224D01*
Y431015D01*
X658145Y430400D01*
X657008Y429264D01*
X656393Y427779D01*
Y426171D01*
X657008Y424687D01*
X658145Y423550D01*
X658046Y422216D01*
X657953Y422178D01*
X656817Y421042D01*
X656202Y419557D01*
Y417949D01*
X656817Y416465D01*
X657953Y415328D01*
X659438Y414713D01*
X661045D01*
X662530Y415328D01*
X663667Y416465D01*
X664282Y417949D01*
Y419557D01*
X663667Y421042D01*
X662530Y422178D01*
X662629Y423512D01*
X662722Y423550D01*
X663858Y424687D01*
X664473Y426171D01*
Y427779D01*
X663858Y429264D01*
X662722Y430400D01*
X661237Y431015D01*
Y432224D01*
X662722Y432839D01*
X663858Y433975D01*
X664473Y435460D01*
Y437067D01*
X663858Y438552D01*
X662722Y439689D01*
X661237Y440304D01*
X661178Y441512D01*
X662663Y442127D01*
X663799Y443264D01*
X664414Y444749D01*
Y446356D01*
X663799Y447841D01*
X662663Y448977D01*
X661471Y449471D01*
X661403Y450748D01*
X661407Y450768D01*
X662593Y451259D01*
X663730Y452396D01*
X664345Y453880D01*
Y455488D01*
X663730Y456972D01*
X662593Y458109D01*
X661108Y458724D01*
D02*
G37*
G36*
X584566Y408812D02*
X582959D01*
X581474Y408197D01*
X580337Y407061D01*
X579722Y405576D01*
Y403968D01*
X579827Y403717D01*
X578750Y402998D01*
X578551Y403197D01*
X577066Y403812D01*
X575459D01*
X573974Y403197D01*
X573774Y402998D01*
X572698Y403717D01*
X572802Y403968D01*
Y405576D01*
X572187Y407061D01*
X571050Y408197D01*
X569566Y408812D01*
X567958D01*
X566474Y408197D01*
X565337Y407061D01*
X564722Y405576D01*
Y403968D01*
X565337Y402483D01*
X566474Y401347D01*
X567958Y400732D01*
X569566D01*
X571050Y401347D01*
X571250Y401546D01*
X572326Y400827D01*
X572222Y400575D01*
Y398968D01*
X572326Y398718D01*
X571249Y397998D01*
X571050Y398197D01*
X569566Y398812D01*
X567958D01*
X566474Y398197D01*
X565337Y397061D01*
X564722Y395576D01*
Y393968D01*
X565337Y392483D01*
X566474Y391347D01*
X567958Y390732D01*
X569566D01*
X571050Y391347D01*
X572187Y392483D01*
X572802Y393968D01*
Y395576D01*
X572698Y395826D01*
X573775Y396546D01*
X573974Y396347D01*
X575459Y395732D01*
X577066D01*
X578551Y396347D01*
X578749Y396546D01*
X579826Y395826D01*
X579722Y395576D01*
Y393968D01*
X580337Y392483D01*
X581474Y391347D01*
X582959Y390732D01*
X584566D01*
X586051Y391347D01*
X587187Y392483D01*
X587802Y393968D01*
Y395576D01*
X587187Y397061D01*
X586051Y398197D01*
X584566Y398812D01*
X582959D01*
X581474Y398197D01*
X581275Y397998D01*
X580198Y398718D01*
X580302Y398968D01*
Y400575D01*
X580198Y400827D01*
X581275Y401546D01*
X581474Y401347D01*
X582959Y400732D01*
X584566D01*
X586051Y401347D01*
X587187Y402483D01*
X587802Y403968D01*
Y405576D01*
X587187Y407061D01*
X586051Y408197D01*
X584566Y408812D01*
D02*
G37*
G36*
X531943Y408978D02*
X530336D01*
X528851Y408363D01*
X527714Y407226D01*
X527099Y405741D01*
Y404134D01*
X527714Y402649D01*
X528851Y401513D01*
X530336Y400898D01*
X531943D01*
X533428Y401513D01*
X534564Y402649D01*
X535179Y404134D01*
Y405741D01*
X534564Y407226D01*
X533428Y408363D01*
X531943Y408978D01*
D02*
G37*
G36*
X521881D02*
X520274D01*
X518789Y408363D01*
X517653Y407226D01*
X517038Y405741D01*
Y404134D01*
X517653Y402649D01*
X518789Y401513D01*
X520274Y400898D01*
X521881D01*
X523366Y401513D01*
X524503Y402649D01*
X525118Y404134D01*
Y405741D01*
X524503Y407226D01*
X523366Y408363D01*
X521881Y408978D01*
D02*
G37*
G36*
X507849D02*
X506242D01*
X504757Y408363D01*
X503621Y407226D01*
X503006Y405741D01*
Y404134D01*
X503621Y402649D01*
X504757Y401513D01*
X506242Y400898D01*
X507849D01*
X509334Y401513D01*
X510471Y402649D01*
X511086Y404134D01*
Y405741D01*
X510471Y407226D01*
X509334Y408363D01*
X507849Y408978D01*
D02*
G37*
G36*
X485559Y407616D02*
X483951D01*
X482467Y407001D01*
X481330Y405864D01*
X480715Y404379D01*
Y402772D01*
X481330Y401287D01*
X482467Y400151D01*
X483951Y399535D01*
X485559D01*
X487043Y400151D01*
X488180Y401287D01*
X488795Y402772D01*
Y404379D01*
X488180Y405864D01*
X487043Y407001D01*
X485559Y407616D01*
D02*
G37*
G36*
X521881Y399334D02*
X520274D01*
X518789Y398719D01*
X517653Y397582D01*
X517038Y396097D01*
Y394490D01*
X517653Y393005D01*
X518789Y391869D01*
X520274Y391254D01*
X521881D01*
X523366Y391869D01*
X524503Y393005D01*
X525118Y394490D01*
Y396097D01*
X524503Y397582D01*
X523366Y398719D01*
X521881Y399334D01*
D02*
G37*
G36*
X507849D02*
X506242D01*
X504757Y398719D01*
X503621Y397582D01*
X503006Y396097D01*
Y394490D01*
X503621Y393005D01*
X504757Y391869D01*
X506242Y391254D01*
X507849D01*
X509334Y391869D01*
X510471Y393005D01*
X511086Y394490D01*
Y396097D01*
X510471Y397582D01*
X509334Y398719D01*
X507849Y399334D01*
D02*
G37*
G36*
X538133Y395916D02*
X536525D01*
X535041Y395301D01*
X533904Y394164D01*
X533289Y392679D01*
Y391072D01*
X533904Y389587D01*
X535041Y388451D01*
X536525Y387836D01*
X538133D01*
X539618Y388451D01*
X540754Y389587D01*
X541369Y391072D01*
Y392679D01*
X540754Y394164D01*
X539618Y395301D01*
X538133Y395916D01*
D02*
G37*
G36*
X654435Y395227D02*
X652828D01*
X651343Y394612D01*
X650207Y393475D01*
X649592Y391991D01*
Y390383D01*
X650207Y388898D01*
X651343Y387762D01*
X652828Y387147D01*
X654435D01*
X655920Y387762D01*
X657057Y388898D01*
X657672Y390383D01*
Y391991D01*
X657057Y393475D01*
X655920Y394612D01*
X654435Y395227D01*
D02*
G37*
G36*
X623769D02*
X622162D01*
X620677Y394612D01*
X619540Y393475D01*
X618925Y391991D01*
Y390383D01*
X619540Y388898D01*
X620677Y387762D01*
X622162Y387147D01*
X623769D01*
X625254Y387762D01*
X626390Y388898D01*
X627005Y390383D01*
Y391991D01*
X626390Y393475D01*
X625254Y394612D01*
X623769Y395227D01*
D02*
G37*
G36*
X576734Y378756D02*
X575127D01*
X573642Y378141D01*
X572506Y377005D01*
X571891Y375520D01*
Y373913D01*
X572506Y372428D01*
X573642Y371291D01*
X575127Y370676D01*
X576734D01*
X578219Y371291D01*
X579356Y372428D01*
X579971Y373913D01*
Y375520D01*
X579356Y377005D01*
X578219Y378141D01*
X576734Y378756D01*
D02*
G37*
G36*
X633368Y376607D02*
X631761D01*
X630276Y375992D01*
X629140Y374856D01*
X628525Y373371D01*
Y371764D01*
X629140Y370279D01*
X630276Y369142D01*
X631761Y368527D01*
X633368D01*
X634853Y369142D01*
X635990Y370279D01*
X636605Y371764D01*
Y373371D01*
X635990Y374856D01*
X634853Y375992D01*
X633368Y376607D01*
D02*
G37*
G36*
X623030D02*
X621423D01*
X619938Y375992D01*
X618801Y374856D01*
X618186Y373371D01*
Y371764D01*
X618801Y370279D01*
X619938Y369142D01*
X621423Y368527D01*
X623030D01*
X624515Y369142D01*
X625651Y370279D01*
X626266Y371764D01*
Y373371D01*
X625651Y374856D01*
X624515Y375992D01*
X623030Y376607D01*
D02*
G37*
G36*
X612316D02*
X610709D01*
X609224Y375992D01*
X608087Y374856D01*
X607472Y373371D01*
Y371764D01*
X608087Y370279D01*
X609224Y369142D01*
X610709Y368527D01*
X612316D01*
X613801Y369142D01*
X614937Y370279D01*
X615552Y371764D01*
Y373371D01*
X614937Y374856D01*
X613801Y375992D01*
X612316Y376607D01*
D02*
G37*
G36*
X527633Y369357D02*
X526026D01*
X524541Y368742D01*
X523404Y367606D01*
X522789Y366121D01*
Y364514D01*
X523404Y363029D01*
X524541Y361892D01*
X526026Y361277D01*
X527633D01*
X529118Y361892D01*
X530254Y363029D01*
X530869Y364514D01*
Y366121D01*
X530254Y367606D01*
X529118Y368742D01*
X527633Y369357D01*
D02*
G37*
G36*
X633373Y366507D02*
X631766D01*
X630281Y365892D01*
X629144Y364756D01*
X628529Y363271D01*
Y361664D01*
X629144Y360179D01*
X630281Y359042D01*
X631766Y358427D01*
X633373D01*
X634858Y359042D01*
X635994Y360179D01*
X636609Y361664D01*
Y363271D01*
X635994Y364756D01*
X634858Y365892D01*
X633373Y366507D01*
D02*
G37*
G36*
X623089D02*
X621482D01*
X619997Y365892D01*
X618861Y364756D01*
X618246Y363271D01*
Y361664D01*
X618861Y360179D01*
X619997Y359042D01*
X621482Y358427D01*
X623089D01*
X624574Y359042D01*
X625710Y360179D01*
X626326Y361664D01*
Y363271D01*
X625710Y364756D01*
X624574Y365892D01*
X623089Y366507D01*
D02*
G37*
G36*
X612273D02*
X610666D01*
X609181Y365892D01*
X608044Y364756D01*
X607429Y363271D01*
Y361664D01*
X608044Y360179D01*
X609181Y359042D01*
X610666Y358427D01*
X612273D01*
X613758Y359042D01*
X614894Y360179D01*
X615509Y361664D01*
Y363271D01*
X614894Y364756D01*
X613758Y365892D01*
X612273Y366507D01*
D02*
G37*
G36*
X611019Y345440D02*
X609412D01*
X607927Y344825D01*
X607366Y344264D01*
X606536Y343823D01*
X605707Y344264D01*
X605146Y344825D01*
X603661Y345440D01*
X602054D01*
X600569Y344825D01*
X599432Y343688D01*
X598817Y342203D01*
Y340596D01*
X599432Y339111D01*
X600569Y337975D01*
X602054Y337360D01*
X603661D01*
X605146Y337975D01*
X605707Y338535D01*
X606536Y338976D01*
X607366Y338535D01*
X607927Y337975D01*
X609412Y337360D01*
X611019D01*
X612504Y337975D01*
X613640Y339111D01*
X614255Y340596D01*
Y342203D01*
X613640Y343688D01*
X612504Y344825D01*
X611019Y345440D01*
D02*
G37*
%LPD*%
D126*
X676500Y676500D02*
D03*
X23500Y23500D02*
D03*
X676500D02*
D03*
X23500Y676500D02*
D03*
D127*
X409626Y59360D02*
D03*
X435026D02*
D03*
X460426D02*
D03*
X384226D02*
D03*
X249962Y59406D02*
D03*
X275362D02*
D03*
X300762D02*
D03*
X523916Y531090D02*
D03*
Y505690D02*
D03*
X60000Y94412D02*
D03*
Y119812D02*
D03*
Y145212D02*
D03*
D128*
X485826Y59360D02*
D03*
X326162Y59406D02*
D03*
D129*
X416642Y259810D02*
D03*
X403942D02*
D03*
Y285210D02*
D03*
Y272510D02*
D03*
X416642Y285210D02*
D03*
Y272510D02*
D03*
Y297910D02*
D03*
Y310610D02*
D03*
X403942Y297910D02*
D03*
Y310610D02*
D03*
D130*
X90732Y645700D02*
D03*
X139232D02*
D03*
D131*
X73982Y676500D02*
D03*
X155982D02*
D03*
D132*
X523916Y480290D02*
D03*
X60000Y170612D02*
D03*
D133*
X249382Y627886D02*
D03*
D134*
X229382D02*
D03*
D135*
X167270Y43969D02*
D03*
X302335Y138686D02*
D03*
X406462Y326402D02*
D03*
X653632Y391187D02*
D03*
X622965D02*
D03*
X646750Y456358D02*
D03*
X660242Y418753D02*
D03*
X660433Y426975D02*
D03*
Y436264D02*
D03*
X660374Y445552D02*
D03*
X660305Y454684D02*
D03*
X602857Y341400D02*
D03*
X602728Y330539D02*
D03*
X610129Y330794D02*
D03*
X608174Y306263D02*
D03*
X590344D02*
D03*
Y319250D02*
D03*
X600487Y306263D02*
D03*
Y319250D02*
D03*
X148415Y141180D02*
D03*
X165707Y140632D02*
D03*
X148162Y34600D02*
D03*
X165707Y34600D02*
D03*
X427755Y444403D02*
D03*
X435026D02*
D03*
X418586Y326402D02*
D03*
Y345185D02*
D03*
X420651Y444403D02*
D03*
X528156Y466761D02*
D03*
X516803Y466600D02*
D03*
X523916Y460962D02*
D03*
X533692Y461020D02*
D03*
X543265Y460962D02*
D03*
Y469027D02*
D03*
Y478793D02*
D03*
Y488259D02*
D03*
X537329Y391876D02*
D03*
X521078Y395294D02*
D03*
X507046D02*
D03*
X531139Y404938D02*
D03*
X521078D02*
D03*
X507046D02*
D03*
X186000Y551288D02*
D03*
X216920Y540212D02*
D03*
X201043Y540677D02*
D03*
X297787Y560568D02*
D03*
X333155Y555397D02*
D03*
X198733Y618776D02*
D03*
X199431Y631500D02*
D03*
X239382Y610106D02*
D03*
X228395D02*
D03*
X632569Y362467D02*
D03*
X622286D02*
D03*
X611469D02*
D03*
X632565Y372567D02*
D03*
X622226D02*
D03*
X611512D02*
D03*
X210676Y513830D02*
D03*
Y522903D02*
D03*
X199722Y503545D02*
D03*
Y494303D02*
D03*
X210676Y503545D02*
D03*
Y494020D02*
D03*
X11058Y229552D02*
D03*
X34826D02*
D03*
X59794D02*
D03*
X74358Y266929D02*
D03*
X74558Y243700D02*
D03*
X74575Y361744D02*
D03*
X74775Y338516D02*
D03*
X74558Y299000D02*
D03*
X74575Y315547D02*
D03*
X74781Y402857D02*
D03*
X74758Y384105D02*
D03*
Y430303D02*
D03*
X74558Y453531D02*
D03*
X59794Y470121D02*
D03*
X34826D02*
D03*
X11058D02*
D03*
X86280Y528770D02*
D03*
X83592Y522764D02*
D03*
X289746Y221459D02*
D03*
X255325Y187717D02*
D03*
X275692Y241504D02*
D03*
X224559Y260163D02*
D03*
X309445Y268831D02*
D03*
X316832Y270146D02*
D03*
X324484Y234459D02*
D03*
X183270Y273972D02*
D03*
X456745Y397960D02*
D03*
X512250Y623559D02*
D03*
X522354D02*
D03*
X501205Y611105D02*
D03*
X452725Y618757D02*
D03*
X427863Y237896D02*
D03*
X386905Y249497D02*
D03*
X92765Y564136D02*
D03*
X47226Y584740D02*
D03*
X92879Y580886D02*
D03*
X70547Y560988D02*
D03*
X63732Y540326D02*
D03*
X135138Y536712D02*
D03*
X61409Y549535D02*
D03*
X28250Y538485D02*
D03*
X385905Y492000D02*
D03*
X377905D02*
D03*
X383405Y313960D02*
D03*
X338381D02*
D03*
X268268Y194816D02*
D03*
X262267Y181900D02*
D03*
X302335Y145209D02*
D03*
X188449Y249467D02*
D03*
X265599Y241504D02*
D03*
X180414Y93904D02*
D03*
X183074Y80000D02*
D03*
X187640Y134400D02*
D03*
X175821Y142920D02*
D03*
X200140Y113584D02*
D03*
X359352Y275709D02*
D03*
X156776Y34600D02*
D03*
X157207Y136900D02*
D03*
X140000Y262858D02*
D03*
X568762Y394772D02*
D03*
X576262Y399772D02*
D03*
X568762Y404772D02*
D03*
X583762Y394772D02*
D03*
Y404772D02*
D03*
X345750Y691252D02*
D03*
X414755Y666487D02*
D03*
X430734Y610889D02*
D03*
X504163Y649517D02*
D03*
Y665150D02*
D03*
X189650Y404878D02*
D03*
X85450Y299000D02*
D03*
X81445Y417000D02*
D03*
X293130Y108584D02*
D03*
X141520Y226016D02*
D03*
X145230Y243593D02*
D03*
X181209Y262094D02*
D03*
X78835Y132512D02*
D03*
X134945Y189717D02*
D03*
X186000Y558266D02*
D03*
X314479Y467851D02*
D03*
X272193Y518086D02*
D03*
X217920Y483750D02*
D03*
X560218Y621573D02*
D03*
X442755Y389757D02*
D03*
X500834Y450068D02*
D03*
X289215Y460068D02*
D03*
X177445Y388051D02*
D03*
X150030Y405238D02*
D03*
X174318Y404878D02*
D03*
X296048Y657922D02*
D03*
X216920Y456300D02*
D03*
X418586Y336052D02*
D03*
X37226Y584740D02*
D03*
X339965Y322613D02*
D03*
X470500Y319250D02*
D03*
X338381Y337961D02*
D03*
X310500D02*
D03*
X652958Y277780D02*
D03*
X279877Y402882D02*
D03*
X270944Y397500D02*
D03*
X484755Y403576D02*
D03*
X205088Y80000D02*
D03*
X409533Y113584D02*
D03*
X222707Y116170D02*
D03*
X211890Y94158D02*
D03*
X251890Y198655D02*
D03*
X234890Y246984D02*
D03*
X75424Y542976D02*
D03*
X225445Y225220D02*
D03*
X438755Y637672D02*
D03*
X504000Y633320D02*
D03*
X452725Y649517D02*
D03*
X264433Y294960D02*
D03*
X344237Y275709D02*
D03*
X293130Y188921D02*
D03*
X340117Y185767D02*
D03*
X113784Y590549D02*
D03*
X48719Y619835D02*
D03*
X306427Y294960D02*
D03*
X273617Y301294D02*
D03*
X239621Y393633D02*
D03*
X221882Y440750D02*
D03*
X200886Y360573D02*
D03*
X214715Y384802D02*
D03*
X442755Y364921D02*
D03*
X337817Y354323D02*
D03*
X442250Y350181D02*
D03*
X331434Y546084D02*
D03*
X455260Y575086D02*
D03*
X296406Y475920D02*
D03*
X481105Y665150D02*
D03*
X309445Y431249D02*
D03*
X273305Y358386D02*
D03*
X244755Y329146D02*
D03*
X273305D02*
D03*
X368000Y583945D02*
D03*
X273867Y473818D02*
D03*
X291604Y502888D02*
D03*
Y493750D02*
D03*
X356816Y371047D02*
D03*
X357206Y433238D02*
D03*
X124357Y678500D02*
D03*
X105607D02*
D03*
X344117Y176326D02*
D03*
Y194517D02*
D03*
X189445Y296250D02*
D03*
X657411Y330794D02*
D03*
X608174Y319250D02*
D03*
X153515Y446813D02*
D03*
X122890Y430999D02*
D03*
X293683Y431249D02*
D03*
X575931Y374716D02*
D03*
X355631Y407750D02*
D03*
X413363Y444258D02*
D03*
X357206Y441803D02*
D03*
X456745Y432765D02*
D03*
X457548Y441602D02*
D03*
X244755Y358386D02*
D03*
X186000Y565891D02*
D03*
X194511Y567884D02*
D03*
X186000Y572204D02*
D03*
X144375Y360446D02*
D03*
Y338626D02*
D03*
X122195D02*
D03*
Y360446D02*
D03*
X382005Y656445D02*
D03*
X573926Y432765D02*
D03*
X564881Y423495D02*
D03*
X526829Y365317D02*
D03*
X644973Y342862D02*
D03*
X657411Y342587D02*
D03*
X651464Y336507D02*
D03*
X610215Y341400D02*
D03*
X644762Y330794D02*
D03*
X356245Y585116D02*
D03*
X365306Y667487D02*
D03*
X365567Y680808D02*
D03*
X306750Y151250D02*
D03*
Y133059D02*
D03*
X197975Y245671D02*
D03*
X237890Y241504D02*
D03*
X506750Y679250D02*
D03*
X255663Y142111D02*
D03*
X114763Y478621D02*
D03*
X102371Y472271D02*
D03*
Y486646D02*
D03*
X110415Y533860D02*
D03*
X114598Y552091D02*
D03*
X105366D02*
D03*
D136*
X613528Y217490D02*
D03*
X571792Y217293D02*
D03*
X600487Y277334D02*
D03*
X456006Y515454D02*
D03*
X384405Y509309D02*
D03*
X80424Y438727D02*
D03*
X262720Y251064D02*
D03*
M02*
