G04*
G04 #@! TF.GenerationSoftware,Altium Limited,Altium Designer,23.2.1 (34)*
G04*
G04 Layer_Color=32896*
%FSLAX44Y44*%
%MOMM*%
G71*
G04*
G04 #@! TF.SameCoordinates,6C2AB55D-B72B-4B93-AE35-0C838568E6CE*
G04*
G04*
G04 #@! TF.FilePolarity,Positive*
G04*
G01*
G75*
%ADD16C,0.1270*%
%ADD137R,31.8713X13.8624*%
D16*
X143052Y576904D02*
Y580459D01*
X144830Y582236D01*
X146607Y580459D01*
Y576904D01*
Y579570D01*
X143052D01*
X148385Y576904D02*
X151051D01*
X151939Y577793D01*
X151051Y578681D01*
X149273D01*
X148385Y579570D01*
X149273Y580459D01*
X151939D01*
X153717Y576904D02*
X156383D01*
X157272Y577793D01*
X156383Y578681D01*
X154606D01*
X153717Y579570D01*
X154606Y580459D01*
X157272D01*
X161715Y576904D02*
X159938D01*
X159049Y577793D01*
Y579570D01*
X159938Y580459D01*
X161715D01*
X162604Y579570D01*
Y578681D01*
X159049D01*
X164381Y576904D02*
Y580459D01*
X165270D01*
X166159Y579570D01*
Y576904D01*
Y579570D01*
X167048Y580459D01*
X167936Y579570D01*
Y576904D01*
X169714Y582236D02*
Y576904D01*
X172380D01*
X173269Y577793D01*
Y578681D01*
Y579570D01*
X172380Y580459D01*
X169714D01*
X175046Y576904D02*
X176823D01*
X175935D01*
Y582236D01*
X175046D01*
X179489Y580459D02*
Y577793D01*
X180378Y576904D01*
X183044D01*
Y576015D01*
X182156Y575127D01*
X181267D01*
X183044Y576904D02*
Y580459D01*
X190154Y576904D02*
Y582236D01*
X192820D01*
X193709Y581348D01*
Y579570D01*
X192820Y578681D01*
X190154D01*
X191931D02*
X193709Y576904D01*
X199041Y582236D02*
X195486D01*
Y576904D01*
X199041D01*
X195486Y579570D02*
X197264D01*
X200819Y582236D02*
Y578681D01*
X202596Y576904D01*
X204373Y578681D01*
Y582236D01*
X206151Y576904D02*
Y577793D01*
X207040D01*
Y576904D01*
X206151D01*
D137*
X298192Y504833D02*
D03*
M02*
