G04*
G04 #@! TF.GenerationSoftware,Altium Limited,Altium Designer,23.2.1 (34)*
G04*
G04 Layer_Color=8388736*
%FSLAX44Y44*%
%MOMM*%
G71*
G04*
G04 #@! TF.SameCoordinates,6C2AB55D-B72B-4B93-AE35-0C838568E6CE*
G04*
G04*
G04 #@! TF.FilePolarity,Negative*
G04*
G01*
G75*
%ADD25R,0.5000X0.5000*%
%ADD26R,1.3562X1.1046*%
%ADD27R,2.6550X1.2037*%
%ADD28R,1.2037X2.6550*%
%ADD29C,1.2700*%
%ADD30R,0.5000X0.5000*%
%ADD31R,0.8121X0.9531*%
%ADD32R,0.9000X0.6500*%
%ADD37R,1.4562X1.2549*%
%ADD38R,2.5000X1.7000*%
%ADD39R,0.9582X1.0061*%
%ADD40R,0.9000X0.8000*%
%ADD41R,0.8582X0.8061*%
%ADD43R,1.0121X1.3531*%
%ADD45R,0.8000X0.9000*%
%ADD46R,1.3531X1.0121*%
%ADD47R,0.6500X0.9000*%
%ADD49R,1.0061X0.9582*%
%ADD50R,1.2061X1.0582*%
%ADD51R,0.5811X0.4725*%
%ADD54R,0.7121X0.7811*%
%ADD56R,0.9531X0.8121*%
G04:AMPARAMS|DCode=57|XSize=0.2393mm|YSize=0.966mm|CornerRadius=0.1196mm|HoleSize=0mm|Usage=FLASHONLY|Rotation=90.000|XOffset=0mm|YOffset=0mm|HoleType=Round|Shape=RoundedRectangle|*
%AMROUNDEDRECTD57*
21,1,0.2393,0.7267,0,0,90.0*
21,1,0.0000,0.9660,0,0,90.0*
1,1,0.2393,0.3634,0.0000*
1,1,0.2393,0.3634,0.0000*
1,1,0.2393,-0.3634,0.0000*
1,1,0.2393,-0.3634,0.0000*
%
%ADD57ROUNDEDRECTD57*%
G04:AMPARAMS|DCode=58|XSize=0.966mm|YSize=0.2393mm|CornerRadius=0.1196mm|HoleSize=0mm|Usage=FLASHONLY|Rotation=90.000|XOffset=0mm|YOffset=0mm|HoleType=Round|Shape=RoundedRectangle|*
%AMROUNDEDRECTD58*
21,1,0.9660,0.0000,0,0,90.0*
21,1,0.7267,0.2393,0,0,90.0*
1,1,0.2393,0.0000,0.3634*
1,1,0.2393,0.0000,-0.3634*
1,1,0.2393,0.0000,-0.3634*
1,1,0.2393,0.0000,0.3634*
%
%ADD58ROUNDEDRECTD58*%
%ADD59R,0.2393X0.9660*%
%ADD68R,1.4038X2.7550*%
%ADD69R,1.9000X1.1000*%
%ADD71R,0.4725X0.5811*%
G04:AMPARAMS|DCode=75|XSize=0.65mm|YSize=0.25mm|CornerRadius=0.0625mm|HoleSize=0mm|Usage=FLASHONLY|Rotation=0.000|XOffset=0mm|YOffset=0mm|HoleType=Round|Shape=RoundedRectangle|*
%AMROUNDEDRECTD75*
21,1,0.6500,0.1250,0,0,0.0*
21,1,0.5250,0.2500,0,0,0.0*
1,1,0.1250,0.2625,-0.0625*
1,1,0.1250,-0.2625,-0.0625*
1,1,0.1250,-0.2625,0.0625*
1,1,0.1250,0.2625,0.0625*
%
%ADD75ROUNDEDRECTD75*%
G04:AMPARAMS|DCode=76|XSize=1.1116mm|YSize=1.5716mm|CornerRadius=0.1771mm|HoleSize=0mm|Usage=FLASHONLY|Rotation=180.000|XOffset=0mm|YOffset=0mm|HoleType=Round|Shape=RoundedRectangle|*
%AMROUNDEDRECTD76*
21,1,1.1116,1.2175,0,0,180.0*
21,1,0.7575,1.5716,0,0,180.0*
1,1,0.3541,-0.3787,0.6088*
1,1,0.3541,0.3787,0.6088*
1,1,0.3541,0.3787,-0.6088*
1,1,0.3541,-0.3787,-0.6088*
%
%ADD76ROUNDEDRECTD76*%
%ADD77R,0.8016X0.7016*%
%ADD78R,0.8016X1.1016*%
%ADD79R,0.5016X1.8516*%
%ADD80R,1.4766X2.6016*%
%ADD81R,0.7516X1.1516*%
%ADD82R,1.1516X0.7516*%
G04:AMPARAMS|DCode=83|XSize=0.42mm|YSize=0.99mm|CornerRadius=0.1204mm|HoleSize=0mm|Usage=FLASHONLY|Rotation=180.000|XOffset=0mm|YOffset=0mm|HoleType=Round|Shape=RoundedRectangle|*
%AMROUNDEDRECTD83*
21,1,0.4200,0.7492,0,0,180.0*
21,1,0.1792,0.9900,0,0,180.0*
1,1,0.2408,-0.0896,0.3746*
1,1,0.2408,0.0896,0.3746*
1,1,0.2408,0.0896,-0.3746*
1,1,0.2408,-0.0896,-0.3746*
%
%ADD83ROUNDEDRECTD83*%
G04:AMPARAMS|DCode=84|XSize=1.79mm|YSize=2.54mm|CornerRadius=0.1195mm|HoleSize=0mm|Usage=FLASHONLY|Rotation=90.000|XOffset=0mm|YOffset=0mm|HoleType=Round|Shape=RoundedRectangle|*
%AMROUNDEDRECTD84*
21,1,1.7900,2.3010,0,0,90.0*
21,1,1.5510,2.5400,0,0,90.0*
1,1,0.2390,1.1505,0.7755*
1,1,0.2390,1.1505,-0.7755*
1,1,0.2390,-1.1505,-0.7755*
1,1,0.2390,-1.1505,0.7755*
%
%ADD84ROUNDEDRECTD84*%
%ADD85R,1.0816X3.5016*%
%ADD86O,1.5516X0.7016*%
G04:AMPARAMS|DCode=87|XSize=1.1116mm|YSize=1.5716mm|CornerRadius=0.1771mm|HoleSize=0mm|Usage=FLASHONLY|Rotation=90.000|XOffset=0mm|YOffset=0mm|HoleType=Round|Shape=RoundedRectangle|*
%AMROUNDEDRECTD87*
21,1,1.1116,1.2175,0,0,90.0*
21,1,0.7575,1.5716,0,0,90.0*
1,1,0.3541,0.6088,0.3787*
1,1,0.3541,0.6088,-0.3787*
1,1,0.3541,-0.6088,-0.3787*
1,1,0.3541,-0.6088,0.3787*
%
%ADD87ROUNDEDRECTD87*%
%ADD88R,1.6800X1.6800*%
G04:AMPARAMS|DCode=89|XSize=1.0016mm|YSize=1.7016mm|CornerRadius=0.1003mm|HoleSize=0mm|Usage=FLASHONLY|Rotation=90.000|XOffset=0mm|YOffset=0mm|HoleType=Round|Shape=RoundedRectangle|*
%AMROUNDEDRECTD89*
21,1,1.0016,1.5010,0,0,90.0*
21,1,0.8010,1.7016,0,0,90.0*
1,1,0.2006,0.7505,0.4005*
1,1,0.2006,0.7505,-0.4005*
1,1,0.2006,-0.7505,-0.4005*
1,1,0.2006,-0.7505,0.4005*
%
%ADD89ROUNDEDRECTD89*%
G04:AMPARAMS|DCode=90|XSize=0.3516mm|YSize=0.6016mm|CornerRadius=0.1008mm|HoleSize=0mm|Usage=FLASHONLY|Rotation=180.000|XOffset=0mm|YOffset=0mm|HoleType=Round|Shape=RoundedRectangle|*
%AMROUNDEDRECTD90*
21,1,0.3516,0.4000,0,0,180.0*
21,1,0.1500,0.6016,0,0,180.0*
1,1,0.2016,-0.0750,0.2000*
1,1,0.2016,0.0750,0.2000*
1,1,0.2016,0.0750,-0.2000*
1,1,0.2016,-0.0750,-0.2000*
%
%ADD90ROUNDEDRECTD90*%
G04:AMPARAMS|DCode=91|XSize=1.1016mm|YSize=1.2016mm|CornerRadius=0.1758mm|HoleSize=0mm|Usage=FLASHONLY|Rotation=90.000|XOffset=0mm|YOffset=0mm|HoleType=Round|Shape=RoundedRectangle|*
%AMROUNDEDRECTD91*
21,1,1.1016,0.8500,0,0,90.0*
21,1,0.7500,1.2016,0,0,90.0*
1,1,0.3516,0.4250,0.3750*
1,1,0.3516,0.4250,-0.3750*
1,1,0.3516,-0.4250,-0.3750*
1,1,0.3516,-0.4250,0.3750*
%
%ADD91ROUNDEDRECTD91*%
%ADD92R,2.0016X1.4516*%
%ADD93R,0.9516X1.2016*%
%ADD94R,0.8516X1.2016*%
%ADD95R,1.2716X1.9016*%
%ADD96R,1.6516X1.4516*%
%ADD97R,1.3016X1.1016*%
%ADD98C,2.5400*%
%ADD99R,0.9516X0.9516*%
%ADD100R,0.8016X1.3016*%
%ADD101R,1.3016X0.8016*%
%ADD102R,2.1016X2.1016*%
%ADD103R,2.2400X2.2400*%
%ADD104R,0.8016X0.3816*%
%ADD105R,0.8016X0.3816*%
%ADD106R,0.8016X0.3816*%
%ADD107R,0.8016X0.3816*%
%ADD108C,3.7016*%
%ADD109C,1.4996*%
%ADD110R,1.4996X1.4996*%
%ADD111C,1.1074*%
%ADD112O,1.1016X1.5616*%
%ADD113O,1.1016X1.9016*%
%ADD114R,1.4996X1.4996*%
%ADD115R,1.3016X1.3016*%
%ADD116C,1.3016*%
G36*
X84732Y676500D02*
X84742Y676160D01*
X84772Y675820D01*
X84812Y675480D01*
X84872Y675150D01*
X84952Y674820D01*
X85052Y674490D01*
X85162Y674170D01*
X85292Y673860D01*
X85442Y673550D01*
X85602Y673250D01*
X85782Y672960D01*
X85972Y672680D01*
X86182Y672410D01*
X86402Y672150D01*
X86632Y671900D01*
X86882Y671670D01*
X87142Y671450D01*
X87412Y671240D01*
X87692Y671050D01*
X87982Y670870D01*
X88282Y670710D01*
X88592Y670560D01*
X88902Y670430D01*
X89222Y670320D01*
X89552Y670220D01*
X89882Y670140D01*
X90212Y670080D01*
X90552Y670040D01*
X90892Y670010D01*
X91232Y670000D01*
X95232D01*
Y655209D01*
X74982D01*
Y665000D01*
X71482D01*
X71222Y665010D01*
X70962Y665030D01*
X70702Y665060D01*
X70442Y665110D01*
X70192Y665170D01*
X69932Y665240D01*
X69692Y665330D01*
X69452Y665430D01*
X69212Y665540D01*
X68982Y665670D01*
X68762Y665810D01*
X68542Y665950D01*
X68332Y666110D01*
X68132Y666280D01*
X67942Y666460D01*
X67762Y666650D01*
X67592Y666850D01*
X67432Y667060D01*
X67292Y667280D01*
X67152Y667500D01*
X67022Y667730D01*
X66912Y667970D01*
X66812Y668210D01*
X66722Y668450D01*
X66652Y668710D01*
X66592Y668960D01*
X66542Y669220D01*
X66512Y669480D01*
X66492Y669740D01*
X66482Y670000D01*
Y683000D01*
X66492Y683260D01*
X66512Y683520D01*
X66542Y683780D01*
X66592Y684040D01*
X66652Y684290D01*
X66722Y684550D01*
X66812Y684790D01*
X66912Y685030D01*
X67022Y685270D01*
X67152Y685500D01*
X67292Y685720D01*
X67432Y685940D01*
X67592Y686150D01*
X67762Y686350D01*
X67942Y686540D01*
X68132Y686720D01*
X68332Y686890D01*
X68542Y687050D01*
X68762Y687190D01*
X68982Y687330D01*
X69212Y687460D01*
X69452Y687570D01*
X69692Y687670D01*
X69932Y687760D01*
X70192Y687830D01*
X70442Y687890D01*
X70702Y687940D01*
X70962Y687970D01*
X71222Y687990D01*
X71482Y688000D01*
X84732D01*
Y676500D01*
D02*
G37*
G36*
X158742Y687990D02*
X159002Y687970D01*
X159262Y687940D01*
X159522Y687890D01*
X159772Y687830D01*
X160032Y687760D01*
X160272Y687670D01*
X160512Y687570D01*
X160752Y687460D01*
X160982Y687330D01*
X161202Y687190D01*
X161422Y687050D01*
X161632Y686890D01*
X161832Y686720D01*
X162022Y686540D01*
X162202Y686350D01*
X162372Y686150D01*
X162532Y685940D01*
X162672Y685720D01*
X162812Y685500D01*
X162942Y685270D01*
X163052Y685030D01*
X163152Y684790D01*
X163242Y684550D01*
X163312Y684290D01*
X163372Y684040D01*
X163422Y683780D01*
X163452Y683520D01*
X163472Y683260D01*
X163482Y683000D01*
Y670000D01*
X163472Y669740D01*
X163452Y669480D01*
X163422Y669220D01*
X163372Y668960D01*
X163312Y668710D01*
X163242Y668450D01*
X163152Y668210D01*
X163052Y667970D01*
X162942Y667730D01*
X162812Y667500D01*
X162672Y667280D01*
X162532Y667060D01*
X162372Y666850D01*
X162202Y666650D01*
X162022Y666460D01*
X161832Y666280D01*
X161632Y666110D01*
X161422Y665950D01*
X161202Y665810D01*
X160982Y665670D01*
X160752Y665540D01*
X160512Y665430D01*
X160272Y665330D01*
X160032Y665240D01*
X159772Y665170D01*
X159522Y665110D01*
X159262Y665060D01*
X159002Y665030D01*
X158742Y665010D01*
X158482Y665000D01*
X154982D01*
Y655054D01*
X134732D01*
Y670000D01*
X138732D01*
X139072Y670010D01*
X139412Y670040D01*
X139752Y670080D01*
X140082Y670140D01*
X140412Y670220D01*
X140742Y670320D01*
X141062Y670430D01*
X141372Y670560D01*
X141682Y670710D01*
X141982Y670870D01*
X142272Y671050D01*
X142552Y671240D01*
X142822Y671450D01*
X143082Y671670D01*
X143332Y671900D01*
X143562Y672150D01*
X143782Y672410D01*
X143992Y672680D01*
X144182Y672960D01*
X144362Y673250D01*
X144522Y673550D01*
X144672Y673860D01*
X144802Y674170D01*
X144912Y674490D01*
X145012Y674820D01*
X145092Y675150D01*
X145152Y675480D01*
X145192Y675820D01*
X145222Y676160D01*
X145232Y676500D01*
Y688000D01*
X158482D01*
X158742Y687990D01*
D02*
G37*
G36*
X154982Y637400D02*
X132982D01*
Y654000D01*
X154982D01*
Y637400D01*
D02*
G37*
G36*
X96982D02*
X74982D01*
Y654000D01*
X96982D01*
Y637400D01*
D02*
G37*
G36*
X118482Y530476D02*
X101482D01*
Y550376D01*
X106582Y555476D01*
X118482D01*
Y530476D01*
D02*
G37*
D25*
X272839Y510579D02*
D03*
Y500579D02*
D03*
X545746Y372567D02*
D03*
Y382567D02*
D03*
X526886Y373195D02*
D03*
Y383195D02*
D03*
X252135Y245737D02*
D03*
Y255737D02*
D03*
X86072Y580690D02*
D03*
Y570690D02*
D03*
X167000Y197300D02*
D03*
Y207300D02*
D03*
X168500Y150920D02*
D03*
Y160920D02*
D03*
D26*
X622965Y391187D02*
D03*
Y405202D02*
D03*
X525616Y434508D02*
D03*
Y420492D02*
D03*
X653632Y405202D02*
D03*
Y391187D02*
D03*
X412755Y489529D02*
D03*
Y503545D02*
D03*
X499584Y420492D02*
D03*
Y434508D02*
D03*
X473066Y420492D02*
D03*
Y434508D02*
D03*
D27*
X229540Y501573D02*
D03*
Y527085D02*
D03*
D28*
X237701Y583924D02*
D03*
X212188D02*
D03*
D29*
X48719Y632533D02*
D03*
X567724Y521461D02*
D03*
X474336Y301122D02*
D03*
X570291Y306263D02*
D03*
X657411Y313701D02*
D03*
X297113Y250479D02*
D03*
X300740Y671167D02*
D03*
X246107Y442068D02*
D03*
X235927Y460885D02*
D03*
X180588Y659131D02*
D03*
X193092Y588505D02*
D03*
X155265Y545226D02*
D03*
X144765Y528314D02*
D03*
X273305Y486453D02*
D03*
X398444Y461500D02*
D03*
X517250Y665150D02*
D03*
X541916Y611017D02*
D03*
X359512Y643849D02*
D03*
X517250Y649517D02*
D03*
X342012Y221952D02*
D03*
X413383Y415792D02*
D03*
X337487Y244467D02*
D03*
X448936Y330113D02*
D03*
D30*
X80424Y533520D02*
D03*
X70424D02*
D03*
X522250Y633320D02*
D03*
X512250D02*
D03*
X166000Y244000D02*
D03*
X156000D02*
D03*
X271395Y582225D02*
D03*
X261395D02*
D03*
X265442Y229666D02*
D03*
X275442D02*
D03*
X48719Y608166D02*
D03*
X58719D02*
D03*
X37226Y574244D02*
D03*
X47226D02*
D03*
X70424Y549726D02*
D03*
X80424D02*
D03*
D31*
X28250Y538485D02*
D03*
Y549515D02*
D03*
X119284Y440962D02*
D03*
Y451993D02*
D03*
X302652Y580709D02*
D03*
Y591740D02*
D03*
X156776Y48735D02*
D03*
Y59765D02*
D03*
X157207Y124615D02*
D03*
Y113584D02*
D03*
D32*
X48719Y535035D02*
D03*
Y549535D02*
D03*
X375411Y458273D02*
D03*
Y472773D02*
D03*
X319682Y207452D02*
D03*
Y221952D02*
D03*
X315138Y481500D02*
D03*
Y496000D02*
D03*
D37*
X65000Y574244D02*
D03*
Y590756D02*
D03*
D38*
X596085Y440521D02*
D03*
X636085D02*
D03*
D39*
X274250Y448057D02*
D03*
Y462079D02*
D03*
X577223Y621559D02*
D03*
Y635581D02*
D03*
X140247Y604042D02*
D03*
Y590020D02*
D03*
X519102Y610661D02*
D03*
Y596639D02*
D03*
D40*
X201592Y441031D02*
D03*
Y456031D02*
D03*
X548411Y420771D02*
D03*
Y435771D02*
D03*
X201043Y555677D02*
D03*
Y540677D02*
D03*
X354000Y486080D02*
D03*
Y501080D02*
D03*
D41*
X179318Y453758D02*
D03*
Y441737D02*
D03*
X615602Y265312D02*
D03*
Y277334D02*
D03*
D43*
X153515Y462079D02*
D03*
Y447048D02*
D03*
X356245Y601135D02*
D03*
Y616166D02*
D03*
D45*
X638048Y287474D02*
D03*
X653048D02*
D03*
X282970Y208655D02*
D03*
X267970D02*
D03*
X165730Y225959D02*
D03*
X150730D02*
D03*
X344237Y289960D02*
D03*
X359238D02*
D03*
X153500Y262858D02*
D03*
X168500D02*
D03*
D46*
X638048Y313356D02*
D03*
X623017D02*
D03*
X335410Y671487D02*
D03*
X350440D02*
D03*
X288476Y142450D02*
D03*
X273445D02*
D03*
X325927Y185717D02*
D03*
X310897D02*
D03*
D47*
X269490Y166952D02*
D03*
X283990D02*
D03*
X635215Y335302D02*
D03*
X620715D02*
D03*
X414633Y460068D02*
D03*
X429133D02*
D03*
X175824Y113584D02*
D03*
X190324D02*
D03*
X176639Y60000D02*
D03*
X191140D02*
D03*
D49*
X573442Y359921D02*
D03*
X587464D02*
D03*
X104827Y571428D02*
D03*
X118849D02*
D03*
D50*
X590227Y337862D02*
D03*
X574206D02*
D03*
D51*
X552982Y358073D02*
D03*
X545671D02*
D03*
X135720Y173739D02*
D03*
X143031D02*
D03*
D54*
X167250Y174501D02*
D03*
Y183811D02*
D03*
D56*
X309985Y547735D02*
D03*
X321015D02*
D03*
X249382Y484657D02*
D03*
X238351D02*
D03*
X403768Y337961D02*
D03*
X392737D02*
D03*
X125794Y478621D02*
D03*
X114763D02*
D03*
D57*
X256386Y554480D02*
D03*
X285847Y544480D02*
D03*
Y549481D02*
D03*
Y554480D02*
D03*
Y539481D02*
D03*
X256386Y549481D02*
D03*
Y544480D02*
D03*
Y539481D02*
D03*
D58*
X273617Y561711D02*
D03*
X268617D02*
D03*
X273617Y532250D02*
D03*
X268617D02*
D03*
X278617Y561711D02*
D03*
Y532250D02*
D03*
X263617Y561711D02*
D03*
D59*
Y532250D02*
D03*
D68*
X456006Y533960D02*
D03*
X428494D02*
D03*
D69*
X386940Y377883D02*
D03*
Y402882D02*
D03*
D71*
X135000Y200000D02*
D03*
Y207311D02*
D03*
D75*
X94482Y554226D02*
D03*
Y549726D02*
D03*
Y545226D02*
D03*
Y540726D02*
D03*
Y536226D02*
D03*
Y531726D02*
D03*
X125482D02*
D03*
Y536226D02*
D03*
Y540726D02*
D03*
Y545226D02*
D03*
Y549726D02*
D03*
Y554226D02*
D03*
D76*
X302652Y612669D02*
D03*
X283052D02*
D03*
X128028Y501320D02*
D03*
X108428D02*
D03*
X349361Y337960D02*
D03*
X368961D02*
D03*
D77*
X101252Y588505D02*
D03*
X121252Y607506D02*
D03*
X101252D02*
D03*
D78*
X121252Y590505D02*
D03*
D79*
X101982Y647750D02*
D03*
X114982D02*
D03*
X108482D02*
D03*
X127982D02*
D03*
X121482D02*
D03*
D80*
X105607Y678500D02*
D03*
X124357D02*
D03*
D81*
X200886Y478226D02*
D03*
Y519726D02*
D03*
X179386D02*
D03*
Y478226D02*
D03*
D82*
X613488Y226194D02*
D03*
X571988D02*
D03*
Y247694D02*
D03*
X613488D02*
D03*
D83*
X571262Y414521D02*
D03*
X576262D02*
D03*
Y385022D02*
D03*
X566262D02*
D03*
X571262D02*
D03*
X581262Y414521D02*
D03*
X586262D02*
D03*
X566262D02*
D03*
X581262Y385022D02*
D03*
X586262D02*
D03*
D84*
X576262Y399772D02*
D03*
D85*
X571392Y482402D02*
D03*
X595092D02*
D03*
X376555Y537491D02*
D03*
X400255D02*
D03*
D86*
X242140Y193250D02*
D03*
Y205950D02*
D03*
X187640Y167850D02*
D03*
Y218650D02*
D03*
Y205950D02*
D03*
Y180550D02*
D03*
Y193250D02*
D03*
X242140Y180550D02*
D03*
Y231350D02*
D03*
X187640D02*
D03*
Y142450D02*
D03*
Y155150D02*
D03*
X242140Y142450D02*
D03*
Y218650D02*
D03*
Y167850D02*
D03*
Y155150D02*
D03*
D87*
X325029Y569679D02*
D03*
Y589279D02*
D03*
X96470Y438730D02*
D03*
Y458330D02*
D03*
D88*
X271117Y546980D02*
D03*
D89*
X381905Y492000D02*
D03*
D90*
X379405Y482500D02*
D03*
Y501500D02*
D03*
X384405D02*
D03*
X389405D02*
D03*
X374405D02*
D03*
Y482500D02*
D03*
X384405D02*
D03*
X389405D02*
D03*
D91*
X84922Y623281D02*
D03*
X101922D02*
D03*
X139335Y623219D02*
D03*
X122336D02*
D03*
D92*
X474105Y574195D02*
D03*
X414405D02*
D03*
D93*
X405755Y682445D02*
D03*
X438755D02*
D03*
X416755D02*
D03*
X460755D02*
D03*
X449755D02*
D03*
X471755D02*
D03*
X427755D02*
D03*
D94*
X482255D02*
D03*
D95*
X494355Y678945D02*
D03*
D96*
X381155Y681195D02*
D03*
D97*
X379405Y583945D02*
D03*
Y620945D02*
D03*
D98*
X638387Y678945D02*
D03*
X19750Y634875D02*
D03*
X70000Y28084D02*
D03*
D99*
X366440Y371300D02*
D03*
Y382800D02*
D03*
Y407750D02*
D03*
Y396250D02*
D03*
D100*
X93445Y283000D02*
D03*
X105445D02*
D03*
X117445D02*
D03*
X129445D02*
D03*
X141445D02*
D03*
X285445D02*
D03*
X297445D02*
D03*
X285445Y417000D02*
D03*
X153445D02*
D03*
X141445D02*
D03*
X129445D02*
D03*
X117445D02*
D03*
X105445D02*
D03*
X93445D02*
D03*
X153445Y283000D02*
D03*
X249445Y417000D02*
D03*
X309445D02*
D03*
X273445Y283000D02*
D03*
X309445D02*
D03*
X189445D02*
D03*
Y417000D02*
D03*
X81445D02*
D03*
Y283000D02*
D03*
X261445D02*
D03*
X165445Y417000D02*
D03*
X201445D02*
D03*
X177445D02*
D03*
Y283000D02*
D03*
X249445D02*
D03*
X225445Y417000D02*
D03*
X237445D02*
D03*
X297445D02*
D03*
X273445D02*
D03*
X261445D02*
D03*
X225445Y283000D02*
D03*
X237445D02*
D03*
X213445Y417000D02*
D03*
X165445Y283000D02*
D03*
X201445D02*
D03*
X213445D02*
D03*
D101*
X323855Y313960D02*
D03*
Y409960D02*
D03*
Y301960D02*
D03*
Y289960D02*
D03*
Y325960D02*
D03*
Y361960D02*
D03*
Y373960D02*
D03*
Y337960D02*
D03*
Y349960D02*
D03*
Y385960D02*
D03*
Y397960D02*
D03*
D102*
X273305Y358386D02*
D03*
Y329146D02*
D03*
X244755Y358386D02*
D03*
Y329146D02*
D03*
D103*
X144375Y360446D02*
D03*
Y338626D02*
D03*
X122195Y360446D02*
D03*
Y338626D02*
D03*
D104*
X591762Y397276D02*
D03*
D105*
Y402276D02*
D03*
D106*
X560762D02*
D03*
D107*
Y397276D02*
D03*
D108*
X676500Y676500D02*
D03*
X23500Y23500D02*
D03*
X676500D02*
D03*
X23500Y676500D02*
D03*
D109*
X409626Y59360D02*
D03*
X435026D02*
D03*
X460426D02*
D03*
X384226D02*
D03*
X249962Y59406D02*
D03*
X275362D02*
D03*
X300762D02*
D03*
X523916Y531090D02*
D03*
Y505690D02*
D03*
X60000Y94412D02*
D03*
Y119812D02*
D03*
Y145212D02*
D03*
D110*
X485826Y59360D02*
D03*
X326162Y59406D02*
D03*
D111*
X416642Y259810D02*
D03*
X403942D02*
D03*
Y285210D02*
D03*
Y272510D02*
D03*
X416642Y285210D02*
D03*
Y272510D02*
D03*
Y297910D02*
D03*
Y310610D02*
D03*
X403942Y297910D02*
D03*
Y310610D02*
D03*
D112*
X90732Y645700D02*
D03*
X139232D02*
D03*
D113*
X73982Y676500D02*
D03*
X155982D02*
D03*
D114*
X523916Y480290D02*
D03*
X60000Y170612D02*
D03*
D115*
X249382Y627886D02*
D03*
D116*
X229382D02*
D03*
M02*
