M48
;Layer_Color=9474304
;FILE_FORMAT=4:4
METRIC,LZ
;TYPE=PLATED
T1F00S00C0.2000
T2F00S00C0.2032
T4F00S00C0.6502
T5F00S00C0.7000
T7F00S00C0.8900
T8F00S00C2.7000
%
T01
X0026272Y00251064
X00571792Y00217293
X00613528Y0021749
X00600487Y00277334
X00080424Y00438727
X00384405Y00509309
X00456006Y00515454
T02
X00148162Y000346
X00156776
X00165707Y000346
X0016727Y00043969
X00652958Y0027778
X00657411Y00330794
X00651464Y00336507
X00657411Y00342587
X00644973Y00342862
X00644762Y00330794
X00632569Y00362467
X00632565Y00372567
X00622226
X00622286Y00362467
X00622965Y00391187
X00653632
X00660242Y00418753
X00660433Y00426975
Y00436264
X00660374Y00445552
X00660305Y00454684
X0064675Y00456358
X00573926Y00432765
X00564881Y00423495
X00568762Y00404772
Y00394772
X00576262Y00399772
X00583762Y00394772
Y00404772
X00575931Y00374716
X00611512Y00372567
X00611469Y00362467
X00610215Y003414
X00602857
X00602728Y00330539
X00610129Y00330794
X00608174Y0031925
X00600487
X00590344
Y00306263
X00600487
X00608174
X00526829Y00365317
X00521078Y00395294
Y00404938
X00531139
X00537329Y00391876
X00507046Y00395294
Y00404938
X00484755Y00403576
X00456745Y0039796
X00442755Y00389757
Y00364921
X0044225Y00350181
X00418586Y00345185
Y00336052
Y00326402
X00406462
X00383405Y0031396
X00338381
X00339965Y00322613
X00338381Y00337961
X00337817Y00354323
X00356816Y00371047
X00355631Y0040775
X00357206Y00433238
Y00441803
X00309445Y00431249
X00293683
X00289215Y00460068
X00279877Y00402882
X00270944Y003975
X00239621Y00393633
X00244755Y00358386
X00273305
Y00329146
X00273617Y00301294
X00264433Y0029496
X00306427
X00309445Y00268831
X00316832Y00270146
X00344237Y00275709
X00359352
X00386905Y00249497
X00427863Y00237896
X00324484Y00234459
X00289746Y00221459
X00275692Y00241504
X00265599
X0023789
X0023489Y00246984
X00224559Y00260163
X00225445Y0022522
X0025189Y00198655
X00255325Y00187717
X00262267Y001819
X00268268Y00194816
X0029313Y00188921
X00340117Y00185767
X00344117Y00194517
Y00176326
X0030675Y0015125
X00302335Y00145209
Y00138686
X0030675Y00133059
X0029313Y00108584
X00255663Y00142111
X00409533Y00113584
X004705Y0031925
X00456745Y00432765
X00457548Y00441602
X00435026Y00444403
X00427755
X00420651
X00413363Y00444258
X00500834Y00450068
X00523916Y00460962
X00533692Y0046102
X00543265Y00460962
X003105Y00337961
X00244755Y00329146
X00200886Y00360573
X00214715Y00384802
X00177445Y00388051
X00174318Y00404878
X0018965
X0015003Y00405238
X00153515Y00446813
X0012289Y00430999
X00074758Y00430303
X00081445Y00417
X00074781Y00402857
X00074758Y00384105
X00074575Y00361744
X00074775Y00338516
X00074575Y00315547
X00074558Y00299
X0008545
X00074358Y00266929
X00074558Y002437
X00059794Y00229552
X00034826
X00011058
X0014152Y00226016
X0014523Y00243593
X0014Y00262858
X00181209Y00262094
X0018327Y00273972
X00189445Y0029625
X00188449Y00249467
X00197975Y00245671
X00134945Y00189717
X00148415Y0014118
X00157207Y001369
X00165707Y00140632
X00175821Y0014292
X0018764Y001344
X0020014Y00113584
X00222707Y0011617
X0021189Y00094158
X00205088Y0008
X00183074
X00180414Y00093904
X00078835Y00132512
X00122195Y00338626
Y00360446
X00144375
Y00338626
X00221882Y0044075
X0021692Y004563
X00074558Y00453531
X00059794Y00470121
X00034826
X00011058
X0002825Y00538485
X00063732Y00540326
X00061409Y00549535
X00075424Y00542976
X00070547Y00560988
X00092765Y00564136
X00092879Y00580886
X00113784Y00590549
X00114598Y00552091
X00105366
X00110415Y0053386
X00135138Y00536712
X0008628Y0052877
X00083592Y00522764
X00102371Y00486646
Y00472271
X00114763Y00478621
X00199722Y00494303
Y00503545
X00210676
Y0049402
X0021792Y0048375
X00210676Y0051383
Y00522903
X0021692Y00540212
X00201043Y00540677
X00186Y00551288
Y00558266
Y00565891
Y00572204
X00194511Y00567884
X00198733Y00618776
X00199431Y006315
X00124357Y006785
X00105607
X00048719Y00619835
X00047226Y0058474
X00037226
X00228395Y00610106
X00239382
X00296048Y00657922
X00365306Y00667487
X00365567Y00680808
X0034575Y00691252
X00382005Y00656445
X00414755Y00666487
X00438755Y00637672
X00452725Y00649517
Y00618757
X00430734Y00610889
X0045526Y00575086
X00501205Y00611105
X0051225Y00623559
X00522354
X00504Y0063332
X00504163Y00649517
Y0066515
X0050675Y0067925
X00481105Y0066515
X00560218Y00621573
X00543265Y00488259
Y00478793
Y00469027
X00528156Y00466761
X00516803Y004666
X00385905Y00492
X00377905
X00314479Y00467851
X00296406Y0047592
X00291604Y0049375
Y00502888
X00272193Y00518086
X00273867Y00473818
X00297787Y00560568
X00333155Y00555397
X00331434Y00546084
X00356245Y00585116
X00368Y00583945
T04
X00403942Y0025981
X00416642
Y0027251
X00403942
Y0028521
X00416642
Y0029791
Y0031061
X00403942
Y0029791
T05
X00229382Y00627886
X00249382
T07
X00249962Y00059406
X00275362
X00300762
X00326162
X00384226Y0005936
X00409626
X00435026
X00460426
X00485826
X0006Y00094412
Y00119812
Y00145212
Y00170612
X00523916Y0048029
Y0050569
Y0053109
T08
X000235Y000235
X006765
X000235Y006765
X006765Y006765
M30
